<?xml version="1.0" encoding="iso-8859-1"?>
<!-- Generator: Adobe Illustrator 19.0.0, SVG Export Plug-In . SVG Version: 6.00 Build 0)  -->
<svg version="1.1" id="Layer_1" xmlns="http://www.w3.org/2000/svg" xmlns:xlink="http://www.w3.org/1999/xlink" x="0px" y="0px"
	 viewBox="0 0 490.2 490.2" style="enable-background:new 0 0 490.2 490.2;" xml:space="preserve">
<g>
	<path d="M396.75,373.2h-16.7v-147c0-56.6-35-104.9-83.9-125.2c7.5-10.5,12-23.4,12-37.4c0-35.4-28.1-63.6-63.6-63.6
		s-63.6,28.1-63.6,63.6c0,14,4.4,26.9,12,37.4c-49.3,20.5-83.9,69.3-83.9,125.3v147h-15.6c-11.5,0-20.9,9.4-20.9,20.9
		s9.4,20.9,20.9,20.9h63.8c9.4,41.8,46,75.1,87.3,75.1s77.9-33.2,88.7-75.1h62.5c11.5,0,21.9-9.4,21.9-20.9
		C417.55,382.6,408.25,373.2,396.75,373.2z M244.55,40.7c12.5,0,22.9,10.4,22.9,22.9s-10.4,22.9-22.9,22.9
		c-12.5,0-22.9-10.4-22.9-22.9C221.55,51.1,232.05,40.7,244.55,40.7z M150.65,226.2c0-51.1,41.7-93.8,93.8-93.8
		c51.1,0,93.8,41.7,93.8,93.8v147h-187.6V226.2z M245.55,449.3c-19.6,0-37.4-14.7-45-34.4h89.9
		C282.55,434.6,264.35,449.3,245.55,449.3z"/>
</g>
<g>
</g>
<g>
</g>
<g>
</g>
<g>
</g>
<g>
</g>
<g>
</g>
<g>
</g>
<g>
</g>
<g>
</g>
<g>
</g>
<g>
</g>
<g>
</g>
<g>
</g>
<g>
</g>
<g>
</g>
</svg>
