<?xml version="1.0" encoding="iso-8859-1"?>
<!-- Generator: Adobe Illustrator 19.0.0, SVG Export Plug-In . SVG Version: 6.00 Build 0)  -->
<svg version="1.1" id="Layer_1" xmlns="http://www.w3.org/2000/svg" xmlns:xlink="http://www.w3.org/1999/xlink" x="0px" y="0px"
	 viewBox="0 0 489.569 489.569" style="enable-background:new 0 0 489.569 489.569;" xml:space="preserve">
<g>
	<path d="M468.781,157.238h-66.7v-38.6c0-11.5-9.4-20.8-20.8-20.8h-35l52.2-64.6c6.3-8.3,5.2-21.9-3.1-29.2
		c-9.4-6.3-21.9-5.2-29.2,3.1l-73,90.6h-183.8l-73-90.6c-7.3-8.3-19.8-9.4-29.2-3.1c-8.3,7.4-9.3,20.9-3.1,29.2l52.2,64.6h-34.4
		c-11.5,0-20.8,9.4-20.8,20.8v252.1c0,11.5,9.4,20.8,20.8,20.8h34.7l-52,64.6c-7.3,8.3-5.2,21.9,3.1,29.2c3.1,3.1,17,9,28.1-3.1
		l73.2-90.6h184.5l73.2,90.6c11.1,12.1,25,6.3,28.1,3.1c8.3-7.3,10.4-20.8,3.1-29.2l-52-64.6h35.3c11.5,0,19.8-9.4,20.8-20.8v-38.6
		h66.7c11.5,0,20.8-9.4,20.8-20.8v-133.2C489.681,166.638,480.281,157.238,468.781,157.238z M259.581,139.538l-58.3,72.4l-58.3-72.4
		H259.581z M41.581,350.038v-210.5h48.3l85,105.2l-84.8,105.3H41.581L41.581,350.038z M142.681,350.038l58.6-72.6l58.6,72.6H142.681
		z M360.481,350.038h-48.1l-84.8-105.3l84.9-105.2h47.9v210.5H360.481z M447.981,290.638h-45.8v-92.7h45.8V290.638z"/>
</g>
<g>
</g>
<g>
</g>
<g>
</g>
<g>
</g>
<g>
</g>
<g>
</g>
<g>
</g>
<g>
</g>
<g>
</g>
<g>
</g>
<g>
</g>
<g>
</g>
<g>
</g>
<g>
</g>
<g>
</g>
</svg>
