<?xml version="1.0" encoding="iso-8859-1"?>
<!-- Generator: Adobe Illustrator 19.0.0, SVG Export Plug-In . SVG Version: 6.00 Build 0)  -->
<svg version="1.1" id="Layer_1" xmlns="http://www.w3.org/2000/svg" xmlns:xlink="http://www.w3.org/1999/xlink" x="0px" y="0px"
	 viewBox="0 0 490.252 490.252" style="enable-background:new 0 0 490.252 490.252;" xml:space="preserve">
<g>
	<g>
		<path d="M231,71.976v-31.3h5.3c10.6,0,19.2-9.6,19.2-20.2s-8.5-20.2-20.2-20.2h-50c-10.6,0-19.2,9.6-19.2,20.2s8.5,20.2,20.2,20.2
			h4.3v31.3c-100.6,15.2-175.9,143.2-177.8,305.1c-8.2,9-12.8,19.3-12.8,30.9c0,56.4,109.7,82,210.8,82s210.8-25.6,210.8-82
			c0-11.6-4.6-21.8-12.8-30.9C406.8,215.276,330.6,87.376,231,71.976z M210.7,110.876c78.7,0,145.6,106.4,155.3,239.3
			c-41.1-16.4-99.5-24.2-155.3-24.2s-114.2,7.8-155.3,24.2C65.2,217.276,132,110.876,210.7,110.876z M210.7,448.476
			c-108.6,0-168.2-28.7-169.3-40.5c1-11,53.3-36.9,149.1-40.1v6c0,10.6,8.5,20.2,20.2,20.2s20.2-8.5,20.2-20.2v-6
			c95.8,3.3,148.1,29.2,149.1,40.1C379,419.676,319.4,448.476,210.7,448.476z"/>
		<path d="M483.3,295.076c-3.2-10.6-13.8-18.1-24.5-16c-10.6,3.2-18.1,13.8-16,24.5c8.5,39.4,8.5,80.9,1.1,121.4
			c-2,23.7,18.1,23.4,19.2,23.4c9.6,0,18.1-6.4,21.3-17C492.9,386.676,491.8,339.876,483.3,295.076z"/>
	</g>
</g>
<g>
</g>
<g>
</g>
<g>
</g>
<g>
</g>
<g>
</g>
<g>
</g>
<g>
</g>
<g>
</g>
<g>
</g>
<g>
</g>
<g>
</g>
<g>
</g>
<g>
</g>
<g>
</g>
<g>
</g>
</svg>
