<?xml version="1.0" encoding="iso-8859-1"?>
<!-- Generator: Adobe Illustrator 19.0.0, SVG Export Plug-In . SVG Version: 6.00 Build 0)  -->
<svg version="1.1" id="Layer_1" xmlns="http://www.w3.org/2000/svg" xmlns:xlink="http://www.w3.org/1999/xlink" x="0px" y="0px"
	 viewBox="0 0 490.1 490.1" style="enable-background:new 0 0 490.1 490.1;" xml:space="preserve">
<g>
	<g>
		<path d="M339,267.9c9-13.6-2.1-28.1-9.4-38.6c-5.2-6.3-10.4-13.6-10.4-18.8c0-48-35.4-88.6-76.1-88.6l0,0l0,0
			c-40.7,0-76.1,40.7-76.1,88.6c0,5.2-5.2,12.5-10.4,18.8c-7.3,10.4-18.3,24.9-9.4,38.6C169.3,302,322.7,292.7,339,267.9z
			 M204.5,211.6c0-27.1,18.8-52.1,38.6-52.1l0,0l0,0c19.8,0,38.6,25,38.6,52.1c0,17.7,9.4,31.3,16.7,40.7
			c-10.2,4.3-103.9,4.1-110.6,0C195.1,242.9,204.5,229.4,204.5,211.6z"/>
		<path d="M245,315.9c-55.3,0-106.3,25-139.7,67.8c-6.3,8.3-5.2,19.8,3.1,26.1c10.9,9,21.9,2.1,26.1-3.1
			c26.1-33.4,66.7-53.2,110.5-53.2s84.4,18.8,110.5,53.2c6.3,7.3,17.7,9.4,26.1,3.1c7.3-6.3,9.4-17.7,3.1-26.1
			C351.3,340.9,300.3,315.9,245,315.9z"/>
		<path d="M447.3,49h-60.5V18.8C386.8,8.4,378.5,0,368,0s-18.8,8.3-18.8,18.8V49H140.7V18.8c0-10.4-8.3-18.8-18.8-18.8
			s-18.8,8.3-18.8,18.8V49H42.7C32.3,49,24,57.3,24,67.8v403.5c0,10.4,8.3,18.8,18.8,18.8h404.5c10.4,0,18.8-8.3,18.8-17.7V67.8
			C466,57.3,457.7,49,447.3,49z M429.5,453.5h-368v-368h41.7v20.9c0,10.4,8.3,18.8,18.8,18.8s17.7-8.3,18.8-18.8V85.5h208.5v20.9
			c0,10.4,8.3,18.8,18.8,18.8s18.8-8.3,18.8-18.8V85.5h42.7v368H429.5z"/>
	</g>
</g>
<g>
</g>
<g>
</g>
<g>
</g>
<g>
</g>
<g>
</g>
<g>
</g>
<g>
</g>
<g>
</g>
<g>
</g>
<g>
</g>
<g>
</g>
<g>
</g>
<g>
</g>
<g>
</g>
<g>
</g>
</svg>
