<?xml version="1.0" encoding="iso-8859-1"?>
<!-- Generator: Adobe Illustrator 19.0.0, SVG Export Plug-In . SVG Version: 6.00 Build 0)  -->
<svg version="1.1" id="Layer_1" xmlns="http://www.w3.org/2000/svg" xmlns:xlink="http://www.w3.org/1999/xlink" x="0px" y="0px"
	 viewBox="0 0 490.1 490.1" style="enable-background:new 0 0 490.1 490.1;" xml:space="preserve">
<g>
	<g>
		<path d="M447.3,49h-60.5V18.8C386.8,8.4,378.5,0,368,0s-18.8,8.3-18.8,18.8V49H140.7V18.8c0-10.4-8.3-18.8-18.8-18.8
			s-18.8,8.3-18.8,18.8V49H42.7C32.3,49,24,57.3,24,67.8v403.5c0,10.4,8.3,18.8,18.8,18.8h404.5c10.4,0,18.8-8.3,18.8-17.7V67.8
			C466,57.3,457.7,49,447.3,49z M429.5,453.5h-368v-368h41.7v20.9c0,10.4,8.3,18.8,18.8,18.8s17.7-8.3,18.8-18.8V85.5h208.5v20.9
			c0,10.4,8.3,18.8,18.8,18.8s18.8-8.3,18.8-18.8V85.5h42.7v368H429.5z"/>
		<path d="M245,293c46.9,0,84.4-37.5,84.4-84.4s-37.5-84.4-84.4-84.4s-84.4,37.5-84.4,84.4C160.6,255.4,198.1,293,245,293z
			 M245,161.6c26.1,0,48,20.9,48,48s-21.9,48-48,48c-27.1,0-48-21.9-48-48C197,182.4,218.9,161.6,245,161.6z"/>
		<path d="M245,315.9c-55.3,0-106.3,25-139.7,67.8c-6.3,8.3-5.2,19.8,3.1,26.1c8.3,6.3,19.8,5.2,26.1-3.1
			c26.1-33.4,66.7-53.2,110.5-53.2s84.4,18.8,110.5,53.2c3.1,5.2,15.2,11.8,26.1,3.1c7.3-6.3,9.4-17.7,3.1-26.1
			C351.3,340.9,300.3,315.9,245,315.9z"/>
	</g>
</g>
<g>
</g>
<g>
</g>
<g>
</g>
<g>
</g>
<g>
</g>
<g>
</g>
<g>
</g>
<g>
</g>
<g>
</g>
<g>
</g>
<g>
</g>
<g>
</g>
<g>
</g>
<g>
</g>
<g>
</g>
</svg>
