<?xml version="1.0" encoding="iso-8859-1"?>
<!-- Generator: Adobe Illustrator 19.0.0, SVG Export Plug-In . SVG Version: 6.00 Build 0)  -->
<svg version="1.1" id="Layer_1" xmlns="http://www.w3.org/2000/svg" xmlns:xlink="http://www.w3.org/1999/xlink" x="0px" y="0px"
	 viewBox="0 0 488.901 488.901" style="enable-background:new 0 0 488.901 488.901;" xml:space="preserve">
<g>
	<g>
		<g>
			<path d="M468.9,56.1h-76.2v-36c0-10.6-9.5-20.1-20.1-20.1s-20.1,8.5-20.1,20.1v36H136.6v-36c0-10.6-9.5-20.1-20.1-20.1
				S96.4,8.5,96.4,20.1v36H20.1C9.5,56.1,0,64.6,0,76.2v392.6c0,10.6,8.5,20.1,20.1,20.1h329.1c5.3,0,9.5-1.1,13.8-5.3l119.6-111.1
				c4.2-4.2,6.3-9.5,6.3-14.8V76.2C489,65.6,480.5,56.1,468.9,56.1z M40.2,96.3h408.5v241.3H348.2c-10.6,0-20.1,8.5-20.1,20.1v91
				H40.2V96.3z M417.7,377.8l-48.4,44.6v-44.6H417.7z"/>
		</g>
		<path d="M286.3,256.1c8.7-9.8,13.9-22.7,13.9-36.8c0-30.7-25-55.7-55.7-55.7s-55.7,25-55.7,55.7c0,14.1,5.3,27,13.9,36.8
			c-13,11.6-21.2,28.4-21.2,47.1c0,34.7,28.3,63,63,63s63-28.3,63-63C307.5,284.5,299.3,267.7,286.3,256.1z M244.5,198.6
			c11.4,0,20.7,9.3,20.7,20.7s-9.3,20.7-20.7,20.7s-20.7-9.3-20.7-20.7S233.1,198.6,244.5,198.6z M244.5,331.3
			c-15.4,0-28-12.6-28-28s12.6-28,28-28s28,12.6,28,28S259.9,331.3,244.5,331.3z"/>
	</g>
</g>
<g>
</g>
<g>
</g>
<g>
</g>
<g>
</g>
<g>
</g>
<g>
</g>
<g>
</g>
<g>
</g>
<g>
</g>
<g>
</g>
<g>
</g>
<g>
</g>
<g>
</g>
<g>
</g>
<g>
</g>
</svg>
