<?xml version="1.0" encoding="iso-8859-1"?>
<!-- Generator: Adobe Illustrator 19.0.0, SVG Export Plug-In . SVG Version: 6.00 Build 0)  -->
<svg version="1.1" id="Layer_1" xmlns="http://www.w3.org/2000/svg" xmlns:xlink="http://www.w3.org/1999/xlink" x="0px" y="0px"
	 viewBox="0 0 478.675 478.675" style="enable-background:new 0 0 478.675 478.675;" xml:space="preserve">
<g>
	<path d="M464.669,99.175l-268-94.9c-38.6-13.6-82.4,6.3-95.9,44.8l-32.3,89.7c-16.9,42.1,13.9,84.6,45.9,94.9l69.9,24.7v83.7h-144
		v-86.5c0-10.4-8.3-19.8-19.8-19.8c-10.4,0-19.8,8.3-19.8,19.8v203.3c0,10.4,8.3,19.8,19.8,19.8c10.4,0,19.8-8.3,19.8-19.8v-77.1
		h163.7c10.4,0,19.8-8.3,19.8-19.8v-89.6l96.8,34.2c0,0,0.1,0,0.1,0.1c0,0,0,0,0.1,0c39.5,12.5,85.4-45.9,103.1-92.8
		c10.7-29.2,15.5-58.4,13.5-82.3l14.7,5.2c10.4,3.1,21.9-2.1,25-12.5C480.269,113.775,475.069,102.275,464.669,99.175z
		 M126.869,195.075c-12.4-3.4-29.7-23.4-20.9-42.7l32.3-89.7c7.3-17.7,27.1-27.1,45.9-20.9l160.9,57c-18.5,18.3-34.1,45.5-44.2,72.3
		c-10.4,28.6-15.3,57.1-13.6,80.7L126.869,195.075z M387.469,200.275c-15.9,46.1-42.7,68.8-52.1,68.8c-1,0-21.6-12.8,4.2-85.5
		c16.3-46,41.7-68.8,52.1-68.8C391.669,114.875,409.969,135.075,387.469,200.275z"/>
</g>
<g>
</g>
<g>
</g>
<g>
</g>
<g>
</g>
<g>
</g>
<g>
</g>
<g>
</g>
<g>
</g>
<g>
</g>
<g>
</g>
<g>
</g>
<g>
</g>
<g>
</g>
<g>
</g>
<g>
</g>
</svg>
