<?xml version="1.0" encoding="iso-8859-1"?>
<!-- Generator: Adobe Illustrator 19.0.0, SVG Export Plug-In . SVG Version: 6.00 Build 0)  -->
<svg version="1.1" id="Layer_1" xmlns="http://www.w3.org/2000/svg" xmlns:xlink="http://www.w3.org/1999/xlink" x="0px" y="0px"
	 viewBox="0 0 489.999 489.999" style="enable-background:new 0 0 489.999 489.999;" xml:space="preserve">
<g>
	<g>
		<g>
			<path d="M381.35,481.7l-98.8-134.2H62.95c-34.3,0-62.4-29.1-62.4-64.5V64.5C0.55,29.1,28.65,0,62.95,0h364.1
				c34.3,0,62.4,29.1,62.4,64.5V283c0,35.4-28.1,64.5-62.4,64.5h-8.3v121.7C418.75,490,393.35,497.1,381.35,481.7z M62.95,41.6
				c-12.5,0-21.8,10.4-21.8,22.9V283c0,12.5,9.4,22.9,21.8,22.9h229.9c6.2,0,12.5,3.1,16.6,8.3l68.7,92.6v-80.1
				c0-11.4,9.4-20.8,20.8-20.8h29.1c12.5,0,21.8-10.4,21.8-22.9V64.5c0-12.5-9.4-22.9-21.8-22.9H62.95L62.95,41.6z"/>
		</g>
		<g>
			<g>
				<path d="M152.05,207c-11.4,0-20.8-9.4-20.8-20.8v-28.1c0-11.4,9.4-20.8,20.8-20.8s20.8,9.4,20.8,20.8v28.1
					C172.85,197.7,163.45,207,152.05,207z"/>
			</g>
			<g>
				<path d="M245.05,207c-11.4,0-20.8-9.4-20.8-20.8v-28.1c0-11.4,9.4-20.8,20.8-20.8s20.8,9.4,20.8,20.8v28.1
					C265.85,197.7,256.45,207,245.05,207z"/>
			</g>
			<g>
				<path d="M338.05,207c-11.4,0-20.8-9.4-20.8-20.8v-28.1c0-11.4,9.4-20.8,20.8-20.8s20.8,9.4,20.8,20.8v28.1
					C358.85,197.7,349.55,207,338.05,207z"/>
			</g>
		</g>
	</g>
</g>
<g>
</g>
<g>
</g>
<g>
</g>
<g>
</g>
<g>
</g>
<g>
</g>
<g>
</g>
<g>
</g>
<g>
</g>
<g>
</g>
<g>
</g>
<g>
</g>
<g>
</g>
<g>
</g>
<g>
</g>
</svg>
