<?xml version="1.0" encoding="iso-8859-1"?>
<!-- Generator: Adobe Illustrator 19.0.0, SVG Export Plug-In . SVG Version: 6.00 Build 0)  -->
<svg version="1.1" id="Layer_1" xmlns="http://www.w3.org/2000/svg" xmlns:xlink="http://www.w3.org/1999/xlink" x="0px" y="0px"
	 viewBox="0 0 489.312 489.312" style="enable-background:new 0 0 489.312 489.312;" xml:space="preserve">
<g>
	<g>
		<path d="M244.159,0c-128,0-233,87.4-232,195.6c0,108.2,105.1,195.6,233,195.6c11.4,0,23.9-1,35.4-2.1l93.6,93.6
			c13.3,13.9,35.4,4.2,35.4-13.5V334c42.7-36.4,67.6-86.3,67.6-138.4C477.159,87.4,372.059,0,244.159,0z M376.259,306.9
			c-5.2,4.2-8.3,10.4-8.3,16.6v95.7l-66.6-66.6c-4.2-4.2-11.4-7.6-17.7-6.2c-12.5,2.1-26,3.1-39.5,3.1
			c-106.1,0-192.5-69.7-192.5-155s86.3-155,192.5-155c106.1,0,192.5,69.7,192.5,155C436.559,237.2,414.759,276.8,376.259,306.9z"/>
		<path d="M278.159,96.4c-12.4,0-24.3,3.2-34.7,9.3c-10.4-6.1-22.3-9.3-34.7-9.3c-38,0-68.9,30.9-68.9,68.9c0,13.4,4.8,37.1,46,88.5
			c21.2,26.4,42,47.6,42.9,48.5c8.4,8.9,20.1,8.6,28.9,0.3c0.9-0.8,21.8-21.4,43.1-47.4c31-38.1,46.1-67.4,46.1-89.8
			C347.059,127.3,316.159,96.4,278.159,96.4z M269.359,228.9c-9.1,11.2-18.3,21.4-25.6,29.2c-7.4-8.1-16.7-18.8-26-30.3
			c-35-43.7-36.8-59.8-36.8-62.5c0-15.4,12.5-27.9,27.9-27.9c7.6,0,14.9,2.8,20,8.5c9.1,10.3,19,9.7,29.4,0c5.6-5.2,12.4-8.5,20-8.5
			c15.4,0,27.9,12.5,27.9,27.9C306.059,169.6,303.359,187.1,269.359,228.9z"/>
	</g>
</g>
<g>
</g>
<g>
</g>
<g>
</g>
<g>
</g>
<g>
</g>
<g>
</g>
<g>
</g>
<g>
</g>
<g>
</g>
<g>
</g>
<g>
</g>
<g>
</g>
<g>
</g>
<g>
</g>
<g>
</g>
</svg>
