<?xml version="1.0" encoding="iso-8859-1"?>
<!-- Generator: Adobe Illustrator 19.0.0, SVG Export Plug-In . SVG Version: 6.00 Build 0)  -->
<svg version="1.1" id="Layer_1" xmlns="http://www.w3.org/2000/svg" xmlns:xlink="http://www.w3.org/1999/xlink" x="0px" y="0px"
	 viewBox="0 0 490.016 490.016" style="enable-background:new 0 0 490.016 490.016;" xml:space="preserve">
<g>
	<g>
		<path d="M245.008,0c-135.5,0-245,83.4-245,186.6s109.5,187.7,245,187.7c21.9,0,42.7-2.1,62.6-6.3l83.4,113.7
			c17,17,37.5,5.3,37.5-11.5V311.7c39.6-34.4,61.5-78.2,61.5-124.1C490.008,84.4,380.508,0,245.008,0z M395.108,286.7
			c-4.2,3.1-7.3,9.4-7.3,15.6v106.3l-55.3-75.1c-4.2-5.2-13.1-10.3-21.9-8.3c-20.9,5.2-43.8,8.3-65.7,8.3
			c-112.6,0-204.3-65.7-204.3-146s91.7-146,204.3-146s204.3,65.7,204.3,146C449.308,224.1,429.508,259.6,395.108,286.7z"/>
		<path d="M169.908,151.2c-11.5,0-20.9,9.4-20.9,20.9v24c0,11.5,9.4,20.9,20.9,20.9s19.8-8.3,20.9-20.9v-24
			C190.808,160.6,181.408,151.2,169.908,151.2z"/>
		<path d="M245.008,151.2c-11.5,0-20.9,9.4-20.9,20.9v24c0,11.5,9.4,20.9,20.9,20.9s20.9-8.3,20.9-20.9v-24
			C265.908,160.6,256.508,151.2,245.008,151.2z"/>
		<path d="M320.108,151.2c-11.5,0-20.9,9.4-20.9,20.9v24c0,11.5,9.4,20.9,20.9,20.9s20.9-8.3,20.9-20.9v-24
			C340.908,160.6,331.508,151.2,320.108,151.2z"/>
	</g>
</g>
<g>
</g>
<g>
</g>
<g>
</g>
<g>
</g>
<g>
</g>
<g>
</g>
<g>
</g>
<g>
</g>
<g>
</g>
<g>
</g>
<g>
</g>
<g>
</g>
<g>
</g>
<g>
</g>
<g>
</g>
</svg>
