<?xml version="1.0" encoding="iso-8859-1"?>
<!-- Generator: Adobe Illustrator 19.0.0, SVG Export Plug-In . SVG Version: 6.00 Build 0)  -->
<svg version="1.1" id="Layer_1" xmlns="http://www.w3.org/2000/svg" xmlns:xlink="http://www.w3.org/1999/xlink" x="0px" y="0px"
	 viewBox="0 0 489.853 489.853" style="enable-background:new 0 0 489.853 489.853;" xml:space="preserve">
<g>
	<g>
		<path d="M383.527,484.6l-100.1-94.8c-12.5,2.1-26.1,2.1-38.6,2.1c-135.4,0-244.8-87.6-244.8-196S109.427,0,244.927,0
			s244.9,87.5,244.9,195.9c0,52.1-26.1,102.1-71.9,138.6V469c0,8.3-5.2,15.6-12.5,18.8C403.327,488.8,394.027,493.3,383.527,484.6z
			 M304.327,352.3l73,68.8v-98c0-6.3,3.1-12.5,8.3-16.7c40.6-30.2,63.6-69.8,63.6-111.5c0-85.5-91.7-155.3-204.3-155.3
			s-204.3,69.8-204.3,155.3s91.7,155.3,204.3,155.3c14.6,0,28.1-1,41.7-3.1C288.727,347,297.227,345.9,304.327,352.3z"/>
		<path d="M306.127,233.3c0-33.8-27.5-61.2-61.2-61.2c-14.5,0-26.2-11.8-26.2-26.2s11.8-26.2,26.2-26.2c7.3,0,14.1,2.9,19.1,8.3
			c6.6,7,17.7,7.4,24.7,0.7c7-6.6,7.4-17.7,0.7-24.7c-7.4-7.9-16.8-13.6-27.1-16.7V75.1c0-9.7-7.8-17.5-17.5-17.5
			s-17.5,7.8-17.5,17.5v12.1c-25.2,7.5-43.7,31-43.7,58.6c0,33.8,27.5,61.2,61.2,61.2c14.5,0,26.2,11.8,26.2,26.2
			c0,14.5-11.8,26.2-26.2,26.2c-7.3,0-14.1-2.9-19.1-8.3c-6.6-7-17.7-7.4-24.7-0.7c-7,6.7-7.4,17.7-0.7,24.7
			c7.4,7.9,16.8,13.6,27.1,16.7V304c0,9.7,7.8,17.5,17.5,17.5s17.5-7.8,17.5-17.5v-12.1C287.627,284.4,306.127,261,306.127,233.3z"
			/>
	</g>
</g>
<g>
</g>
<g>
</g>
<g>
</g>
<g>
</g>
<g>
</g>
<g>
</g>
<g>
</g>
<g>
</g>
<g>
</g>
<g>
</g>
<g>
</g>
<g>
</g>
<g>
</g>
<g>
</g>
<g>
</g>
</svg>
