<?xml version="1.0" encoding="iso-8859-1"?>
<!-- Generator: Adobe Illustrator 19.0.0, SVG Export Plug-In . SVG Version: 6.00 Build 0)  -->
<svg version="1.1" id="Layer_1" xmlns="http://www.w3.org/2000/svg" xmlns:xlink="http://www.w3.org/1999/xlink" x="0px" y="0px"
	 viewBox="0 0 490.136 490.136" style="enable-background:new 0 0 490.136 490.136;" xml:space="preserve">
<g>
	<g>
		<path d="M427.218,0h-364.2c-34.3,0-62.4,29.1-62.4,64.5v249.7c0,35.4,28.1,64.5,62.4,64.5h221.6l98.8,105.1
			c7.2,9.6,32.4,10.6,35.4-13.5v-91.5h8.3c34.3,0,62.4-29.1,62.4-64.5V64.5C489.618,29.1,461.518,0,427.218,0z M449.018,313.1
			c0,12.5-9.4,22.9-21.8,22.9h-29.1c-11.4,0-20.8,9.4-20.8,20.8v60.3l-69.7-73.9c-3.1-4.2-9.4-6.2-14.6-6.2h-230
			c-12.5,0-21.8-10.4-21.8-22.9V64.5c0-12.5,9.4-22.9,21.8-22.9v-1h364.1c12.5,0,21.8,10.4,21.8,22.9v249.6H449.018z"/>
		<path d="M279.818,82.7c-12.4,0-24.3,3.2-34.7,9.3c-10.4-6.1-22.3-9.3-34.7-9.3c-38,0-68.9,30.9-68.9,68.9c0,13.4,4.8,37.1,46,88.5
			c21.2,26.4,42.1,47.6,42.9,48.5c7.8,8.4,22.3,7.3,28.9,0.3c0.8-0.9,21.8-21.4,43.1-47.4c31-38.1,46.1-67.4,46.1-89.8
			C348.618,113.6,317.718,82.7,279.818,82.7z M271.018,215.2c-9.1,11.2-18.3,21.4-25.6,29.2c-7.4-8.1-16.7-18.8-26-30.3
			c-35-43.7-36.8-59.8-36.8-62.5c0-15.4,12.5-27.9,27.9-27.9c7.6,0,15,2.7,20,8.5c9.3,10.7,22.4,8.2,29.4,0c4.9-5.8,12.4-8.5,20-8.5
			c15.4,0,27.9,12.5,27.9,27.9C307.618,155.9,305.018,173.4,271.018,215.2z"/>
	</g>
</g>
<g>
</g>
<g>
</g>
<g>
</g>
<g>
</g>
<g>
</g>
<g>
</g>
<g>
</g>
<g>
</g>
<g>
</g>
<g>
</g>
<g>
</g>
<g>
</g>
<g>
</g>
<g>
</g>
<g>
</g>
</svg>
