<?xml version="1.0" encoding="iso-8859-1"?>
<!-- Generator: Adobe Illustrator 19.0.0, SVG Export Plug-In . SVG Version: 6.00 Build 0)  -->
<svg version="1.1" id="Layer_1" xmlns="http://www.w3.org/2000/svg" xmlns:xlink="http://www.w3.org/1999/xlink" x="0px" y="0px"
	 viewBox="0 0 490.139 490.139" style="enable-background:new 0 0 490.139 490.139;" xml:space="preserve">
<g>
	<g>
		<path d="M187.105,113.6c0-11.5-9.8-20.8-21.7-20.8h-2.2c-11.9,0-21.7,9.4-21.7,20.8c0,11.5,9.8,20.8,21.7,20.8h2.2
			C177.405,134.5,187.105,125.1,187.105,113.6z"/>
		<path d="M468.305,232.4h-58.6c-0.2,0-0.5,0-0.7,0c8.9-23.7,16.9-48.9,23.5-71.9c5.6-26.4-18.2-43.5-41.3-39.6
			c-19,3.2-38.8,9-58.6,14.1v-25.6c0-60.4-63-109.4-141.1-109.4c-43.4,0-83.6,14.6-110.7,40.6c-19.5,19.8-30.4,43.8-30.4,68.8
			c0,3.7,0,8.2,0.1,13.2l-19.6-10.1c-9.8-5.2-22.8-2.1-28.2,8.3c-5.4,9.4-2.2,21.9,8.7,27.1l17.1,8.8l-17.1,8.8
			c-9.8,5.2-14.1,16.7-8.7,27.1c5.4,9.4,17.4,13.5,28.2,8.3l20.5-10.5c0.6,35.5,1.2,67.9,1.2,69c4,64.5,56.2,119,129.2,143.9v33.2
			l-17.4,19.8c-7.6,9.4-5.4,21.9,3.3,29.2c14.8,8.7,25,2.1,31.5-3.1l21.7-26c2.2-3.1,4.3-7.3,4.3-12.5v-29.7
			c13,2.1,26.4,3.4,40.2,3.6v18.8l-17.4,19.8c-7.6,9.4-5.4,21.9,3.3,29.2c11.1,9.4,25,2.1,31.5-3.1l21.7-26
			c2.2-3.1,4.3-7.3,4.3-12.5v-28.6c102.3-13.9,180.2-82.2,181.2-162.2C490.005,241.8,480.205,232.4,468.305,232.4z M385.805,163.6
			c-20.6,64.6-41.3,113.6-55.4,127.1c-44,31.6-82.5,10.4-95.5,0c-11.9-10.4-35.1-42.2,0-77.1
			C248.205,200.4,307.605,181.4,385.805,163.6z M270.705,378.2c-94.4,0-171.5-53.1-175.9-119.8c0-2.1-2.2-112.5-2.2-149
			c0-17.7,9.8-31.3,17.4-39.6c18.5-18.8,48.9-29.2,80.3-29.2c54.3,0,98.8,31.3,98.8,68.8v37.8c-36.4,11.1-67.6,23.5-82.5,36.1
			c-63.9,59.5-20.6,119.8,0,137.5c20.6,17.7,75.9,52.8,153.1,0c11.3-9.6,22.3-27.4,32.7-49.3c5.7,0.8,11.5,1.3,17.2,1.3h34.7
			C430.305,332.4,358.605,378.2,270.705,378.2z"/>
	</g>
</g>
<g>
</g>
<g>
</g>
<g>
</g>
<g>
</g>
<g>
</g>
<g>
</g>
<g>
</g>
<g>
</g>
<g>
</g>
<g>
</g>
<g>
</g>
<g>
</g>
<g>
</g>
<g>
</g>
<g>
</g>
</svg>
