<?xml version="1.0" encoding="iso-8859-1"?>
<!-- Generator: Adobe Illustrator 19.0.0, SVG Export Plug-In . SVG Version: 6.00 Build 0)  -->
<svg version="1.1" id="Layer_1" xmlns="http://www.w3.org/2000/svg" xmlns:xlink="http://www.w3.org/1999/xlink" x="0px" y="0px"
	 viewBox="0 0 490 490" style="enable-background:new 0 0 490 490;" xml:space="preserve">
<g>
	<g>
		<path d="M239,237.6v-99c0-10.5-8.4-20-20-20c-10.5,0-20,8.4-20,20V246c0,5.3,2.1,9.5,5.3,13.7l91.6,103.2
			c12.5,11.9,24.2,4.2,27.4,1.1c8.4-7.4,9.5-20,2.1-28.4L239,237.6z"/>
		<path d="M470,202.9c-10.5,0-20,8.4-20,20v1.1h-13C426.6,109.7,333.1,20.8,219,20.8C97.9,20.8,0,121.8,0,245s97.9,224.2,219,224.2
			c114.8,0,208.7-90.9,218.2-205.3H450v1.1c0,10.5,8.4,20,20,20s20-9.5,20-20v-42.1C490,212.4,481.6,202.9,470,202.9z M219,428.2
			c-99,0-179-82.1-179-183.2S120,61.8,219,61.8c97.9,0,179,82.1,179,183.2S317.9,428.2,219,428.2z"/>
	</g>
</g>
<g>
</g>
<g>
</g>
<g>
</g>
<g>
</g>
<g>
</g>
<g>
</g>
<g>
</g>
<g>
</g>
<g>
</g>
<g>
</g>
<g>
</g>
<g>
</g>
<g>
</g>
<g>
</g>
<g>
</g>
</svg>
