<?xml version="1.0" encoding="iso-8859-1"?>
<!-- Generator: Adobe Illustrator 19.0.0, SVG Export Plug-In . SVG Version: 6.00 Build 0)  -->
<svg version="1.1" id="Layer_1" xmlns="http://www.w3.org/2000/svg" xmlns:xlink="http://www.w3.org/1999/xlink" x="0px" y="0px"
	 viewBox="0 0 489.925 489.925" style="enable-background:new 0 0 489.925 489.925;" xml:space="preserve">
<g>
	<path d="M449.262,179.9c-20.7-22.3-47.3-37.5-76.5-44.1c0.2-2.6,0.2-5.2,0.2-7.7c0.1-70.6-57.4-128.1-128-128.1
		s-128.1,57.5-128.1,128.1c0,2.6,0.1,5.2,0.2,7.7c-29.2,6.6-55.8,21.8-76.5,44.1c-25.6,27.7-39.7,63.7-39.7,101.4
		c0,19.1,3.6,37.8,10.6,55.4c3,7.6,10.4,12.6,18.6,12.6h195.6v72.8l-20-20c-7.4-8.4-20-8.4-28.5,0c-8.4,7.4-8.4,20,0,28.4l53.9,53.8
		c7.5,7.5,19.6,7.5,27.1,0l53.9-53.8c8.4-7.4,8.4-20,0-28.4c-7.4-8.4-20-8.4-28.5,0l-17.9,17.9v-70.7h194.2c8.2,0,15.5-5,18.6-12.6
		c7.1-17.6,10.6-36.3,10.6-55.4C489.063,243.6,474.962,207.6,449.262,179.9z M445.462,309.3h-179.8v-98.8c0-10.5-8.4-20-20-20
		c-10.5,0-20,8.4-20,20v98.8h-181.2c-2.4-9.1-3.6-18.4-3.6-28c0-56.6,44.1-104.6,100.4-108.8c16.5-1.2,20.4-14.4,17.9-24.5
		c-1.6-6.5-2.3-13.2-2.3-20c0-48.6,39.5-88.1,88.1-88.1s88.1,39.5,88.1,88.1c0,6.8-0.8,13.5-2.3,20c-1.3,5.7-1.5,22.8,17.9,24.5
		c56.3,4.7,100.4,52.3,100.4,108.8C449.063,290.9,447.862,300.2,445.462,309.3z"/>
</g>
<g>
</g>
<g>
</g>
<g>
</g>
<g>
</g>
<g>
</g>
<g>
</g>
<g>
</g>
<g>
</g>
<g>
</g>
<g>
</g>
<g>
</g>
<g>
</g>
<g>
</g>
<g>
</g>
<g>
</g>
</svg>
