<?xml version="1.0" encoding="iso-8859-1"?>
<!-- Generator: Adobe Illustrator 19.0.0, SVG Export Plug-In . SVG Version: 6.00 Build 0)  -->
<svg version="1.1" id="Layer_1" xmlns="http://www.w3.org/2000/svg" xmlns:xlink="http://www.w3.org/1999/xlink" x="0px" y="0px"
	 viewBox="0 0 491.5 491.5" style="enable-background:new 0 0 491.5 491.5;" xml:space="preserve">
<g>
	<path d="M463,175.391c-14-14.3-31.5-24-50.7-28.1c-4.9-37.4-22.1-71.9-49.4-98.6c-31.7-30.9-73.6-48-117.9-48s-86.2,17-117.9,48
		c-27.4,26.8-44.6,61.4-49.5,98.9c-44.7,10.3-77.6,50.3-77.6,97.9c0,55.5,45.1,100.6,100.6,100.6h124v75.8l-27.9-26.7
		c-8.6-7.5-21.5-7.5-29,1.1s-7.5,21.5,1.1,29l62.3,60.1c13.5,10.4,23.6,3.2,27.9,0l62.3-60.1c8.6-7.5,8.6-20.4,1.1-29
		s-20.4-8.6-29-1.1l-28,26.7v-75.7h125.5c55.5,0,100.6-45.1,100.6-100.6C491.5,219.191,481.4,194.191,463,175.391z M390.9,305.191
		H265.4v-130.2c0-10.7-9.7-20.4-20.4-20.4s-20.4,8.6-20.4,20.4v130.1h-124c-32.9,0-59.6-26.7-59.6-59.6c0-31.9,24.9-58.1,56.8-59.5
		c10.7-0.5,19.3-9.2,19.5-20c1.8-69.8,57.9-124.4,127.7-124.4s125.9,54.6,127.7,124.4c0.3,10.9,9,19.7,19.9,20
		c32.5,0.9,57.9,27.1,57.9,59.6C450.5,278.391,423.8,305.191,390.9,305.191z"/>
</g>
<g>
</g>
<g>
</g>
<g>
</g>
<g>
</g>
<g>
</g>
<g>
</g>
<g>
</g>
<g>
</g>
<g>
</g>
<g>
</g>
<g>
</g>
<g>
</g>
<g>
</g>
<g>
</g>
<g>
</g>
</svg>
