<?xml version="1.0" encoding="iso-8859-1"?>
<!-- Generator: Adobe Illustrator 19.0.0, SVG Export Plug-In . SVG Version: 6.00 Build 0)  -->
<svg version="1.1" id="Layer_1" xmlns="http://www.w3.org/2000/svg" xmlns:xlink="http://www.w3.org/1999/xlink" x="0px" y="0px"
	 viewBox="0 0 490 490" style="enable-background:new 0 0 490 490;" xml:space="preserve">
<g>
	<g>
		<path d="M245,0C110.2,0,0,110.2,0,245s110.2,245,245,245s245-110.2,245-245S379.8,0,245,0z M245,449.3
			c-112.3,0-204.3-92-204.3-204.3S132.7,40.7,245,40.7s204.3,92,204.3,204.3S357.3,449.3,245,449.3z"/>
		<path d="M338.1,337c-51.4,51.4-133.7,51.4-185.1,0c-7.5-7.5-21.4-7.5-28.9,0s-7.5,21.4,0,28.9c33.2,33.2,77,50.3,120.9,50.3
			s87.7-17.1,122-50.3c7.5-7.5,7.5-21.4,0-28.9S345.6,329.5,338.1,337z"/>
		<path d="M245,284.6c21.4,0,39.6-18.2,39.6-39.6s-18.2-39.6-39.6-39.6s-39.6,18.2-39.6,39.6S223.6,284.6,245,284.6z"/>
	</g>
</g>
<g>
</g>
<g>
</g>
<g>
</g>
<g>
</g>
<g>
</g>
<g>
</g>
<g>
</g>
<g>
</g>
<g>
</g>
<g>
</g>
<g>
</g>
<g>
</g>
<g>
</g>
<g>
</g>
<g>
</g>
</svg>
