<?xml version="1.0" encoding="iso-8859-1"?>
<!-- Generator: Adobe Illustrator 19.0.0, SVG Export Plug-In . SVG Version: 6.00 Build 0)  -->
<svg version="1.1" id="Layer_1" xmlns="http://www.w3.org/2000/svg" xmlns:xlink="http://www.w3.org/1999/xlink" x="0px" y="0px"
	 viewBox="0 0 489.6 489.6" style="enable-background:new 0 0 489.6 489.6;" xml:space="preserve">
<g>
	<g>
		<path d="M244.8,0C109.4,0,0,109.4,0,244.8s109.4,244.8,244.8,244.8s244.8-109.4,244.8-244.8S380.2,0,244.8,0z M244.8,449
			c-112.5,0-204.2-91.7-204.2-204.2S132.3,40.6,244.8,40.6S449,132.3,449,244.8S357.3,449,244.8,449z"/>
		<path d="M244.8,150c-52.1,0-94.8,42.7-94.8,94.8s42.7,94.8,94.8,94.8s94.8-42.7,94.8-94.8S296.9,150,244.8,150z M244.8,297.9
			c-29.2,0-53.1-24-53.1-53.1c0-29.2,24-53.1,53.1-53.1s53.1,24,53.1,53.1C297.9,274,274,297.9,244.8,297.9z"/>
	</g>
</g>
<g>
</g>
<g>
</g>
<g>
</g>
<g>
</g>
<g>
</g>
<g>
</g>
<g>
</g>
<g>
</g>
<g>
</g>
<g>
</g>
<g>
</g>
<g>
</g>
<g>
</g>
<g>
</g>
<g>
</g>
</svg>
