<?xml version="1.0" encoding="iso-8859-1"?>
<!-- Generator: Adobe Illustrator 19.0.0, SVG Export Plug-In . SVG Version: 6.00 Build 0)  -->
<svg version="1.1" id="Layer_1" xmlns="http://www.w3.org/2000/svg" xmlns:xlink="http://www.w3.org/1999/xlink" x="0px" y="0px"
	 viewBox="0 0 490 490" style="enable-background:new 0 0 490 490;" xml:space="preserve">
<g>
	<g>
		<path d="M245,0C109.8,0,0,109.8,0,245s109.8,245,245,245s245-109.8,245-245S380.2,0,245,0z M245,448.8
			C132,448.8,41.2,358,41.2,245S132,41.2,245,41.2S448.8,132,448.8,245S358,448.8,245,448.8z"/>
		<path d="M245,144.7c-54.9,0-100.3,45.4-100.3,100.3S190.1,345.3,245,345.3S345.3,299.9,345.3,245S299.9,144.7,245,144.7z
			 M245,304.1c-32.7,0-59.1-26.4-59.1-59.1s26.4-59.1,59.1-59.1s59.1,26.4,59.1,59.1S277.7,304.1,245,304.1z"/>
		<path d="M245,221.8c-12.7,0-23.2,10.6-23.2,23.2c0,12.6,10.6,23.2,23.2,23.2c12.6,0,23.2-10.6,23.2-23.2S257.7,221.8,245,221.8z"
			/>
	</g>
</g>
<g>
</g>
<g>
</g>
<g>
</g>
<g>
</g>
<g>
</g>
<g>
</g>
<g>
</g>
<g>
</g>
<g>
</g>
<g>
</g>
<g>
</g>
<g>
</g>
<g>
</g>
<g>
</g>
<g>
</g>
</svg>
