<?xml version="1.0" encoding="iso-8859-1"?>
<!-- Generator: Adobe Illustrator 19.0.0, SVG Export Plug-In . SVG Version: 6.00 Build 0)  -->
<svg version="1.1" id="Layer_1" xmlns="http://www.w3.org/2000/svg" xmlns:xlink="http://www.w3.org/1999/xlink" x="0px" y="0px"
	 viewBox="0 0 481.988 481.988" style="enable-background:new 0 0 481.988 481.988;" xml:space="preserve">
<g>
	<g>
		<path d="M481.9,396.794v-357.3c0-10.4-8.3-19.7-19.7-19.7H303.3c-10.4,0-19.7,8.3-19.7,19.7v32.2H19.7c-10.4,0-19.7,8.3-19.7,19.7
			v252.4c0,10.4,8.3,19.7,19.7,19.7h99.2l-46.2,67.5c-4.2,6.2-8.4,29,16.6,31.2h188c19.2,0,23.6-22.9,16.6-31.2l-46.2-67.5h35.8
			v33.2c0,10.4,8.3,19.7,19.7,19.7h158.9C473.6,416.494,483,407.194,481.9,396.794z M238.9,421.694H126.7l40.5-58.2h32.2
			L238.9,421.694z M39.5,323.094v-211.9h244.1v211.9H39.5L39.5,323.094z M442.5,375.994H324.1v-315.7h118.4V375.994z"/>
		<path d="M356.2,136.094h54c11.4,0,19.7-10.4,19.7-20.8s-8.3-19.7-19.7-19.7h-54c-11.4,0-19.7,10.4-19.7,20.8
			S344.8,136.094,356.2,136.094z"/>
		<path d="M383.3,291.894c-16.6,0-29.1,12.5-29.1,28c0,15.6,13.5,28,29.1,28s28-13.5,29.1-28
			C412.3,304.394,398.8,291.894,383.3,291.894z"/>
	</g>
</g>
<g>
</g>
<g>
</g>
<g>
</g>
<g>
</g>
<g>
</g>
<g>
</g>
<g>
</g>
<g>
</g>
<g>
</g>
<g>
</g>
<g>
</g>
<g>
</g>
<g>
</g>
<g>
</g>
<g>
</g>
</svg>
