<?xml version="1.0" encoding="iso-8859-1"?>
<!-- Generator: Adobe Illustrator 19.0.0, SVG Export Plug-In . SVG Version: 6.00 Build 0)  -->
<svg version="1.1" id="Layer_1" xmlns="http://www.w3.org/2000/svg" xmlns:xlink="http://www.w3.org/1999/xlink" x="0px" y="0px"
	 viewBox="0 0 490.8 490.8" style="enable-background:new 0 0 490.8 490.8;" xml:space="preserve">
<g>
	<g>
		<path d="M483.5,124.55L340.7,5.75c-4.2-3.1-8.3-5.2-13.5-5.2H20.8C9.4,0.55,0,9.95,0,21.45v448c0,11.5,9.4,20.8,20.8,20.8h448.1
			c11.5,0,20.8-9.4,21.9-19.8v-330.2C490.8,133.95,487.7,128.75,483.5,124.55z M252.2,41.25v164.6H114.6V41.25H252.2z M449.1,449.65
			H40.6V41.25h32.3v185.5c0,11.5,9.4,20.8,20.8,20.8h178.2c11.5,0,20.8-9.4,20.8-20.8V41.25h27.1L449,149.65v300H449.1z"/>
		<path d="M199,164.15c11.5,0,20.8-9.4,20.8-20.8v-39.6c0-11.5-9.4-20.8-20.8-20.8s-20.8,9.4-20.8,20.8v39.6
			C178.2,154.75,187.6,164.15,199,164.15z"/>
	</g>
</g>
<g>
</g>
<g>
</g>
<g>
</g>
<g>
</g>
<g>
</g>
<g>
</g>
<g>
</g>
<g>
</g>
<g>
</g>
<g>
</g>
<g>
</g>
<g>
</g>
<g>
</g>
<g>
</g>
<g>
</g>
</svg>
