<?xml version="1.0" encoding="iso-8859-1"?>
<!-- Generator: Adobe Illustrator 19.0.0, SVG Export Plug-In . SVG Version: 6.00 Build 0)  -->
<svg version="1.1" id="Layer_1" xmlns="http://www.w3.org/2000/svg" xmlns:xlink="http://www.w3.org/1999/xlink" x="0px" y="0px"
	 viewBox="0 0 490 490" style="enable-background:new 0 0 490 490;" xml:space="preserve">
<g>
	<path d="M12.7,180.727c0,9.9,2.6,19.1,7.2,27c-11.2,8.4-19.4,20.7-19.9,34.7c0,26.6,21.2,47.9,46.6,47.9l114.3-1.1
		c-11.6,37.2-29.6,98.9-31.7,119.1c-3.2,34,10.6,74.4,37,80.8c9.5,2.1,32.8,3.2,49.7-34c2.1-5.3,50.8-164.8,102.7-179.7h9.5
		c2.6,7.8,9.8,13.8,19,13.8h122.8c10.6,0,20.1-8.5,20.1-20.2v-248.8c0-10.6-8.5-20.2-20.1-20.2H347.1c-9.5,0-16.8,5.6-19.3,14
		c-55.7-7-236.8-10.9-236.8-10.9c-27.5,0-49.7,23.4-49.7,52.1c0,8.5,2.1,17,6.3,24.5c-14.8,8.5-27.5,21.2-27.5,38.2
		c0,10.6,3.2,20.2,8.5,28.7C19,155.227,12.7,166.827,12.7,180.727z M368.3,40.327h81.5v207.4h-81.5V40.327z M64.6,232.627
		c9.7-1.2,18-10.2,18-20.1c0-10.6-8.5-20.2-20.1-20.2c-5.3,0-9.5-4.3-9.5-10.6c0-6.4,9.5-10.6,16.9-10.6c10.6,0,20.1-8.5,20.1-20.2
		c0-10.6-8.5-20.2-20.1-20.2c-5.3,0-9.5-4.6-9.5-9.6c0-7.9,21.2-12.8,30.7-12.8c10.6,0,20.1-8.5,20.1-20.2
		c0-10.6-8.5-20.2-20.1-20.2c-5.3,0-9.5-4.3-9.5-10.6c0-5.3,4.2-10.6,9.5-10.6c0,0,131.1-6,236,8.2v180.2
		c-7.3,0.1-13.9,0.4-14.8,0.9c-80-1.1-132.3,201-133.3,204.2c0,0,0,0,0,0.1c-1.4,2.7-4.5,3.8-6.4-0.4c-2.9-6.7-3.9-16.6-3.1-27.3
		c2.1-19.1,27.5-103.1,38.1-131.9c6-17.2-11.4-33.4-23.3-33l-137.6,2.1c-3.2,0-5.3-3.2-5.3-6.4
		C41.3,234.127,60.1,233.827,64.6,232.627z"/>
</g>
<g>
</g>
<g>
</g>
<g>
</g>
<g>
</g>
<g>
</g>
<g>
</g>
<g>
</g>
<g>
</g>
<g>
</g>
<g>
</g>
<g>
</g>
<g>
</g>
<g>
</g>
<g>
</g>
<g>
</g>
</svg>
