<?xml version="1.0" encoding="iso-8859-1"?>
<!-- Generator: Adobe Illustrator 19.0.0, SVG Export Plug-In . SVG Version: 6.00 Build 0)  -->
<svg version="1.1" id="Layer_1" xmlns="http://www.w3.org/2000/svg" xmlns:xlink="http://www.w3.org/1999/xlink" x="0px" y="0px"
	 viewBox="0 0 489.893 489.893" style="enable-background:new 0 0 489.893 489.893;" xml:space="preserve">
<g>
	<g>
		<path d="M137.697,200.293c0,80.3,65.7,144.9,144.9,144.9c80.3,0,144.9-64.6,144.9-144.9s-65.7-144.9-144.9-144.9
			C202.397,55.393,137.697,121.093,137.697,200.293z M282.597,97.093c57.3,0,104.2,46.9,103.2,103.2c0,56.3-46.9,103.2-103.2,103.2
			s-103.2-45.9-103.2-103.2C179.397,143.993,225.297,97.093,282.597,97.093z"/>
		<path d="M357.697,363.893c-89.5,42.8-197.2,4.7-239.9-84.9c-42.8-89.5-4.7-197.1,84.8-239.9c10.2-4.9,14.5-17.1,9.7-27.3
			c-4.9-10.2-17.2-14.8-27.3-9.7c-152.2,77.1-129.7,241.4-104.3,294.6s81.6,104.6,171.6,124.1v27.5h-22.9
			c-11.5,0-20.8,9.4-20.8,20.8s9.4,20.8,20.8,20.8h88.7c11.5,0,19.8-9.4,20.8-20.8c0-11.5-9.4-20.8-20.8-20.8h-24v-26.2
			c27.8-1.8,55.3-8.9,81.3-21.2c10.2-4.9,14.5-17.1,9.7-27.3S367.897,358.993,357.697,363.893z"/>
	</g>
</g>
<g>
</g>
<g>
</g>
<g>
</g>
<g>
</g>
<g>
</g>
<g>
</g>
<g>
</g>
<g>
</g>
<g>
</g>
<g>
</g>
<g>
</g>
<g>
</g>
<g>
</g>
<g>
</g>
<g>
</g>
</svg>
