<?xml version="1.0" encoding="iso-8859-1"?>
<!-- Generator: Adobe Illustrator 19.0.0, SVG Export Plug-In . SVG Version: 6.00 Build 0)  -->
<svg version="1.1" id="Layer_1" xmlns="http://www.w3.org/2000/svg" xmlns:xlink="http://www.w3.org/1999/xlink" x="0px" y="0px"
	 viewBox="0 0 489.924 489.924" style="enable-background:new 0 0 489.924 489.924;" xml:space="preserve">
<g>
	<path d="M481.136,165.6L256.736,4c-6.4-5.3-16-5.3-23.4,0L7.936,165.6c-6.4,4.8-9.2,13.2-7.4,21.2v282.9c0,11.7,8.5,20.2,20.2,20.2
		h448.8c11.7,0,20.2-8.5,20.2-20.2V184.6C490.736,177.3,487.736,170,481.136,165.6z M208.536,309.2L40.936,424V194.4L208.536,309.2z
		 M245.036,334.7l168.4,114.9h-336.7L245.036,334.7z M281.736,309.3l167.5-113.8V424L281.736,309.3z M245.036,46.5l170.5,121.9
		l-170.5,116.3l-169.8-116.8L245.036,46.5z"/>
</g>
<g>
</g>
<g>
</g>
<g>
</g>
<g>
</g>
<g>
</g>
<g>
</g>
<g>
</g>
<g>
</g>
<g>
</g>
<g>
</g>
<g>
</g>
<g>
</g>
<g>
</g>
<g>
</g>
<g>
</g>
</svg>
