<?xml version="1.0" encoding="iso-8859-1"?>
<!-- Generator: Adobe Illustrator 19.0.0, SVG Export Plug-In . SVG Version: 6.00 Build 0)  -->
<svg version="1.1" id="Layer_1" xmlns="http://www.w3.org/2000/svg" xmlns:xlink="http://www.w3.org/1999/xlink" x="0px" y="0px"
	 viewBox="0 0 490.1 490.1" style="enable-background:new 0 0 490.1 490.1;" xml:space="preserve">
<g>
	<g>
		<path d="M489.957,469.9V152.1c0-16.3-19.4-26.2-36-15.1l-20.1,17.2V20.1c0-10.6-8.5-20.1-20.1-20.1h-335.4
			c-10.6,0-20.1,8.4-20.1,20.1v136.8l-23.3-19.9c-11.8-10.1-34.9-2.4-34.9,15.1V470c0,10.6,8.5,20.1,20.1,20.1h450.8
			C481.557,490,491.057,480.5,489.957,469.9z M98.457,41.2h294.2v148.4l-148.2,126.9l-146-125.1
			C98.457,191.4,98.457,41.2,98.457,41.2z M449.757,449.9h-409.5V194.6l191.5,163.1c5.3,4.6,16.1,7.3,25.4,0l192.6-164V449.9z"/>
		<path d="M339.757,152.1c0-10.6-8.5-20.1-20.1-20.1h-147.1c-10.6,0-20.1,9.5-20.1,20.1s8.5,20.1,20.1,20.1h146
			C330.157,172.1,339.757,162.6,339.757,152.1z"/>
	</g>
</g>
<g>
</g>
<g>
</g>
<g>
</g>
<g>
</g>
<g>
</g>
<g>
</g>
<g>
</g>
<g>
</g>
<g>
</g>
<g>
</g>
<g>
</g>
<g>
</g>
<g>
</g>
<g>
</g>
<g>
</g>
</svg>
