<?xml version="1.0" encoding="iso-8859-1"?>
<!-- Generator: Adobe Illustrator 19.0.0, SVG Export Plug-In . SVG Version: 6.00 Build 0)  -->
<svg version="1.1" id="Layer_1" xmlns="http://www.w3.org/2000/svg" xmlns:xlink="http://www.w3.org/1999/xlink" x="0px" y="0px"
	 viewBox="0 0 491.84 491.84" style="enable-background:new 0 0 491.84 491.84;" xml:space="preserve">
<g>
	<g>
		<path d="M481.64,205.173l-123-90.7c-8.3-6.3-21.9-5.2-28.1,4.2c-6.3,8.3-5.2,21.9,4.2,28.1l103.1,76l-192.9,148.2l-191.8-148.3
			l100.9-75.9c9.4-6.3,10.4-18.8,4.2-28.1c-6.3-9.4-18.8-10.4-28.1-4.2l-122,91.7c-5.9,3.9-8.5,10.3-8.1,16.8c0,0.4,0,0.8,0,1.1
			v245.9c0,14.3,10.4,20.8,20.8,20.8h448.1c18.4,0,22.9-8.6,22.9-20.8v-245.9C491.84,215.273,483.94,206.673,481.64,205.173z
			 M41.74,266.573l107.3,82.6l-107.3,80.5C41.74,429.673,41.74,266.573,41.74,266.573z M81.74,450.173l101.7-75l49,37.5
			c7.3,5.2,17.7,5.2,25,0l49-38.6l101.4,76.1H81.74z M449.14,430.373l-108.4-81.3l108.4-83.4V430.373z"/>
		<path d="M194.84,93.973l29.2-25.5v181.8c0,11.5,9.4,20.8,20.8,20.8c11.4,0,20.8-9.4,20.8-20.8v-181.9l29.3,25.6
			c8.3,7.3,21.9,6.3,29.2-2.1s6.3-21.9-2.1-29.2l-63.6-56.3c-11.5-9.3-23.3-4.2-27.1-1l-63.6,57.3c-8.3,8.3-9.4,20.8-2.1,29.2
			S186.54,101.273,194.84,93.973z"/>
	</g>
</g>
<g>
</g>
<g>
</g>
<g>
</g>
<g>
</g>
<g>
</g>
<g>
</g>
<g>
</g>
<g>
</g>
<g>
</g>
<g>
</g>
<g>
</g>
<g>
</g>
<g>
</g>
<g>
</g>
<g>
</g>
</svg>
