<?xml version="1.0" encoding="iso-8859-1"?>
<!-- Generator: Adobe Illustrator 19.0.0, SVG Export Plug-In . SVG Version: 6.00 Build 0)  -->
<svg version="1.1" id="Layer_1" xmlns="http://www.w3.org/2000/svg" xmlns:xlink="http://www.w3.org/1999/xlink" x="0px" y="0px"
	 viewBox="0 0 486.3 486.3" style="enable-background:new 0 0 486.3 486.3;" xml:space="preserve">
<g>
	<path d="M411.1,75.776c-5.8-27-46.8-77.3-103.5-59.7c-68.6,21.2-65.6,81.7-59.7,103.5c2.9,10.9,14.2,17.4,25.1,14.5
		s17.4-14.2,14.5-25.1c-3-11.2-3.4-44.7,30.8-53.3c32.5-8.1,50.3,19.5,53.3,30.8l50.5,188.5c-12.4-5.2-25.9-8-40.1-8
		c-44.7,0-82.9,28.2-97.8,67.3c-13.2-7.6-27-11.4-41.9-10.7c-15.4,0-28.9,4.6-39.9,10.4c-15-38.9-53.2-66.9-97.7-66.9
		c-14.2,0-27.7,2.8-40,8l50.5-188.5c11.1-33.7,42.2-34.1,53.3-30.8c32.6,9.8,33.8,42.1,30.8,53.3c-2.9,10.9,3.6,22.2,14.5,25.1
		c10.9,2.9,22.2-3.6,25.1-14.5c5.8-21.8,6.9-84.1-59.7-103.5c-54.7-15.9-93.9,24.5-103.8,59.6c0,0-75.4,277.6-75.4,294.6
		c0,56.5,46.9,103.5,104.5,103.5c54.8,0,99.9-42.4,104.2-95.2c6.8-5.7,19.9-14.6,34.5-14.6c11.5,0,23.1,5.2,34.6,16.4
		c5.2,52,49.9,93.4,104,93.4c57.6,0,104.5-46.9,104.5-103.5C486.4,363.276,411.1,75.776,411.1,75.776z M104.5,433.276
		c-35.2,0-64-27.7-64-62.9c0-34.1,28.8-62.9,64-62.9s64,27.7,64,62.9C168.5,404.476,139.7,433.276,104.5,433.276z M381.9,433.276
		c-35.2,0-64-27.7-64-62.9c0-34.1,28.8-62.9,64-62.9s64,27.7,64,62.9C445.9,404.476,417.1,433.276,381.9,433.276z"/>
</g>
<g>
</g>
<g>
</g>
<g>
</g>
<g>
</g>
<g>
</g>
<g>
</g>
<g>
</g>
<g>
</g>
<g>
</g>
<g>
</g>
<g>
</g>
<g>
</g>
<g>
</g>
<g>
</g>
<g>
</g>
</svg>
