<?xml version="1.0" encoding="iso-8859-1"?>
<!-- Generator: Adobe Illustrator 19.0.0, SVG Export Plug-In . SVG Version: 6.00 Build 0)  -->
<svg version="1.1" id="Layer_1" xmlns="http://www.w3.org/2000/svg" xmlns:xlink="http://www.w3.org/1999/xlink" x="0px" y="0px"
	 viewBox="0 0 490 490" style="enable-background:new 0 0 490 490;" xml:space="preserve">
<g>
	<g>
		<path d="M302.8,222.855H192.4c-10.6,0-20.2,8.5-20.2,20.2c0,10.6,8.5,20.2,20.2,20.2h110.4c10.6,0,20.2-8.5,20.2-20.2
			C323,232.355,314.5,222.855,302.8,222.855z"/>
		<path d="M346.6,4.555c-38.5,0-74.9,15.4-101.6,42.2c-26.7-26.8-63.1-42.2-101.6-42.2C64.3,4.555,0,68.955,0,147.955
			c0,59.1,39.5,133.3,117.4,220.5c56.5,63.2,112.1,109.5,114.4,111.5c8.2,7.1,16.4,7.5,26.2,0.1c2.4-1.8,58-47.7,114.5-110.7
			c78-86.9,117.5-161.4,117.5-221.3C490,68.955,425.7,4.555,346.6,4.555z M342.3,341.455c-38.5,43-77.5,78.4-97.2,95.6
			c-19.6-17.3-58.4-52.8-97-96c-70-78.4-107-145.1-107-193.1c0-56.4,45.9-102.3,102.3-102.3c33.9,0,65.4,16.8,84.6,44.8
			c8.2,11.9,26.6,10.9,34,0c19.1-28,50.7-44.8,84.6-44.8c56.4,0,102.3,45.9,102.3,102.3C448.9,196.755,412,263.655,342.3,341.455z"
			/>
	</g>
</g>
<g>
</g>
<g>
</g>
<g>
</g>
<g>
</g>
<g>
</g>
<g>
</g>
<g>
</g>
<g>
</g>
<g>
</g>
<g>
</g>
<g>
</g>
<g>
</g>
<g>
</g>
<g>
</g>
<g>
</g>
</svg>
