<?xml version="1.0" encoding="iso-8859-1"?>
<!-- Generator: Adobe Illustrator 19.0.0, SVG Export Plug-In . SVG Version: 6.00 Build 0)  -->
<svg version="1.1" id="Layer_1" xmlns="http://www.w3.org/2000/svg" xmlns:xlink="http://www.w3.org/1999/xlink" x="0px" y="0px"
	 viewBox="0 0 490.1 490.1" style="enable-background:new 0 0 490.1 490.1;" xml:space="preserve">
<g>
	<g>
		<g>
			<path d="M439.5,99L330.1,5.2c-4.2-3.1-8.3-5.2-13.6-5.2H64.2C52.7,0,43.3,9.4,43.3,20.9v448.3c0,11.5,9.4,20.9,20.9,20.9h360.7
				c11.5,0,20.9-9.4,21.9-20.9V114.7C446.8,108.4,443.7,103.2,439.5,99z M336.3,65.6l41.8,35.5h-41.8V65.6z M84,449.3V41.7h210.6
				v79.2c0,11.5,9.4,20.9,20.9,20.9h89.6v307.6H84V449.3z"/>
		</g>
		<g>
			<path d="M245.4,385.1c-47.3,0-85.9-44-85.9-98s38.5-98,85.9-98c21.4,0,41.9,9,57.7,25.4c15,15.5,24.7,36.7,27.4,59.6
				c0.6,5-3.6,19.5-17.4,19.5H194.8c2.6,31.7,24.3,56.6,50.6,56.6c10.6,0,20.7-4,29.4-11.7c7.2-6.4,18.3-5.7,24.7,1.5
				c6.4,7.2,5.7,18.3-1.5,24.7C282.8,378,264.6,385.1,245.4,385.1z M200.1,258.5h90.7c-8.5-20.6-25.9-34.5-45.3-34.5
				C225.7,224,208.5,238,200.1,258.5z"/>
		</g>
	</g>
</g>
<g>
</g>
<g>
</g>
<g>
</g>
<g>
</g>
<g>
</g>
<g>
</g>
<g>
</g>
<g>
</g>
<g>
</g>
<g>
</g>
<g>
</g>
<g>
</g>
<g>
</g>
<g>
</g>
<g>
</g>
</svg>
