<?xml version="1.0" encoding="iso-8859-1"?>
<!-- Generator: Adobe Illustrator 19.0.0, SVG Export Plug-In . SVG Version: 6.00 Build 0)  -->
<svg version="1.1" id="Layer_1" xmlns="http://www.w3.org/2000/svg" xmlns:xlink="http://www.w3.org/1999/xlink" x="0px" y="0px"
	 viewBox="0 0 488.9 488.9" style="enable-background:new 0 0 488.9 488.9;" xml:space="preserve">
<g>
	<g>
		<path d="M436.95,119.7L316.25,5.2c-3.1-3.1-8.3-5.2-13.5-5.2H66.55c-11.4,0-20.8,9.4-20.8,20.8v447.3c0,11.4,9.4,20.8,20.8,20.8
			h355.8c11.4,0,20.8-9.4,20.8-20.8V134.2C443.15,129,441.05,123.8,436.95,119.7z M322.45,67.1l55.8,52.6h-55.8V67.1z M402.55,448.4
			H86.35V40.6h194.5v98.8c0,11.4,9.4,20.8,20.8,20.8h100.9V448.4L402.55,448.4z"/>
		<path d="M151.85,257c0,11.4,9.4,20.8,20.8,20.8h143.6c11.4,0,21.8-9.4,21.8-20.8s-9.4-20.8-20.8-20.8h-144.6
			C161.25,236.2,151.85,245.5,151.85,257z"/>
		<path d="M317.25,332.9h-144.6c-11.4,0-20.8,9.4-20.8,20.8s9.4,20.8,20.8,20.8h143.6c11.4,0,20.8-9.4,21.8-20.8
			C338.05,342.3,328.75,332.9,317.25,332.9z"/>
	</g>
</g>
<g>
</g>
<g>
</g>
<g>
</g>
<g>
</g>
<g>
</g>
<g>
</g>
<g>
</g>
<g>
</g>
<g>
</g>
<g>
</g>
<g>
</g>
<g>
</g>
<g>
</g>
<g>
</g>
<g>
</g>
</svg>
