<?xml version="1.0" encoding="iso-8859-1"?>
<!-- Generator: Adobe Illustrator 19.0.0, SVG Export Plug-In . SVG Version: 6.00 Build 0)  -->
<svg version="1.1" id="Layer_1" xmlns="http://www.w3.org/2000/svg" xmlns:xlink="http://www.w3.org/1999/xlink" x="0px" y="0px"
	 viewBox="0 0 491.013 491.013" style="enable-background:new 0 0 491.013 491.013;" xml:space="preserve">
<g>
	<path d="M484.8,442.156l-56.4-56.4c14.3-20,22.8-44.6,22.8-71c0-42.1-21.3-79.2-53.7-101.3v-78.2c0-5.2-2.1-10.4-6.2-14.6
		L269.4,6.256c-3.1-3.1-8.3-5.2-13.5-5.2H20.8c-11.4,0-20.8,9.4-20.8,20.8v447.3c0,11.4,9.4,20.8,20.8,20.8h355.8
		c11.4,0,20.8-9.4,21.8-19.8v-55c0.2-0.2,0.5-0.3,0.7-0.5l56.5,56.5c8.3,8.3,20.8,8.3,29.1,0
		C493.1,462.956,493.1,450.456,484.8,442.156z M276.7,68.356l55,52.3h-55V68.356z M356.8,449.456H40.6v-407.8h194.5v98.8
		c0,11.4,9.4,20.8,20.8,20.8h99.9v34.1c-8.7-2-17.8-3-27-3c-67.5,0-122.4,54.9-122.4,122.4s54.9,122.4,122.4,122.4
		c9.7,0,19.1-1.1,28.1-3.3v15.6L356.8,449.456L356.8,449.456z M328.7,396.156c-44.9,0-81.4-36.5-81.4-81.4s36.5-81.4,81.4-81.4
		s81.4,36.5,81.4,81.4S373.6,396.156,328.7,396.156z"/>
</g>
<g>
</g>
<g>
</g>
<g>
</g>
<g>
</g>
<g>
</g>
<g>
</g>
<g>
</g>
<g>
</g>
<g>
</g>
<g>
</g>
<g>
</g>
<g>
</g>
<g>
</g>
<g>
</g>
<g>
</g>
</svg>
