<?xml version="1.0" encoding="iso-8859-1"?>
<!-- Generator: Adobe Illustrator 19.0.0, SVG Export Plug-In . SVG Version: 6.00 Build 0)  -->
<svg version="1.1" id="Layer_1" xmlns="http://www.w3.org/2000/svg" xmlns:xlink="http://www.w3.org/1999/xlink" x="0px" y="0px"
	 viewBox="0 0 489.6 489.6" style="enable-background:new 0 0 489.6 489.6;" xml:space="preserve">
<g>
	<path d="M478.149,124c-78.1-46.9-156.3-49-232.3-51c-70.7-2-137.5-3-204.2-41.3V20.8c0-11.5-9.4-20.8-20.8-20.8
		c-11.5,0-20.8,9.4-20.8,20.8v448c0,11.5,9.4,20.8,20.8,20.8c11.5,0,20.8-9.4,20.8-19.8V308.2c72.9-2.1,144.7-39.5,212.5-74.9
		c74-38.5,144.8-74,213.6-69.8h1c11.5,0,20.8-9.4,20.8-20.8C489.649,134.4,485.449,127.1,478.149,124z M236.549,197.9
		c-67.7,34.4-131.3,67.7-194.8,69.8V78.1c68.8,32.3,137.5,34.4,204.2,36.5c50,1,99,2.1,146.9,16.7
		C339.649,144.8,287.549,171.9,236.549,197.9z"/>
</g>
<g>
</g>
<g>
</g>
<g>
</g>
<g>
</g>
<g>
</g>
<g>
</g>
<g>
</g>
<g>
</g>
<g>
</g>
<g>
</g>
<g>
</g>
<g>
</g>
<g>
</g>
<g>
</g>
<g>
</g>
</svg>
