<?xml version="1.0" encoding="iso-8859-1"?>
<!-- Generator: Adobe Illustrator 19.0.0, SVG Export Plug-In . SVG Version: 6.00 Build 0)  -->
<svg version="1.1" id="Layer_1" xmlns="http://www.w3.org/2000/svg" xmlns:xlink="http://www.w3.org/1999/xlink" x="0px" y="0px"
	 viewBox="0 0 489.663 489.663" style="enable-background:new 0 0 489.663 489.663;" xml:space="preserve">
<g>
	<path d="M485.5,167.132c-4.2-5.2-10.4-8.3-16.7-8.3h-61.5v-39.6c0-11.5-9.4-20.8-20.8-20.8H217.7l-25-64.6
		c-3.1-8.3-10.4-13.5-18.8-13.5H20.8c-11.5,0-20.8,9.4-20.8,20.8v407.4c0,11.5,9.4,20.8,20.8,20.8h365.7c11.1,0,20.3-7.9,20.8-18.9
		l81.3-265.6C490.7,178.532,489.7,172.332,485.5,167.132z M365.7,428.632H40.6v-366.8h118.8l25,64.6c3.1,8.3,10.4,13.5,18.8,13.5
		h162.5V428.632L365.7,428.632z M407.3,311.732v-111.3h34.4L407.3,311.732z"/>
</g>
<g>
</g>
<g>
</g>
<g>
</g>
<g>
</g>
<g>
</g>
<g>
</g>
<g>
</g>
<g>
</g>
<g>
</g>
<g>
</g>
<g>
</g>
<g>
</g>
<g>
</g>
<g>
</g>
<g>
</g>
</svg>
