<?xml version="1.0" encoding="iso-8859-1"?>
<!-- Generator: Adobe Illustrator 19.0.0, SVG Export Plug-In . SVG Version: 6.00 Build 0)  -->
<svg version="1.1" id="Layer_1" xmlns="http://www.w3.org/2000/svg" xmlns:xlink="http://www.w3.org/1999/xlink" x="0px" y="0px"
	 viewBox="0 0 488.7 488.7" style="enable-background:new 0 0 488.7 488.7;" xml:space="preserve">
<g>
	<g>
		<path d="M361,150.7H249.2v-20.2c0-4.3,3.5-7.8,7.8-7.8h78.8c26.9,0,48.8-21.9,48.8-48.8v-37c0-11.3-9.2-20.5-20.5-20.5
			s-20.5,9.2-20.5,20.5v37c0,4.3-3.5,7.8-7.8,7.8H257c-26.9,0-48.8,21.9-48.8,48.8v20.2h-80.4C57.5,150.7,0,216.7,0,296.6v29.8
			c0,80.9,57.5,145.9,127.8,145.9h232.1c71.3,0,128.8-64.9,128.8-145.9v-29.8C488.8,215.7,431.3,150.7,361,150.7z M448.3,327.5
			c0,57.5-39.4,104.3-87.3,104.3H127.8c-47.9,0-87.3-46.8-87.3-104.3v-29.8c0-57.5,39.4-104.3,87.3-104.3H361
			c47.9,0,87.3,46.8,87.3,104.3V327.5L448.3,327.5z"/>
		<path d="M344,238.1c-10.6,0-20.2,8.5-20.2,20.2c0,10.6,8.5,20.2,20.2,20.2c10.6,0,20.2-9.6,20.2-20.2
			C364.2,247.6,354.6,238.1,344,238.1z"/>
		<path d="M344,347.7c-10.6,0-20.2,9.6-20.2,20.2s8.5,20.2,20.2,20.2c10.6,0,20.2-9.6,20.2-20.2S354.6,347.7,344,347.7z"/>
		<path d="M398.3,292.4c-10.6,0-20.2,9.6-20.2,20.2s8.5,20.2,20.2,20.2s20.2-9.6,20.2-20.2C418.5,301.9,408.9,292.4,398.3,292.4z"/>
		<path d="M288.6,292.4c-10.6,0-20.2,8.5-20.2,20.2c0,10.6,8.5,20.2,20.2,20.2s20.2-8.5,20.2-20.2
			C308.8,301.9,300.3,292.4,288.6,292.4z"/>
		<path d="M204.5,292.4H164V253c0-10.6-9.6-20.2-20.2-20.2c-10.6,0-20.2,8.5-20.2,20.2v39.4H84.2c-10.6,0-20.2,8.5-20.2,20.2
			c0,10.6,8.5,20.2,20.2,20.2h39.4v40.5c0,10.6,8.5,20.2,20.2,20.2s21.3-9.6,20.2-20.2v-40.5h40.5c10.6,0,20.2-8.5,20.2-20.2
			C224.7,301.9,216.2,292.4,204.5,292.4z"/>
	</g>
</g>
<g>
</g>
<g>
</g>
<g>
</g>
<g>
</g>
<g>
</g>
<g>
</g>
<g>
</g>
<g>
</g>
<g>
</g>
<g>
</g>
<g>
</g>
<g>
</g>
<g>
</g>
<g>
</g>
<g>
</g>
</svg>
