<?xml version="1.0" encoding="iso-8859-1"?>
<!-- Generator: Adobe Illustrator 19.0.0, SVG Export Plug-In . SVG Version: 6.00 Build 0)  -->
<svg version="1.1" id="Layer_1" xmlns="http://www.w3.org/2000/svg" xmlns:xlink="http://www.w3.org/1999/xlink" x="0px" y="0px"
	 viewBox="0 0 489.4 489.4" style="enable-background:new 0 0 489.4 489.4;" xml:space="preserve">
<g>
	<g>
		<path d="M400.3,0H89.1C40.7,0,1.2,39.4,1.2,87.9v313.6c0,48.5,39.4,87.9,87.9,87.9S177,450,177,401.5V295.8
			c0-25.9,21-46.9,46.9-46.9h41.6c25.9,0,46.9,21,46.9,46.9v105.6c0,48.5,39.4,87.9,87.9,87.9s87.9-39.4,87.9-87.9V87.9
			C488.2,39.4,448.7,0,400.3,0z M447.2,401.5c0,25.9-21,46.9-46.9,46.9s-46.9-21-46.9-46.9V295.8c0-48.5-39.4-87.9-87.9-87.9h-41.6
			c-48.5,0-87.9,39.4-87.9,87.9v105.6c0,25.9-21,46.9-46.9,46.9s-46.9-21-46.9-46.9V87.9C42.2,62,63.2,41,89.1,41h311.2
			c25.9,0,46.9,21,46.9,46.9V401.5L447.2,401.5z"/>
		<circle cx="313.6" cy="101.9" r="20.5"/>
		<circle cx="373" cy="100.8" r="20.5"/>
		<circle cx="313.6" cy="162.3" r="20.5"/>
		<circle cx="373" cy="162.3" r="20.5"/>
		<path d="M175.5,111.3h-14.8V96.5c0-11.3-9.2-20.5-20.5-20.5s-20.5,9.2-20.5,20.5v14.8h-14.8c-11.3,0-20.5,9.2-20.5,20.5
			s9.2,20.5,20.5,20.5h14.8v14.8c0,11.3,9.2,20.5,20.5,20.5s20.5-9.2,20.5-20.5v-14.8h14.8c11.3,0,20.5-9.2,20.5-20.5
			S186.8,111.3,175.5,111.3z"/>
	</g>
</g>
<g>
</g>
<g>
</g>
<g>
</g>
<g>
</g>
<g>
</g>
<g>
</g>
<g>
</g>
<g>
</g>
<g>
</g>
<g>
</g>
<g>
</g>
<g>
</g>
<g>
</g>
<g>
</g>
<g>
</g>
</svg>
