<?xml version="1.0" encoding="iso-8859-1"?>
<!-- Generator: Adobe Illustrator 19.0.0, SVG Export Plug-In . SVG Version: 6.00 Build 0)  -->
<svg version="1.1" id="Layer_1" xmlns="http://www.w3.org/2000/svg" xmlns:xlink="http://www.w3.org/1999/xlink" x="0px" y="0px"
	 viewBox="0 0 491.1 491.1" style="enable-background:new 0 0 491.1 491.1;" xml:space="preserve">
<g>
	<path d="M246.6,1.05C112.1,1.05,2.1,98.15,0,217.75v189c0,15.9,14.9,21.4,20.3,21.4h45.3c9.2,35.3,41.7,61.9,79.6,61.9
		c10.7,0,20.3-8.5,20.3-20.3v-123.9c0-10.7-8.5-20.3-20.3-20.3c-38.8,0-70.7,26.6-79.7,61.9H41.6v-169.7
		c0-97.1,91.8-176.1,203.9-176.1s203.9,79,203.9,176.1v169.8h-21.8c-9.2-35.3-41.7-61.9-79.6-61.9c-10.7,0-20.3,8.5-20.3,20.3v123.8
		c0,10.7,8.5,20.3,20.3,20.3c38.8,0,70.7-26.6,79.7-61.9h43.1c5.3,0,20.3-2.8,20.3-20.3v-190C491,98.25,381.1,1.05,246.6,1.05z
		 M124.9,372.55v72.6c-11.7-7.5-20.3-21.4-20.3-36.3C104.6,392.85,112.1,380.05,124.9,372.55z M388.6,407.85
		c0,16-7.5,28.8-20.3,36.3v-71.6C381.1,378.95,389.6,392.85,388.6,407.85z"/>
</g>
<g>
</g>
<g>
</g>
<g>
</g>
<g>
</g>
<g>
</g>
<g>
</g>
<g>
</g>
<g>
</g>
<g>
</g>
<g>
</g>
<g>
</g>
<g>
</g>
<g>
</g>
<g>
</g>
<g>
</g>
</svg>
