<?xml version="1.0" encoding="iso-8859-1"?>
<!-- Generator: Adobe Illustrator 19.0.0, SVG Export Plug-In . SVG Version: 6.00 Build 0)  -->
<svg version="1.1" id="Layer_1" xmlns="http://www.w3.org/2000/svg" xmlns:xlink="http://www.w3.org/1999/xlink" x="0px" y="0px"
	 viewBox="0 0 489.9 489.9" style="enable-background:new 0 0 489.9 489.9;" xml:space="preserve">
<g>
	<path d="M245,30.2c-134.5,0-245,110.5-245,245c0,49,13.6,94.9,40.7,135.5c1.8,2.8,11,12.5,21.9,12.5h32.3v15.6
		c0,11.5,9.4,20.9,20.9,20.9c10.4,0,19.8-9.4,20.9-20.9v-75.1c0-11.5-9.4-20.9-20.9-20.9s-20.9,9.4-20.9,20.9v17.7h-24
		c-20.2-31.9-30.3-68.2-30.3-106.3c0-112.6,91.7-203.3,204.3-203.3s204.3,91.7,204.3,204.3c0,36.8-10.8,73.5-29.8,105.3H395v-17.7
		c0-11.5-9.4-20.9-20.9-20.9s-20.9,9.4-20.9,20.9v75.1c0,11.5,9.4,20.9,20.9,20.9s20.9-9.4,20.9-20.9v-15.6h32.3
		c9.6,0,19.7-9.2,21.9-12.5c26.1-40.7,40.7-87.6,40.7-135.5C490,140.7,379.5,30.2,245,30.2z"/>
</g>
<g>
</g>
<g>
</g>
<g>
</g>
<g>
</g>
<g>
</g>
<g>
</g>
<g>
</g>
<g>
</g>
<g>
</g>
<g>
</g>
<g>
</g>
<g>
</g>
<g>
</g>
<g>
</g>
<g>
</g>
</svg>
