<?xml version="1.0" encoding="iso-8859-1"?>
<!-- Generator: Adobe Illustrator 19.0.0, SVG Export Plug-In . SVG Version: 6.00 Build 0)  -->
<svg version="1.1" id="Layer_1" xmlns="http://www.w3.org/2000/svg" xmlns:xlink="http://www.w3.org/1999/xlink" x="0px" y="0px"
	 viewBox="0 0 489.6 489.6" style="enable-background:new 0 0 489.6 489.6;" xml:space="preserve">
<g>
	<path d="M244.8,52.1C110.4,52.1,0,201.1,0,383.4c0,11.5,9.4,20.8,20.8,20.8h56.3v12.5c0,11.5,9.4,20.8,20.8,20.8
		c10.4,0,19.8-9.4,20.8-20.8v-74c0-11.5-9.4-20.8-20.8-20.8s-20.8,9.4-20.8,20.8v19.8H41.7c7.3-151,95.8-270.8,203.1-270.8
		s195.8,119.8,203.1,270.8h-34.4v-19.8c0-11.5-9.4-20.8-20.8-20.8c-11.5,0-20.8,9.4-20.8,20.8v74c0,11.5,9.4,20.8,20.8,20.8
		c10.4,0,19.8-9.4,20.8-20.8v-12.5h55.3c11.5,0,20.8-9.4,20.8-20.8C489.6,201,379.2,52.1,244.8,52.1z"/>
</g>
<g>
</g>
<g>
</g>
<g>
</g>
<g>
</g>
<g>
</g>
<g>
</g>
<g>
</g>
<g>
</g>
<g>
</g>
<g>
</g>
<g>
</g>
<g>
</g>
<g>
</g>
<g>
</g>
<g>
</g>
</svg>
