<?xml version="1.0" encoding="iso-8859-1"?>
<!-- Generator: Adobe Illustrator 19.0.0, SVG Export Plug-In . SVG Version: 6.00 Build 0)  -->
<svg version="1.1" id="Layer_1" xmlns="http://www.w3.org/2000/svg" xmlns:xlink="http://www.w3.org/1999/xlink" x="0px" y="0px"
	 viewBox="0 0 490 490" style="enable-background:new 0 0 490 490;" xml:space="preserve">
<g>
	<path d="M245,0C110.4,0,0,97.8,0,217.7V407c0,8.8,6.7,21,21,21h42.4c8.9,35.6,41.2,62,79.5,62c11.6,0,21-9.5,20-21V346
		c0-10.5-8.4-20-20-20c-37.9,0-70,25.9-79.3,61H41V217.7C41,119.9,132.5,41,245,41s204,79.9,204,176.7V387h-22.7
		c-9.3-35.1-41.3-61-79.3-61c-10.5,0-20,8.4-20,20v101.6c-19.9-2.8-38.5-6.7-50.3-10.3c5.2-6.9,8.2-15.5,8.2-25.1
		c0-23.1-18.9-41-41-41c-23.1,0-41,18.9-41,41c0,77.3,143,77.8,144.1,77.8c38.3,0,70.6-26.4,79.5-62H469c5.3,0,19.7-3.3,21-21V216.6
		C490,97.8,379.6,0,245,0z M123,371.2v71.5c-12.6-7.4-21-20-21-35.8C102,392.2,110.4,378.5,123,371.2z M367,442.7v-71.5
		c12.6,7.4,21,21,21,35.8C388,421.7,379.6,435.3,367,442.7z"/>
</g>
<g>
</g>
<g>
</g>
<g>
</g>
<g>
</g>
<g>
</g>
<g>
</g>
<g>
</g>
<g>
</g>
<g>
</g>
<g>
</g>
<g>
</g>
<g>
</g>
<g>
</g>
<g>
</g>
<g>
</g>
</svg>
