<?xml version="1.0" encoding="iso-8859-1"?>
<!-- Generator: Adobe Illustrator 19.0.0, SVG Export Plug-In . SVG Version: 6.00 Build 0)  -->
<svg version="1.1" id="Layer_1" xmlns="http://www.w3.org/2000/svg" xmlns:xlink="http://www.w3.org/1999/xlink" x="0px" y="0px"
	 viewBox="0 0 489.7 489.7" style="enable-background:new 0 0 489.7 489.7;" xml:space="preserve">
<g>
	<path d="M265.2,281.4v-73.1c93.5-10.3,166.5-90.7,166.5-187.9c0-10.7-8.6-20.4-20.4-20.4C409.2,0,78.4,0,78.4,0
		C67.7,0,58,8.6,58,20.4c0,97.2,72.9,177.6,166.5,187.9v73.1C131,291.7,58,372.1,58,469.3c0,10.7,8.6,20.4,20.4,20.4
		c0,0,330.8,0,332.9,0c11.8,0,20.4-8.6,20.4-20.4C431.7,372.1,358.7,291.7,265.2,281.4z M99.8,40.7h290
		c-9.7,72-70.9,127.8-145,127.8S109.5,112.7,99.8,40.7z M99.8,448.9c9.7-72,70.9-127.8,145-127.8s135.3,55.8,145,127.8L99.8,448.9
		L99.8,448.9z"/>
</g>
<g>
</g>
<g>
</g>
<g>
</g>
<g>
</g>
<g>
</g>
<g>
</g>
<g>
</g>
<g>
</g>
<g>
</g>
<g>
</g>
<g>
</g>
<g>
</g>
<g>
</g>
<g>
</g>
<g>
</g>
</svg>
