<?xml version="1.0" encoding="iso-8859-1"?>
<!-- Generator: Adobe Illustrator 19.0.0, SVG Export Plug-In . SVG Version: 6.00 Build 0)  -->
<svg version="1.1" id="Layer_1" xmlns="http://www.w3.org/2000/svg" xmlns:xlink="http://www.w3.org/1999/xlink" x="0px" y="0px"
	 viewBox="0 0 490.1 490.1" style="enable-background:new 0 0 490.1 490.1;" xml:space="preserve">
<g>
	<g>
		<path d="M127.8,211.2H99c-10.7,0-20.2,9.6-20.2,20.2c0,10.7,8.5,20.2,20.2,20.2h28.8c10.7,0,20.2-9.6,20.2-20.2
			C148.1,220.8,139.5,211.2,127.8,211.2z"/>
		<path d="M230.1,251.7h28.8c11.7,0,20.2-9.6,20.2-20.2c0-10.7-8.5-20.2-20.2-20.2h-28.8c-10.7,0-20.2,9.6-20.2,20.2
			C209.8,242.1,218.4,251.7,230.1,251.7z"/>
		<path d="M390.9,211.2h-28.8c-10.7,0-20.2,9.6-20.2,20.2c0,10.7,8.5,20.2,20.2,20.2h28.8c11.7,0,20.2-9.6,20.2-20.2
			C411.2,220.8,402.7,211.2,390.9,211.2z"/>
		<path d="M127.8,289H99c-10.7,0-20.2,8.5-20.2,20.2c0,10.7,8.5,20.2,20.2,20.2h28.8c10.7,0,20.2-8.5,20.2-20.2
			C148.1,298.6,139.5,289,127.8,289z"/>
		<path d="M230.1,329.4h28.8c11.7,0,21.3-8.5,20.2-20.2c0-10.7-8.5-20.2-20.2-20.2h-28.8c-10.7,0-20.2,8.5-20.2,20.2
			C209.8,319.9,218.4,329.4,230.1,329.4z"/>
		<path d="M390.9,289h-28.8c-10.7,0-20.2,8.5-20.2,20.2c0,10.7,8.5,20.2,20.2,20.2h28.8c11.7,0,20.2-8.5,20.2-20.2
			C411.2,298.6,402.7,289,390.9,289z"/>
		<path d="M119.3,367.8H99.1c-10.7,0-20.2,9.6-20.2,20.2c0,10.7,8.5,20.2,20.2,20.2h20.2c10.7,0,20.2-9.6,20.2-20.2
			S131,367.8,119.3,367.8z"/>
		<path d="M386.7,367.8h-20.2c-10.7,0-20.2,9.6-20.2,20.2c0,10.7,8.5,20.2,20.2,20.2h20.2c11.7,0,20.2-9.6,20.2-20.2
			C406.9,377.4,398.4,367.8,386.7,367.8z"/>
		<path d="M283.3,367.8h-66c-10.7,0-20.2,9.6-20.2,20.2c0,10.7,8.5,20.2,20.2,20.2h66c10.7,0,20.2-9.6,20.2-20.2
			C303.6,377.4,295.1,367.8,283.3,367.8z"/>
		<path d="M439.9,130.2H267.2V95.8c0-1.2,1-2.2,2.2-2.2h112.4c23.8,0,43.2-19.4,43.2-43.2v-29c0-11.3-9.2-20.5-20.5-20.5
			S384,10.1,384,21.4v29.1c0,1.2-1,2.2-2.2,2.2H269.4c-23.8,0-43.2,19.4-43.2,43.2v34.4H50.1C22.4,130.2,0,152.6,0,180.3v258.8
			c0,27.7,22.4,50.1,50.1,50.1H440c27.7,0,50.1-22.4,50.1-50.1V180.3C490,152.6,467.6,130.2,439.9,130.2z M449.5,439.2
			c0,5.3-4.3,9.6-9.6,9.6H50.1c-5.3,0-9.6-4.3-9.6-9.6V180.3c0-5.3,4.3-9.6,9.6-9.6H440c5.3,0,9.6,4.3,9.6,9.6v258.9H449.5z"/>
	</g>
</g>
<g>
</g>
<g>
</g>
<g>
</g>
<g>
</g>
<g>
</g>
<g>
</g>
<g>
</g>
<g>
</g>
<g>
</g>
<g>
</g>
<g>
</g>
<g>
</g>
<g>
</g>
<g>
</g>
<g>
</g>
</svg>
