<?xml version="1.0" encoding="iso-8859-1"?>
<!-- Generator: Adobe Illustrator 19.0.0, SVG Export Plug-In . SVG Version: 6.00 Build 0)  -->
<svg version="1.1" id="Layer_1" xmlns="http://www.w3.org/2000/svg" xmlns:xlink="http://www.w3.org/1999/xlink" x="0px" y="0px"
	 viewBox="0 0 491 491" style="enable-background:new 0 0 491 491;" xml:space="preserve">
<g>
	<g>
		<path d="M440.2,0.7H50.8C23.3,0.7,1.1,22.9,0,50.4V315c0,28.6,23.3,50.8,50.8,50.8h249.7v23c0,11-9,20-20,20H155.9
			c-33.7,0-61,27.4-61,61c0,11.3,9.2,20.5,20.5,20.5s20.5-9.2,20.5-20.5c0-11,9-20,20-20h124.6c33.7,0,61-27.4,61-61v-23h98.7
			c27.5,0,49.7-22.2,50.8-49.7V51.5C491,23,467.7,0.7,440.2,0.7z M449.8,315c0,5.3-4.2,9.5-9.5,9.5H50.8c-5.3,0-9.5-4.2-9.5-9.5
			V50.5c0-5.3,4.2-9.5,9.5-9.5h389.5c5.3,0,9.5,4.2,9.5,9.5V315z"/>
		<path d="M131.2,102.3h-27.5c-10.6,0-20.1,8.5-20.1,20.1c0,10.6,8.5,20.1,20.1,20.1h27.5c10.6,0,20.1-9.5,20.1-20.1
			S142.8,102.3,131.2,102.3z"/>
		<path d="M259.3,102.3h-27.5c-10.6,0-20.1,8.5-20.1,20.1c0,10.6,8.5,20.1,20.1,20.1h27.5c11.6,0,21.2-9.5,20.1-20.1
			C279.4,111.9,270.9,102.3,259.3,102.3z"/>
		<path d="M388.4,102.3h-27.5c-10.6,0-20.1,8.5-20.1,20.1c0,10.6,8.5,20.1,20.1,20.1h27.5c10.6,0,20.1-9.5,20.1-20.1
			S400,102.3,388.4,102.3z"/>
		<path d="M130.1,224h-27.5c-10.6,0-19,9.5-19,20.1s8.5,20.1,20.1,20.1h27.5c10.6,0,19-9.5,19-20.1C150.3,233.6,141.8,224,130.1,224
			z"/>
		<path d="M259.3,224h-27.5c-10.6,0-20.1,9.5-20.1,20.1s8.5,20.1,20.1,20.1h27.5c11.6,0,20.1-9.5,20.1-20.1
			C279.4,233.6,270.9,224,259.3,224z"/>
		<path d="M388.4,224h-27.5c-10.6,0-20.1,9.5-20.1,20.1s8.5,20.1,20.1,20.1h27.5c10.6,0,20.1-9.5,20.1-20.1
			C408.5,233.6,400,224,388.4,224z"/>
	</g>
</g>
<g>
</g>
<g>
</g>
<g>
</g>
<g>
</g>
<g>
</g>
<g>
</g>
<g>
</g>
<g>
</g>
<g>
</g>
<g>
</g>
<g>
</g>
<g>
</g>
<g>
</g>
<g>
</g>
<g>
</g>
</svg>
