<?xml version="1.0" encoding="iso-8859-1"?>
<!-- Generator: Adobe Illustrator 19.0.0, SVG Export Plug-In . SVG Version: 6.00 Build 0)  -->
<svg version="1.1" id="Layer_1" xmlns="http://www.w3.org/2000/svg" xmlns:xlink="http://www.w3.org/1999/xlink" x="0px" y="0px"
	 viewBox="0 0 489.747 489.747" style="enable-background:new 0 0 489.747 489.747;" xml:space="preserve">
<g>
	<g>
		<path d="M265.173,54.2V40.4h6.4c11.7,0,20.2-8.5,20.2-20.2c0-10.6-8.5-20.2-20.2-20.2h-53.2c-10.6,0-20.2,8.5-20.2,20.2
			c0,10.6,8.5,20.2,20.2,20.2h6.4v13.8C111.573,66,22.373,176,22.373,309.1c0,0.8,0,4,0,4.9c0,63.9,185.3,67.1,222.5,67.1
			s222.5-3.2,222.5-67.1c0-0.7,0-3.2,0-3.8C467.573,176.1,378.373,66,265.173,54.2z M244.973,97.1c87,0,159.9,74.3,176,172.1
			c-57.5-20.9-150.8-22.3-176-22.3l0,0l0,0c-25.3,0-118.8,1.5-176.2,22.4C84.573,171.1,157.673,97.1,244.973,97.1z M244.973,340.6
			c-98,0-158.6-16-177.8-26.6c17.8-9.9,71.5-23.5,157.6-26.2v0.6c0,10.6,8.5,20.2,20.2,20.2s20.2-8.5,20.2-20.2v-0.8
			c86.1,2,139.8,16.5,157.6,26.4C403.573,325.7,342.973,340.6,244.973,340.6z"/>
		<path d="M244.973,391.7c-10.6,0-20.2,8.5-20.2,20.2v57.5c0,10.6,8.5,20.2,20.2,20.2s20.2-9.6,20.2-20.2v-57.5
			C265.173,401.3,255.573,391.7,244.973,391.7z"/>
		<path d="M183.173,396c-8.5-7.5-21.3-6.4-28.7,2.1l-49,57.5c-7.5,8.5-6.4,21.3,2.1,28.7c2.6,3.1,16.4,11.3,28.7-2.1l49-57.5
			C192.773,416.2,191.773,403.4,183.173,396z"/>
		<path d="M335.473,398.1c-7.5-8.5-20.2-9.6-28.7-2.1s-9.6,20.2-2.1,28.7l49,57.5c13.6,13.6,25.6,5.3,28.7,2.1
			c8.5-7.5,9.6-20.2,2.1-28.7L335.473,398.1z"/>
	</g>
</g>
<g>
</g>
<g>
</g>
<g>
</g>
<g>
</g>
<g>
</g>
<g>
</g>
<g>
</g>
<g>
</g>
<g>
</g>
<g>
</g>
<g>
</g>
<g>
</g>
<g>
</g>
<g>
</g>
<g>
</g>
</svg>
