<?xml version="1.0" encoding="iso-8859-1"?>
<!-- Generator: Adobe Illustrator 19.0.0, SVG Export Plug-In . SVG Version: 6.00 Build 0)  -->
<svg version="1.1" id="Layer_1" xmlns="http://www.w3.org/2000/svg" xmlns:xlink="http://www.w3.org/1999/xlink" x="0px" y="0px"
	 viewBox="0 0 489 489" style="enable-background:new 0 0 489 489;" xml:space="preserve">
<g>
	<g>
		<path d="M486.929,460.1l-42.7-152.1V20.3c0-10.7-8.5-20.3-20.3-20.3h-359.7c-10.7,0-20.3,8.5-20.3,20.3v287.8l-42.7,154.2
			c-2.9,7,0.5,26.7,19.2,26.7h448.4C493.429,489,489.129,464.7,486.929,460.1z M404.729,40.6v248.7h-320.2V40.6H404.729z
			 M47.129,448.4l33.1-117.4h328.8l33.1,117.4H47.129z"/>
		<path d="M133.629,356.6h-11.7c-10.7,0-20.3,8.5-20.3,20.3c0,10.7,8.5,20.3,20.3,20.3h11.7c11.7,0,20.3-8.5,20.3-20.3
			C153.929,366.2,145.329,356.6,133.629,356.6z"/>
	</g>
</g>
<g>
</g>
<g>
</g>
<g>
</g>
<g>
</g>
<g>
</g>
<g>
</g>
<g>
</g>
<g>
</g>
<g>
</g>
<g>
</g>
<g>
</g>
<g>
</g>
<g>
</g>
<g>
</g>
<g>
</g>
</svg>
