<?xml version="1.0" encoding="iso-8859-1"?>
<!-- Generator: Adobe Illustrator 19.0.0, SVG Export Plug-In . SVG Version: 6.00 Build 0)  -->
<svg version="1.1" id="Layer_1" xmlns="http://www.w3.org/2000/svg" xmlns:xlink="http://www.w3.org/1999/xlink" x="0px" y="0px"
	 viewBox="0 0 489.828 489.828" style="enable-background:new 0 0 489.828 489.828;" xml:space="preserve">
<g>
	<g>
		<path d="M487.995,449.264l-61.5-137.3v-279.7c0-11.5-9.4-20.9-20.9-20.9h-323.2c-11.5,0-20.9,9.4-20.9,20.9v284.3l-59.3,132.7
			c-5.3,9.1-1.6,29.2,17.7,29.2h448.3C480.095,478.464,495.095,466.664,487.995,449.264z M103.295,52.064h282.5v245h-282.5
			L103.295,52.064L103.295,52.064z M51.195,437.864l44.8-99h296.1l44.8,99H51.195z"/>
		<circle cx="243.495" cy="387.764" r="21"/>
		<circle cx="356.095" cy="387.764" r="21"/>
		<circle cx="131.995" cy="387.764" r="21"/>
	</g>
</g>
<g>
</g>
<g>
</g>
<g>
</g>
<g>
</g>
<g>
</g>
<g>
</g>
<g>
</g>
<g>
</g>
<g>
</g>
<g>
</g>
<g>
</g>
<g>
</g>
<g>
</g>
<g>
</g>
<g>
</g>
</svg>
