<?xml version="1.0" encoding="iso-8859-1"?>
<!-- Generator: Adobe Illustrator 19.0.0, SVG Export Plug-In . SVG Version: 6.00 Build 0)  -->
<svg version="1.1" id="Layer_1" xmlns="http://www.w3.org/2000/svg" xmlns:xlink="http://www.w3.org/1999/xlink" x="0px" y="0px"
	 viewBox="0 0 489.158 489.158" style="enable-background:new 0 0 489.158 489.158;" xml:space="preserve">
<g>
	<g>
		<path d="M486.348,413.549l-42.5-79.7v-270c0-10.6-8.5-20.2-20.2-20.2h-360.3c-10.6,0-20.2,9.6-20.2,21.3v276.7l-40.4,74
			c-7.9,13.9,2.3,29.8,17,29.8h448.5C483.348,446.649,494.648,429.549,486.348,413.549z M84.548,85.149h318.9v237h-318.9
			C84.548,322.149,84.548,85.149,84.548,85.149z M53.748,403.949l22.3-41.4h335.9l22.3,41.5h-380.5L53.748,403.949L53.748,403.949z"
			/>
		<path d="M317.348,130.849l-110.6,107.3l-35.1-32.9c-8.5-7.4-21.3-7.4-28.7,1.1s-7.4,21.3,1.1,28.7l48.9,45.7
			c11.6,9.7,23.4,4.3,27.6,0l125.5-121.2c7.4-7.4,7.4-20.2,0-28.7C338.548,123.349,325.848,123.349,317.348,130.849z"/>
	</g>
</g>
<g>
</g>
<g>
</g>
<g>
</g>
<g>
</g>
<g>
</g>
<g>
</g>
<g>
</g>
<g>
</g>
<g>
</g>
<g>
</g>
<g>
</g>
<g>
</g>
<g>
</g>
<g>
</g>
<g>
</g>
</svg>
