<?xml version="1.0" encoding="iso-8859-1"?>
<!-- Generator: Adobe Illustrator 19.0.0, SVG Export Plug-In . SVG Version: 6.00 Build 0)  -->
<svg version="1.1" id="Layer_1" xmlns="http://www.w3.org/2000/svg" xmlns:xlink="http://www.w3.org/1999/xlink" x="0px" y="0px"
	 viewBox="0 0 489.417 489.417" style="enable-background:new 0 0 489.417 489.417;" xml:space="preserve">
<g>
	<g>
		<path d="M486.319,411.508l-40.7-75.2v-271.4c0-10.7-8.6-20.3-20.3-20.3h-360.6c-10.7,0-20.3,8.6-20.3,20.3v271.5l-41.7,78.4
			c-7,10.8-0.2,30,17.1,30h449.3C487.02,444.708,494.02,425.108,486.319,411.508z M85.119,85.208h319.9v236.4h-319.9L85.119,85.208
			L85.119,85.208z M54.019,404.008l22.5-40.7h334.9l22.5,40.7H54.019z"/>
		<path d="M337.619,259.908l-42.5-36c4.9-10.3,7.6-21.8,7.6-33.9c0-43.9-35.7-79.6-79.6-79.6s-79.6,35.7-79.6,79.6
			s35.7,79.6,79.6,79.6c16.9,0,32.6-5.3,45.5-14.4l42.2,35.7c8.6,7.5,21.4,6.4,28.9-2.1
			C347.219,280.208,346.119,267.408,337.619,259.908z M223.119,228.608c-21.3,0-38.6-17.3-38.6-38.6s17.3-38.6,38.6-38.6
			s38.6,17.3,38.6,38.6S244.319,228.608,223.119,228.608z"/>
	</g>
</g>
<g>
</g>
<g>
</g>
<g>
</g>
<g>
</g>
<g>
</g>
<g>
</g>
<g>
</g>
<g>
</g>
<g>
</g>
<g>
</g>
<g>
</g>
<g>
</g>
<g>
</g>
<g>
</g>
<g>
</g>
</svg>
