<?xml version="1.0" encoding="iso-8859-1"?>
<!-- Generator: Adobe Illustrator 19.0.0, SVG Export Plug-In . SVG Version: 6.00 Build 0)  -->
<svg version="1.1" id="Layer_1" xmlns="http://www.w3.org/2000/svg" xmlns:xlink="http://www.w3.org/1999/xlink" x="0px" y="0px"
	 viewBox="0 0 490.65 490.65" style="enable-background:new 0 0 490.65 490.65;" xml:space="preserve">
<g>
	<path d="M278.45,0.158c-117,0-212.1,95.2-212.1,212.1c0,13.7,1.3,27.1,3.8,40.1l-42.4,42.4c-37,37-37,97.3,0,134.4l33.9,33.9
		c60.3,51.5,116.4,18,133.3,0l42.6-42.6c13.3,2.6,27,4,41,4c117,0,212.1-95.2,212.1-212.1C490.55,95.258,395.35,0.158,278.45,0.158z
		 M166.25,434.458c-9.5,10.6-45.9,29.1-76.2,0l-33.8-33.9c-21.2-21.2-21.2-56.1,0-77.2l27.3-27.3c21.3,49.5,61,89.2,110.4,110.8
		L166.25,434.458z M278.45,382.558c-39.7,0-76.4-13.7-105.4-36.6l76-77.5l17.8,17.8c11.7,11.7,25.4,4.2,28.6,0
		c8.5-7.4,8.5-20.1,0-28.6l-62.5-62.4c-7.4-8.5-20.1-8.5-28.6,0c-8.5,7.4-8.5,20.1,0,28.6l16.8,16.8l-76.7,76.7
		c-22.8-29-36.4-65.5-36.4-105.2c0-93.9,76.4-170.4,170.4-170.4c93.9,0,170.4,76.4,170.4,170.4
		C448.75,306.158,372.35,382.558,278.45,382.558z"/>
</g>
<g>
</g>
<g>
</g>
<g>
</g>
<g>
</g>
<g>
</g>
<g>
</g>
<g>
</g>
<g>
</g>
<g>
</g>
<g>
</g>
<g>
</g>
<g>
</g>
<g>
</g>
<g>
</g>
<g>
</g>
</svg>
