<?xml version="1.0" encoding="iso-8859-1"?>
<!-- Generator: Adobe Illustrator 19.0.0, SVG Export Plug-In . SVG Version: 6.00 Build 0)  -->
<svg version="1.1" id="Layer_1" xmlns="http://www.w3.org/2000/svg" xmlns:xlink="http://www.w3.org/1999/xlink" x="0px" y="0px"
	 viewBox="0 0 490 490" style="enable-background:new 0 0 490 490;" xml:space="preserve">
<g>
	<path d="M477.3,309.273c0-9.9-2.6-19.1-7.2-27c11.2-8.4,19.4-20.7,19.9-34.7c0-26.6-21.2-47.9-46.6-47.9l-114.3,1.1
		c11.6-37.2,29.6-98.9,31.7-119.1c3.2-34-10.6-74.4-37-80.8c-9.5-2.1-32.8-3.2-49.7,34c-2.1,5.3-50.8,164.8-102.7,179.7h-9.5
		c-2.6-7.8-9.8-13.8-19-13.8H20.1c-10.6,0-20.1,8.5-20.1,20.2v248.8c0,10.6,8.5,20.2,20.1,20.2h122.8c9.5,0,16.8-5.6,19.3-14
		c55.7,6.9,236.9,10.8,236.9,10.8c27.5,0,49.7-23.4,49.7-52.1c0-8.5-2.1-17-6.3-24.5c14.8-8.5,27.5-21.3,27.5-38.3
		c0-10.6-3.2-20.2-8.5-28.7C471,334.773,477.3,323.173,477.3,309.273z M121.7,449.673H40.2v-207.4h81.5V449.673z M425.4,257.373
		c-9.7,1.2-18,10.2-18,20.1c0,10.6,8.5,20.2,20.1,20.2c5.3,0,9.5,4.3,9.5,10.6c0,6.4-9.5,10.6-16.9,10.6c-10.6,0-20.1,8.5-20.1,20.2
		c0,10.6,8.5,20.2,20.1,20.2c5.3,0,9.5,4.6,9.5,9.6c0,7.9-21.2,12.8-30.7,12.8c-10.6,0-20.1,8.5-20.1,20.2
		c0,10.6,8.5,20.2,20.1,20.2c5.3,0,9.5,4.3,9.5,10.6c0,5.3-4.2,10.6-9.5,10.6c0,0-131.1,6-236-8.2v-180.2c7.3-0.1,13.9-0.4,14.8-0.9
		c80,1.1,132.3-201,133.3-204.2c0,0,0,0,0-0.1c1.4-2.7,4.5-3.8,6.4,0.4c2.9,6.7,3.9,16.6,3.1,27.3c-2.1,19.1-27.5,103.1-38.1,131.9
		c-6,17.2,11.4,33.4,23.3,33l137.6-2.1c3.2,0,5.3,3.2,5.3,6.4C448.7,255.873,429.9,256.173,425.4,257.373z"/>
</g>
<g>
</g>
<g>
</g>
<g>
</g>
<g>
</g>
<g>
</g>
<g>
</g>
<g>
</g>
<g>
</g>
<g>
</g>
<g>
</g>
<g>
</g>
<g>
</g>
<g>
</g>
<g>
</g>
<g>
</g>
</svg>
