<?xml version="1.0" encoding="iso-8859-1"?>
<!-- Generator: Adobe Illustrator 19.0.0, SVG Export Plug-In . SVG Version: 6.00 Build 0)  -->
<svg version="1.1" id="Layer_1" xmlns="http://www.w3.org/2000/svg" xmlns:xlink="http://www.w3.org/1999/xlink" x="0px" y="0px"
	 viewBox="0 0 490.6 490.6" style="enable-background:new 0 0 490.6 490.6;" xml:space="preserve">
<g>
	<g>
		<path d="M469.8,448.592h-9.4v-134.4c0-11.5-9.4-20.8-20.8-20.8c-11.5,0-20.8,9.4-20.8,20.8v134.4h-88.6v-134.4
			c0-11.5-9.4-20.8-20.8-20.8s-20.8,9.4-20.8,20.8v134.4h-87.5v-219.9c0-11.5-9.4-20.8-20.8-20.8c-11.5,0-20.8,9.4-20.8,20.8v219.9
			H70.7v-294.9c0-11.5-9.4-20.8-20.8-20.8s-20.8,9.4-20.8,20.8v294.9h-8.3c-11.5,0-20.8,9.4-20.8,20.8s9.2,20.9,20.6,20.9h448.1
			c11.5,0,20.8-9.4,21.9-20.8C490.6,457.992,481.2,448.592,469.8,448.592z"/>
		<path d="M51.9,36.992l220.9,163.6c4.2,3.1,8.3,4.2,12.5,4.2h126.4l-11.8,11.5c-7.3,8.3-8.3,20.8,0,29.2c12.1,12.1,25,4.2,29.2,0
			l50-49c12-12,4.2-25,0-29.2l-50-49c-8.3-8.3-20.8-8.3-29.2,0s-8.3,20.8,0,29.2l17.2,16.7H291.6L74.8,4.692
			c-8.3-7.3-21.9-5.2-28.1,4.2S42.5,30.692,51.9,36.992z"/>
	</g>
</g>
<g>
</g>
<g>
</g>
<g>
</g>
<g>
</g>
<g>
</g>
<g>
</g>
<g>
</g>
<g>
</g>
<g>
</g>
<g>
</g>
<g>
</g>
<g>
</g>
<g>
</g>
<g>
</g>
<g>
</g>
</svg>
