<?xml version="1.0" encoding="iso-8859-1"?>
<!-- Generator: Adobe Illustrator 19.0.0, SVG Export Plug-In . SVG Version: 6.00 Build 0)  -->
<svg version="1.1" id="Layer_1" xmlns="http://www.w3.org/2000/svg" xmlns:xlink="http://www.w3.org/1999/xlink" x="0px" y="0px"
	 viewBox="0 0 483.695 483.695" style="enable-background:new 0 0 483.695 483.695;" xml:space="preserve">
<g>
	<g>
		<path d="M321.948,158.998l-160.2-1.1c-10.6,0-20.2,8.5-20.2,20.2c0,10.6,8.5,20.2,20.2,20.2l60.4,0.4l-1,216
			c0,10.6,8.5,20.2,20.2,20.2c10.6,0,20.2-8.5,20.2-20.2l1-215.7l59.5,0.4c11.7,0,20.2-9.5,20.2-20.2
			S333.548,158.998,321.948,158.998z"/>
		<g>
			<g>
				<path d="M38.248,46.598c-21.2,0-38.2,17-38.2,38.2c-1.1,21.2,17,39.2,38.2,39.2s38.2-18,38.2-38.2
					C77.448,64.598,59.448,46.598,38.248,46.598z"/>
				<path d="M445.448,50.798c-21.2,0-38.2,17-38.2,38.2c-1.1,21.2,17,39.2,38.2,39.2s38.2-17,38.2-38.2
					C484.748,68.898,466.648,50.798,445.448,50.798z"/>
			</g>
			<g>
				<g>
					<path d="M134.848,437.098c-11.3,0-20.5-9.2-20.5-20.5v-122h-87.2c-11.3,0-20.5-9.2-20.5-20.5v-99.5c0-11.3,9.2-20.5,20.5-20.5
						s20.5,9.2,20.5,20.5v79h87.2c11.3,0,20.5,9.2,20.5,20.5v142.5C155.348,427.898,146.148,437.098,134.848,437.098z"/>
				</g>
				<g>
					<path d="M339.848,437.098c11.3,0,20.5-9.2,20.5-20.5v-122h87.2c11.3,0,20.5-9.2,20.5-20.5v-99.5c0-11.3-9.2-20.5-20.5-20.5
						s-20.5,9.2-20.5,20.5v79h-87.2c-11.3,0-20.5,9.2-20.5,20.5v142.5C319.348,427.898,328.548,437.098,339.848,437.098z"/>
				</g>
			</g>
		</g>
	</g>
</g>
<g>
</g>
<g>
</g>
<g>
</g>
<g>
</g>
<g>
</g>
<g>
</g>
<g>
</g>
<g>
</g>
<g>
</g>
<g>
</g>
<g>
</g>
<g>
</g>
<g>
</g>
<g>
</g>
<g>
</g>
</svg>
