<?xml version="1.0" encoding="iso-8859-1"?>
<!-- Generator: Adobe Illustrator 19.0.0, SVG Export Plug-In . SVG Version: 6.00 Build 0)  -->
<svg version="1.1" id="Layer_1" xmlns="http://www.w3.org/2000/svg" xmlns:xlink="http://www.w3.org/1999/xlink" x="0px" y="0px"
	 viewBox="0 0 491.2 491.2" style="enable-background:new 0 0 491.2 491.2;" xml:space="preserve">
<g>
	<path d="M465.7,1.292l-389.3,97.6c-45.6,10.6-76.4,49.8-76.4,93.3c0,22.7,8.7,44,23.3,60.8v217.1c0,10.6,8.5,20.2,20.2,20.2h89.1
		c8.5,0,15.9-5.3,19.1-13.8l31.9-89.1h20.1c11.7,0,21.2-9.5,20.2-20.2c0-10.6-8.5-20.2-20.2-20.2h-5.6l10.2-28.5l257.4,64.5
		c3.6,1.1,25.5,2.1,25.5-19.1v-343.5C491.1-0.308,472,0.292,465.7,1.292z M117.8,449.992H63.7v-168.6c4.1,1.6,8.4,3,12.7,4.2
		l91.4,22.9L117.8,449.992z M450.8,337.492L87,246.292c-27.6-6.4-45.6-28.6-45.6-54.1s19.1-47.7,45.6-54.1l363.8-91.2V337.492
		L450.8,337.492z"/>
</g>
<g>
</g>
<g>
</g>
<g>
</g>
<g>
</g>
<g>
</g>
<g>
</g>
<g>
</g>
<g>
</g>
<g>
</g>
<g>
</g>
<g>
</g>
<g>
</g>
<g>
</g>
<g>
</g>
<g>
</g>
</svg>
