<?xml version="1.0" encoding="iso-8859-1"?>
<!-- Generator: Adobe Illustrator 19.0.0, SVG Export Plug-In . SVG Version: 6.00 Build 0)  -->
<svg version="1.1" id="Layer_1" xmlns="http://www.w3.org/2000/svg" xmlns:xlink="http://www.w3.org/1999/xlink" x="0px" y="0px"
	 viewBox="0 0 490.297 490.297" style="enable-background:new 0 0 490.297 490.297;" xml:space="preserve">
<g>
	<g>
		<path d="M343.9,3.392l-185.5,118.5H21.2c-10.6,0-20.1,8.5-20.1,20.1L0,429.792c0,33.9,22.2,60.3,50.8,60.3
			c23.3,0,44.4-18,47.6-43.4l43.9-174.6h17.8l183.8,117.4c10.7,7.4,31.7,1.6,31.7-16.9v-352.3C375.7,0.692,354-3.708,343.9,3.392z
			 M41.3,163.192h101.6v68.8H41.3V163.192z M60.4,437.192c-2.1,8.5-7.4,12.7-9.5,12.7c-3.2,0-9.5-7.4-9.5-20.1v-156.6h60.3
			L60.4,437.192z M334.4,335.592l-150.2-95.2v-86.8l150.2-95.2V335.592z"/>
		<path d="M468.8,175.892h-47.6c-10.6,0-20.1,9.5-20.1,20.1s8.5,20.1,20.1,20.1h47.6c10.6,0,20.1-9.5,20.1-20.1
			S480.4,175.892,468.8,175.892z"/>
		<path d="M426.4,149.392l50.8-20.1c10.6-4.2,15.9-15.9,11.6-26.4c-4.2-10.6-15.9-15.9-26.4-11.6l-50.8,20.1
			c-10.6,4.2-16.7,16.3-11.6,26.5C407.6,152.892,420.5,150.892,426.4,149.392z"/>
		<path d="M477.2,262.592l-49.7-20.1c-10.6-4.2-22.2,1.1-26.4,11.6c-4.2,10.6,1.1,22.2,11.6,26.4l49.7,20.1
			c12,4.5,23.3-4.2,26.4-11.6C493.1,278.492,487.8,266.892,477.2,262.592z"/>
	</g>
</g>
<g>
</g>
<g>
</g>
<g>
</g>
<g>
</g>
<g>
</g>
<g>
</g>
<g>
</g>
<g>
</g>
<g>
</g>
<g>
</g>
<g>
</g>
<g>
</g>
<g>
</g>
<g>
</g>
<g>
</g>
</svg>
