<?xml version="1.0" encoding="iso-8859-1"?>
<!-- Generator: Adobe Illustrator 19.0.0, SVG Export Plug-In . SVG Version: 6.00 Build 0)  -->
<svg version="1.1" id="Layer_1" xmlns="http://www.w3.org/2000/svg" xmlns:xlink="http://www.w3.org/1999/xlink" x="0px" y="0px"
	 viewBox="0 0 489.125 489.125" style="enable-background:new 0 0 489.125 489.125;" xml:space="preserve">
<g>
	<path d="M438.896,11.025c-3.1-5.2-13.2-16.1-28.1-8.3l-212.2,119.7h-86.3c-61.6,0-112,50.4-112,112l0,0
		c0,60,47.9,109.4,107.3,111.9v122c0,11.5,9.4,20.8,20.8,20.8c10.4,0,19.8-9.4,20.8-20.8v-121.9h51l0,0l209.3,118.8
		c15.2,8.1,27.1-3.1,29.2-8.3C549.296,236.025,442.996,20.425,438.896,11.025z M180.496,304.725h-76c-34.4,0-63.5-36.3-63.5-71.7
		c0-34.4,28.1-71,63.5-71h76V304.725z M410.696,419.325l-187.5-106.2v-158.4l186.5-105.2
		C431.596,103.725,480.496,260.025,410.696,419.325z"/>
</g>
<g>
</g>
<g>
</g>
<g>
</g>
<g>
</g>
<g>
</g>
<g>
</g>
<g>
</g>
<g>
</g>
<g>
</g>
<g>
</g>
<g>
</g>
<g>
</g>
<g>
</g>
<g>
</g>
<g>
</g>
</svg>
