<?xml version="1.0" encoding="iso-8859-1"?>
<!-- Generator: Adobe Illustrator 19.0.0, SVG Export Plug-In . SVG Version: 6.00 Build 0)  -->
<svg version="1.1" id="Layer_1" xmlns="http://www.w3.org/2000/svg" xmlns:xlink="http://www.w3.org/1999/xlink" x="0px" y="0px"
	 viewBox="0 0 490 490" style="enable-background:new 0 0 490 490;" xml:space="preserve">
<g>
	<path d="M411.7,0.5c-7.6,0-14.5,2-20.9,5.6L67.7,99C27.5,110.6,0,148.7,0,192.1c0,21.9,7,42.4,19,58.8v218.5
		c0,10.6,8.5,20.1,20.1,20.1h77.3c9.5,0,16.9-5.3,20.1-14.8l21.9-70.9h17.3c11.6,0,20.1-9.5,20.1-20.1c0-10.6-8.5-20.1-20.1-20.1
		h-4.9l13.8-44.7c0,0,226.2,64.8,227.1,64.8l0,0c52.9,0,78.3-99.5,78.3-191.6S465.7,0.5,411.7,0.5z M79.4,138.1l273.8-78.7
		c-13.4,36.7-19.8,85.6-19.8,132.7s6.4,96,19.8,132.7L79.4,246.1c-22.2-6.4-38.1-28.6-38.1-54C41.3,166.7,57.1,144.5,79.4,138.1z
		 M101.6,449.3H59.3v-167c2.8,1.1,5.6,2.1,8.5,2.9l77.6,22.3L101.6,449.3z M411.7,343.4c-9.8-2.9-33.3-48.7-36.6-131.2h14.4
		c10.6,0,20.1-9.5,20.1-20.1s-8.5-20.1-20.1-20.1h-14.4c3.4-82.7,26.8-129.3,36.6-131.2c10.6,2.1,37,56.1,37,151.3
		S423.3,341.3,411.7,343.4z"/>
</g>
<g>
</g>
<g>
</g>
<g>
</g>
<g>
</g>
<g>
</g>
<g>
</g>
<g>
</g>
<g>
</g>
<g>
</g>
<g>
</g>
<g>
</g>
<g>
</g>
<g>
</g>
<g>
</g>
<g>
</g>
</svg>
