<?xml version="1.0" encoding="iso-8859-1"?>
<!-- Generator: Adobe Illustrator 19.0.0, SVG Export Plug-In . SVG Version: 6.00 Build 0)  -->
<svg version="1.1" id="Layer_1" xmlns="http://www.w3.org/2000/svg" xmlns:xlink="http://www.w3.org/1999/xlink" x="0px" y="0px"
	 viewBox="0 0 491.349 491.349" style="enable-background:new 0 0 491.349 491.349;" xml:space="preserve">
<g>
	<path d="M450.726,271.333l2.5-5.5c5.2-9.4,1-20.9-7.3-26.1l-218.9-136.2c4.8-17.4-1.8-36.9-17.7-46.2l-80.3-49
		c-27.9-16.6-51.1,3.1-57.3,16.7l-67.8,142.8c-5.2,9.4-10.8,41.9,22.9,55.3l88.6,31.3c24.2,6.5,39.4-4.3,47.1-15.1l244.8,83.9
		c11.3,3.8,20.9-4.2,25-11.5l1.5-3.4c14.5,7.7,20.1,24.8,13.1,39.9c-3.7,7.7-18.8,24.3-41.7,14.6l-140.7-67.3
		c-16.7-8.3-68.1-17.6-94.9,33.4c-18.2,34.7-1,78.2,34.4,94.9l135.5,64.6c2.1,1,16.5,3.7,25-9.4c5.2-10.4,1-21.9-9.4-27.1
		l-135.5-64.6c-15.6-7.3-21.9-25-14.6-40.7c11.6-22.4,34.4-17.7,41.7-14.6l140.8,67.2c29.7,15.6,77.3,7.3,97-33.4
		C501.426,330.833,485.726,288.233,450.726,271.333z M127.926,215.733l-87.6-31.3l66.7-141.8l80.3,49L127.926,215.733z
		 M403.226,278.333l-222-76.8l28.7-60.5l199.6,123.7L403.226,278.333z"/>
</g>
<g>
</g>
<g>
</g>
<g>
</g>
<g>
</g>
<g>
</g>
<g>
</g>
<g>
</g>
<g>
</g>
<g>
</g>
<g>
</g>
<g>
</g>
<g>
</g>
<g>
</g>
<g>
</g>
<g>
</g>
</svg>
