<?xml version="1.0" encoding="iso-8859-1"?>
<!-- Generator: Adobe Illustrator 19.0.0, SVG Export Plug-In . SVG Version: 6.00 Build 0)  -->
<svg version="1.1" id="Layer_1" xmlns="http://www.w3.org/2000/svg" xmlns:xlink="http://www.w3.org/1999/xlink" x="0px" y="0px"
	 viewBox="0 0 490.14 490.14" style="enable-background:new 0 0 490.14 490.14;" xml:space="preserve">
<g>
	<g>
		<path d="M151.152,267.6l-15.9,11.7c-9.5,6.4-10.6,19.1-4.2,28.6c3.2,5.3,14,13.2,28.6,4.2l15.9-11.7c9.5-6.4,10.6-19.1,4.2-28.6
			C173.452,262.3,160.652,261.2,151.152,267.6z"/>
		<path d="M328.752,0c-88.2,0-159.9,71.7-159.9,159.9c0,6.1,0.4,12.1,1,18l-136.4,101.4c-35,25.5-42.7,76.6-15.9,112.4
			c0.8,1.1,1.7,2.2,2.6,3.3c-1,24.9,2.7,50.8,22.8,71c44.3,44.3,119.6,15.9,158,6.4c12.5-3.1,24.4-4.2,31.8,0
			c9.5,5.3,22.3,2.1,27.6-7.4c5.3-9.5,2.1-22.3-7.4-27.6c-20.1-11.7-43.8-8.9-58.3-5.3c-29.9,7.3-94,33.2-123,4.2
			c-5.2-5.2-6.6-8.1-8.3-14.1c21,5.6,44.9,3,66.6-13.5l136.5-101.4c19.2,8.1,40.2,12.6,62.3,12.6c88.2,0,159.9-71.7,159.9-159.9
			S416.952,0,328.752,0z M105.552,375.8c-11.1,11.1-39.8,12.3-55.1-8.5c-13.5-18.3-9.5-43.5,7.4-56.2l123-90.4
			c10.3,25.1,26.9,47,47.7,63.8L105.552,375.8z M328.752,279c-65.6,0-119.1-53.4-119.1-119.1s53.5-119,119.1-119
			s119.1,53.4,119.1,119.1S394.452,279,328.752,279z"/>
	</g>
</g>
<g>
</g>
<g>
</g>
<g>
</g>
<g>
</g>
<g>
</g>
<g>
</g>
<g>
</g>
<g>
</g>
<g>
</g>
<g>
</g>
<g>
</g>
<g>
</g>
<g>
</g>
<g>
</g>
<g>
</g>
</svg>
