<?xml version="1.0" encoding="iso-8859-1"?>
<!-- Generator: Adobe Illustrator 19.0.0, SVG Export Plug-In . SVG Version: 6.00 Build 0)  -->
<svg version="1.1" id="Layer_1" xmlns="http://www.w3.org/2000/svg" xmlns:xlink="http://www.w3.org/1999/xlink" x="0px" y="0px"
	 viewBox="0 0 490.531 490.531" style="enable-background:new 0 0 490.531 490.531;" xml:space="preserve">
<g>
	<g>
		<path d="M489.79,168.5C489.69,75.6,414.19,0,321.29,0c-92.8,0-168.4,75.6-168.4,168.5c0,14.3,1.8,28.2,5.2,41.5L26.39,341.7
			c-34.2,34.2-34.2,88.7,0,123c30.8,30.8,84,37.9,121.9,0l132.6-132.6c13,3.2,26.5,5.4,40.5,4.9
			C445.79,333,489.89,230.2,489.79,168.5z M448.79,168.5c0,10.7-1.3,21.2-3.8,31.1c-31.8,0.8-71.8-18-104.2-50.4
			c-31.5-31.5-51.3-73.1-50-104.5c9.8-2.4,20-3.7,30.6-3.7C391.59,41,448.79,98.2,448.79,168.5z M119.39,435.8
			c-18.2,18.2-47,18.2-65.2,0s-18.2-47,0-65.2l120.4-119.5c15.3,27,37.8,49.4,64.9,64.6L119.39,435.8z M321.29,296
			c-70.2,0-127.4-57.2-127.4-127.5c0-44.1,22.5-83,56.6-105.9c4.5,38.6,26.5,80.6,61.4,115.5s77.3,56.5,115.5,61.1
			C404.49,273.4,365.49,296,321.29,296z"/>
		<path d="M154.69,306.4l-8.6,8.6c-7.5,8.6-7.5,21.4,0,28.9c12.3,12.3,24.6,4.3,28.9,0l8.6-8.6c7.5-7.5,7.5-21.4,0-28.9
			C176.09,299,162.19,299,154.69,306.4z"/>
	</g>
</g>
<g>
</g>
<g>
</g>
<g>
</g>
<g>
</g>
<g>
</g>
<g>
</g>
<g>
</g>
<g>
</g>
<g>
</g>
<g>
</g>
<g>
</g>
<g>
</g>
<g>
</g>
<g>
</g>
<g>
</g>
</svg>
