<?xml version="1.0" encoding="iso-8859-1"?>
<!-- Generator: Adobe Illustrator 19.0.0, SVG Export Plug-In . SVG Version: 6.00 Build 0)  -->
<svg version="1.1" id="Layer_1" xmlns="http://www.w3.org/2000/svg" xmlns:xlink="http://www.w3.org/1999/xlink" x="0px" y="0px"
	 viewBox="0 0 490.2 490.2" style="enable-background:new 0 0 490.2 490.2;" xml:space="preserve">
<g>
	<g>
		<path d="M216.1,323.1H271c56,0,102.4-46.5,101.4-102.4V101.4C372.4,45.4,327,0,271,0h-54.9c-56,0-101.4,45.4-101.4,101.4v120.4
			C114.7,277.7,160.1,323.1,216.1,323.1z M154.8,102.4c0-33.8,27.5-61.3,61.3-61.3V40H271c33.8,0,61.3,27.5,61.3,61.3v120.4
			c0,33.8-27.5,61.3-61.3,61.3h-54.9c-33.8,0-61.3-27.5-61.3-61.3V102.4z"/>
		<path d="M469.5,113h-29.6c-10.6,0-20.1,8.4-20.1,20.1v79.2c0,75-56,136.2-124.6,136.2H190.7c-68.6,0-124.6-61.3-124.6-136.2v-79.2
			c0-10.6-8.4-20.1-20.1-20.1H20.7c-10.6,0-20.1,9.5-20.1,20.1s8.4,20.1,20.1,20.1H26v58.1c0,98.2,75,177.4,165.8,177.4h31.7V450
			H177c-10.6,0-20.1,9.5-20.1,20.1s8.4,20.1,20.1,20.1h133.1c11.6,0,20.1-9.5,20.1-20.1s-8.4-20.1-20.1-20.1h-46.5v-61.3h32.7
			c90.8,0,164.7-79.2,163.7-177.4v-58.1h9.5c10.6,0,20.1-9.5,20.1-20.1S481.1,113,469.5,113z"/>
	</g>
</g>
<g>
</g>
<g>
</g>
<g>
</g>
<g>
</g>
<g>
</g>
<g>
</g>
<g>
</g>
<g>
</g>
<g>
</g>
<g>
</g>
<g>
</g>
<g>
</g>
<g>
</g>
<g>
</g>
<g>
</g>
</svg>
