<?xml version="1.0" encoding="iso-8859-1"?>
<!-- Generator: Adobe Illustrator 19.0.0, SVG Export Plug-In . SVG Version: 6.00 Build 0)  -->
<svg version="1.1" id="Layer_1" xmlns="http://www.w3.org/2000/svg" xmlns:xlink="http://www.w3.org/1999/xlink" x="0px" y="0px"
	 viewBox="0 0 490.056 490.056" style="enable-background:new 0 0 490.056 490.056;" xml:space="preserve">
<g>
	<g>
		<path d="M148.956,269.259l-15.8,11.6c-9.5,6.3-10.5,19-4.2,28.5c4.6,6.9,20,12.7,28.4,4.2l15.8-11.6c9.5-6.3,10.5-19,4.2-28.5
			C171.056,263.959,158.456,262.959,148.956,269.259z"/>
		<path d="M328.956,0.059c-88.8,0-161,72.4-161,161.5c0,5.8,0.3,11.5,0.9,17.2l-136.7,101.1c-34.7,26.4-43.4,78.1-15.8,113
			c0.9,1.1,1.8,2.2,2.8,3.3c-1.5,24.9,1,53.2,22.5,73.7c12.6,12.1,31.6,27.6,97.9,16.1l60-10c12.6-2,24.2-4,31.6,0
			c9.5,5,22.1,2,27.4-7s2.1-21.1-7.4-26.1c-21.1-11-44.2-7-59-5l-60,10c-39,8-56.8-1-62.1-6c-4.9-4.6-7.7-11.1-9.2-18.2
			c21,6.2,44.9,3.8,68.2-12.8l136.5-100.9c19.5,8.4,41,13.1,63.5,13.1c88.8,0,161-72.4,161-161.5S417.756,0.059,328.956,0.059z
			 M104.756,378.059c-20.4,14.4-41.2,8.4-54.7-8.4c-14.1-17.6-10.5-43.3,7.4-56l122.2-92c10.3,25.7,27.1,48.2,48.2,65.4
			L104.756,378.059z M328.956,281.159c-65.8,0-119.3-53.7-119.3-119.7s53.6-119.6,119.3-119.6c65.8,0,119.3,53.7,119.3,119.7
			S394.756,281.159,328.956,281.159z"/>
	</g>
</g>
<g>
</g>
<g>
</g>
<g>
</g>
<g>
</g>
<g>
</g>
<g>
</g>
<g>
</g>
<g>
</g>
<g>
</g>
<g>
</g>
<g>
</g>
<g>
</g>
<g>
</g>
<g>
</g>
<g>
</g>
</svg>
