<?xml version="1.0" encoding="iso-8859-1"?>
<!-- Generator: Adobe Illustrator 19.0.0, SVG Export Plug-In . SVG Version: 6.00 Build 0)  -->
<svg version="1.1" id="Layer_1" xmlns="http://www.w3.org/2000/svg" xmlns:xlink="http://www.w3.org/1999/xlink" x="0px" y="0px"
	 viewBox="0 0 490.783 490.783" style="enable-background:new 0 0 490.783 490.783;" xml:space="preserve">
<g>
	<g>
		<path d="M145.483,314.051l-14.9,14.9c-7.4,7.4-7.4,21.3,0,28.7c6.1,6.1,18.3,10.4,28.7,0l14.9-14.9c7.4-7.4,7.4-21.3,0-28.7
			C166.783,306.651,152.883,306.651,145.483,314.051z"/>
		<path d="M319.283,0.751c-94.5,0-171.4,76.9-171.4,171.4c0,15,2,29.6,5.6,43.5l-129.2,129.3c-37.6,37.6-26.7,92.5,0,119.1
			c30.2,30.2,82.9,38.4,120.2,1.1l126.5-128.5c15.3,4.5,31.6,7,48.4,7c94.5,0,171.4-76.9,171.4-171.4S413.783,0.751,319.283,0.751z
			 M114.683,435.351c-19.3,19.3-45.9,15.8-61.7,0c-13.9-13.9-20.3-41.4,0-61.7l117.2-117.2c14.6,25.7,35.6,47.3,60.9,62.5
			L114.683,435.351z M319.283,302.551c-71.9,0-130.4-58.5-130.4-130.4c0-46.9,24.9-88.1,62.2-111.1c19.3,31,48,65.2,79.5,96.7
			c33.5,32.4,68.8,62,100.6,81.2C408.383,277.051,366.683,302.551,319.283,302.551z M359.283,130.051
			c-27.5-28.4-51.8-57.6-69.6-84.9c9.5-2.2,19.4-3.4,29.6-3.4c71.9,0,130.4,58.5,130.4,130.4c0,10.1-1.2,20-3.4,29.4
			C418.783,183.651,387.683,158.551,359.283,130.051z"/>
	</g>
</g>
<g>
</g>
<g>
</g>
<g>
</g>
<g>
</g>
<g>
</g>
<g>
</g>
<g>
</g>
<g>
</g>
<g>
</g>
<g>
</g>
<g>
</g>
<g>
</g>
<g>
</g>
<g>
</g>
<g>
</g>
</svg>
