<?xml version="1.0" encoding="iso-8859-1"?>
<!-- Generator: Adobe Illustrator 19.0.0, SVG Export Plug-In . SVG Version: 6.00 Build 0)  -->
<svg version="1.1" id="Layer_1" xmlns="http://www.w3.org/2000/svg" xmlns:xlink="http://www.w3.org/1999/xlink" x="0px" y="0px"
	 viewBox="0 0 491 491" style="enable-background:new 0 0 491 491;" xml:space="preserve">
<g>
	<g>
		<g>
			<path d="M169.05,377.9c7.4,7.4,20.1,7.4,28.5,0l27.5-26.8v119.8c0,10.6,9.5,20.1,20.1,20.1s20.1-8.4,20.1-20.1V351.1l27.5,26.8
				c7.4,8.4,21.1,8.4,28.5,0c8.4-7.4,8.4-21.1,0-28.5l-61.3-60.2c-12.3-11.8-25.3-4.2-29.6-1.1l-61.3,61.3
				C161.65,356.7,161.65,369.4,169.05,377.9z"/>
			<path d="M321.85,113c-7.4-7.4-20.1-7.4-28.5,0l-27.5,26.8V20.1c0-10.6-9.5-20.1-20.1-20.1s-20.1,8.4-20.1,20.1v119.8l-27.5-26.8
				c-7.4-8.4-21.1-8.4-28.5,0c-8.4,7.4-8.4,21.1,0,28.5l61.3,60.2c12.3,11.8,25.3,4.2,29.6,1.1l61.3-61.3
				C329.25,134.1,329.25,121.5,321.85,113z"/>
		</g>
		<g>
			<path d="M113.05,169c-7.4,7.4-7.4,20.1,0,28.5l26.8,27.5H20.15c-10.6,0-20.1,9.5-20.1,20.1s8.4,20.1,20.1,20.1h119.8l-26.8,27.5
				c-8.4,7.4-8.4,21.1,0,28.5c7.4,8.4,21.1,8.4,28.5,0l60.2-61.3c11.8-12.3,4.2-25.3,1.1-29.6l-61.3-61.3
				C134.15,161.6,121.45,161.6,113.05,169z"/>
			<path d="M377.85,321.9c7.4-7.4,7.4-20.1,0-28.5l-26.8-27.5h119.8c10.6,0,20.1-9.5,20.1-20.1s-8.4-20.1-20.1-20.1h-119.8
				l26.8-27.5c8.4-7.4,8.4-21.1,0-28.5c-7.4-8.4-21.1-8.4-28.5,0l-60.2,61.4c-11.8,12.3-4.2,25.3-1.1,29.6l61.3,61.3
				C356.75,329.3,369.45,329.3,377.85,321.9z"/>
		</g>
	</g>
</g>
<g>
</g>
<g>
</g>
<g>
</g>
<g>
</g>
<g>
</g>
<g>
</g>
<g>
</g>
<g>
</g>
<g>
</g>
<g>
</g>
<g>
</g>
<g>
</g>
<g>
</g>
<g>
</g>
<g>
</g>
</svg>
