<?xml version="1.0" encoding="iso-8859-1"?>
<!-- Generator: Adobe Illustrator 19.0.0, SVG Export Plug-In . SVG Version: 6.00 Build 0)  -->
<svg version="1.1" id="Layer_1" xmlns="http://www.w3.org/2000/svg" xmlns:xlink="http://www.w3.org/1999/xlink" x="0px" y="0px"
	 viewBox="0 0 490.9 490.9" style="enable-background:new 0 0 490.9 490.9;" xml:space="preserve">
<g>
	<g>
		<path d="M366.5,237.4c-5-2.6-11.2-0.7-13.8,4.2c-19.3,36-57.9,58.4-100.6,58.4c-62.2,0-112.8-47.8-112.8-106.5S189.9,87,252.1,87
			c24.9,0,58.3,10.5,77.1,34c13.1,16.3,16.8,36.1,11.2,58.7c-6.2,24.8-17.8,42.1-34.5,51.3c-9.9,5.5-19.3,6.7-25.1,6.8
			c0.8-7.1,3.5-22.8,12-57.2c6.8-27.5,14-53.4,14.1-53.6c1.5-5.3-1.7-10.9-7.2-12.3c-5.5-1.5-11.1,1.7-12.6,7
			c0,0.1-2.1,7.6-5.1,18.7c-6.5-13.1-17.1-23.1-30.7-27.3c-31.4-9.7-67.2,14.5-80.1,54.1c-12.8,39.6,2.2,79.7,33.6,89.4
			c18.8,5.8,39.1-0.5,55.2-15c-0.1,4.1,0.5,11.4,7.3,14.2c7.5,3.2,26.5,3.5,45.1-5.6c16.3-7.9,37.7-25.8,47.8-65.7
			c7.1-28.5,2.1-54.8-14.9-75.8C327.2,86.3,295.5,67,252,67c-91.3,0-133.2,76.8-133.2,126.6c0,84.3,75,126.6,133.2,126.6
			c64.6,0,104.4-42,118.8-69.1C373.4,246.1,371.5,240,366.5,237.4z M211.2,236.9c-20.6-6.4-29.8-34.9-20.4-63.7
			c9.3-28.8,33.6-46.9,54.2-40.5c20.6,6.4,29.8,34.9,20.4,63.7C256.1,225.1,231.8,243.3,211.2,236.9z"/>
	</g>
	<g>
		<path d="M470,0.6H20.8C9.3,0.6,0,10,0,21.4v349.2c0,11.5,9.4,20.8,20.8,20.8H224v57.3h-69.8c-11.5,0-20.8,9.4-20.8,20.8
			s9.4,20.8,20.8,20.8h181.4c10.4,0,19.8-9.4,19.8-20.8s-9.4-20.8-20.8-20.8h-68.8v-57.3H469c11.5,0,20.8-9.4,21.9-20.8V21.4
			C490.9,9.9,481.5,0.6,470,0.6z M449.2,349.7H40.6V41.2h408.6V349.7L449.2,349.7z"/>
	</g>
</g>
<g>
</g>
<g>
</g>
<g>
</g>
<g>
</g>
<g>
</g>
<g>
</g>
<g>
</g>
<g>
</g>
<g>
</g>
<g>
</g>
<g>
</g>
<g>
</g>
<g>
</g>
<g>
</g>
<g>
</g>
</svg>
