<?xml version="1.0" encoding="iso-8859-1"?>
<!-- Generator: Adobe Illustrator 19.0.0, SVG Export Plug-In . SVG Version: 6.00 Build 0)  -->
<svg version="1.1" id="Layer_1" xmlns="http://www.w3.org/2000/svg" xmlns:xlink="http://www.w3.org/1999/xlink" x="0px" y="0px"
	 viewBox="0 0 490 490" style="enable-background:new 0 0 490 490;" xml:space="preserve">
<g>
	<g>
		<path d="M245,66.2c-58.9,0-106.2,51.5-106.2,113.6c0,57.8,82,142,91.5,151.4c7.5,7.5,19.8,9.6,29.4,0
			c9.5-9.5,91.5-93.6,91.5-151.4C351.2,116.7,303.9,66.2,245,66.2z M245,287.1c-29.4-32.6-65.2-81-65.2-107.3
			c0-40,29.4-72.6,65.2-72.6s65.2,32.6,65.2,72.6C310.2,206.1,274.4,254.5,245,287.1z"/>
		<path d="M434.3,0H55.7C25.2,0,0,25.2,0,55.7v297.6C0,383.8,25.2,409,55.7,409H225v41h-58.9c-10.5,0-20,8.4-20,20
			c0,10.5,8.4,20,20,20h157.7c11.6,0,21-9.5,21-20s-8.4-20-20-20H265v-41h169.3c30.5,0,55.7-25.2,55.7-55.7V55.7
			C490,25.2,464.8,0,434.3,0z M449,353.3c0,8.4-6.3,14.7-14.7,14.7H55.7c-8.4,0-14.7-6.3-14.7-14.7V55.7C41,47.3,47.3,41,55.7,41
			h378.5c8.4,0,14.7,6.3,14.7,14.7v297.6L449,353.3L449,353.3z"/>
		<path d="M249.2,146.2h-9.5c-10.5,0-20,9.5-20,20s8.4,20,20,20h9.5c11.6,0,20-9.5,20-20S260.8,146.2,249.2,146.2z"/>
	</g>
</g>
<g>
</g>
<g>
</g>
<g>
</g>
<g>
</g>
<g>
</g>
<g>
</g>
<g>
</g>
<g>
</g>
<g>
</g>
<g>
</g>
<g>
</g>
<g>
</g>
<g>
</g>
<g>
</g>
<g>
</g>
</svg>
