<?xml version="1.0" encoding="iso-8859-1"?>
<!-- Generator: Adobe Illustrator 19.0.0, SVG Export Plug-In . SVG Version: 6.00 Build 0)  -->
<svg version="1.1" id="Layer_1" xmlns="http://www.w3.org/2000/svg" xmlns:xlink="http://www.w3.org/1999/xlink" x="0px" y="0px"
	 viewBox="0 0 490.096 490.096" style="enable-background:new 0 0 490.096 490.096;" xml:space="preserve">
<g>
	<g>
		<path d="M171.3,130.276c-10.6,0-20.2,8.5-20.2,20.2v21.3c0,10.6,8.5,20.2,20.2,20.2c10.6,0,20.2-9.6,20.2-20.2v-21.3
			C191.6,139.876,182,130.276,171.3,130.276z"/>
		<path d="M489.7,212.076c-2.1-11.7-13.8-18.1-24.5-16c-10.6,3.2-34.1-8.3-34.1-54.3c0-62.7-68.1-115-143.7-133.1
			c-28.7-6.4-56.4-7.5-80.9-2.1c-30.1,6-53.6,21.5-65.1,42.1c-78.6,5-141.4,70-141.4,147.7v142.6c0,80.9,68.1,148,151.2,148h39.4
			c83.1,0,151.2-67.1,151.2-149.1v-141.6c0-76.4-59.2-138.9-134.5-147.1c2.5-0.8,5.1-1.6,7.8-2.2c18.1-4.3,40.5-3.2,62.8,2.1
			c59.6,12.8,105.4,54.3,112.9,99c0,70.2,44.7,89.4,70.3,89.4c4.3,0,8.5,0,12.8-1.1C485.4,234.376,491.8,222.676,489.7,212.076z
			 M301.2,220.976v118c0,59.6-50,107.5-110.7,107.5h-39.4c-60.7,0-110.7-47.9-110.7-107.5v-117.9c30.4,25.8,77.3,42.3,130.9,42.3
			C224.2,263.376,271,246.876,301.2,220.976z M294,158.076c-6.8,35-60.4,63.8-122.8,63.8c-62.8,0-116.8-28.3-122.9-64.4
			c16.4-39.7,56.5-67.6,102.8-67.6v-1.1h39.4C237.5,88.776,278,117.476,294,158.076z"/>
	</g>
</g>
<g>
</g>
<g>
</g>
<g>
</g>
<g>
</g>
<g>
</g>
<g>
</g>
<g>
</g>
<g>
</g>
<g>
</g>
<g>
</g>
<g>
</g>
<g>
</g>
<g>
</g>
<g>
</g>
<g>
</g>
</svg>
