<?xml version="1.0" encoding="iso-8859-1"?>
<!-- Generator: Adobe Illustrator 19.0.0, SVG Export Plug-In . SVG Version: 6.00 Build 0)  -->
<svg version="1.1" id="Layer_1" xmlns="http://www.w3.org/2000/svg" xmlns:xlink="http://www.w3.org/1999/xlink" x="0px" y="0px"
	 viewBox="0 0 490.491 490.491" style="enable-background:new 0 0 490.491 490.491;" xml:space="preserve">
<g>
	<path d="M467.044,216.808l-47.9-86.3c-80.7-130.8-205.1-91.5-225.5-83.8c-9.1-20.5-27.4-36.5-49.1-43.1
		c-23.9-7.3-48.9-2.1-69.7,3.1c-6.2,1-30.2,8.9-52,6.2c-11.4-1.3-20.8,7.3-21.9,18.8c-1,11.4,7.3,21.2,18.7,21.8
		c32.9,1.7,57.2-5.2,64.5-6.2c17.7-4.2,34.3-8.3,48.9-4.2c10.4,2.6,20.1,11.8,24.2,22c-85.8,57.9-104.3,163.1-60.5,242.3l47.9,86.3
		c92.9,146.5,222.6,87.4,249.7,71.8C437.944,442.608,532.944,353.208,467.044,216.808z M372.644,132.308l-106,58l-58.5-105.9
		C224.044,78.508,305.444,52.708,372.644,132.308z M171.944,104.408l58.4,105.8l-106.3,58.2
		C95.244,179.708,147.344,123.008,171.944,104.408z M374.444,429.108c-36.2,21.2-135.3,40.7-194.5-56.2l-37.4-67.4l251.5-137.7
		l37.6,67.8C481.444,338.708,407.444,409.808,374.444,429.108z"/>
</g>
<g>
</g>
<g>
</g>
<g>
</g>
<g>
</g>
<g>
</g>
<g>
</g>
<g>
</g>
<g>
</g>
<g>
</g>
<g>
</g>
<g>
</g>
<g>
</g>
<g>
</g>
<g>
</g>
<g>
</g>
</svg>
