<?xml version="1.0" encoding="iso-8859-1"?>
<!-- Generator: Adobe Illustrator 19.0.0, SVG Export Plug-In . SVG Version: 6.00 Build 0)  -->
<svg version="1.1" id="Layer_1" xmlns="http://www.w3.org/2000/svg" xmlns:xlink="http://www.w3.org/1999/xlink" x="0px" y="0px"
	 viewBox="0 0 490.8 490.8" style="enable-background:new 0 0 490.8 490.8;" xml:space="preserve">
<g>
	<g>
		<path d="M470.4,4.85H348c-10.7,0-20.4,8.6-20.4,20.4v273.9c0,10.7,8.6,20.4,20.4,20.4h122.4c11.8,0,20.4-9.7,20.4-20.4V25.25
			C490.8,14.45,482.2,4.85,470.4,4.85z M450,278.65h-81.6v-95.6H450V278.65z M450,142.25h-81.6v-96.6H450V142.25z"/>
		<circle cx="409.2" cy="95.05" r="20.5"/>
		<path d="M252.4,110.05v-89.1c0-10.7-8.6-20.4-20.4-20.4h-91.3c-10.7,0-20.4,9.7-20.4,20.4s8.6,20.4,20.4,20.4h40.8l-55.8,54.5
			c-7.5,7.5-7.5,20.4,0,29c7.5,7.5,21.5,7.5,29,0l56.9-55.6v40.8c0,10.7,8.6,20.4,20.4,20.4C242.8,130.45,252.4,120.85,252.4,110.05
			z"/>
		<path d="M364.1,365.95c-7.5-7.5-21.5-7.5-29,0l-56.9,55.6v-40.8c0-10.7-8.6-20.4-20.4-20.4c-10.7,0-20.4,9.7-20.4,20.4v89.1
			c0,10.7,8.6,20.4,20.4,20.4h91.3c10.7,0,20.4-9.7,20.4-20.4s-8.6-20.4-20.4-20.4h-40.8l55.8-54.5
			C371.6,387.45,371.6,374.55,364.1,365.95z"/>
		<path d="M142.9,171.25H20.4c-10.7,0-20.4,8.6-20.4,20.4v273.9c0,10.7,8.6,20.4,20.4,20.4h122.5c11.8,0,20.4-9.7,20.4-20.4v-273.9
			C163.3,180.95,154.7,171.25,142.9,171.25z M122.5,445.15H40.8v-95.6h81.6v95.6H122.5z M122.5,308.75H40.8v-96.7h81.6v96.7H122.5z"
			/>
		<circle cx="81.7" cy="261.45" r="20.5"/>
	</g>
</g>
<g>
</g>
<g>
</g>
<g>
</g>
<g>
</g>
<g>
</g>
<g>
</g>
<g>
</g>
<g>
</g>
<g>
</g>
<g>
</g>
<g>
</g>
<g>
</g>
<g>
</g>
<g>
</g>
<g>
</g>
</svg>
