<?xml version="1.0" encoding="iso-8859-1"?>
<!-- Generator: Adobe Illustrator 19.0.0, SVG Export Plug-In . SVG Version: 6.00 Build 0)  -->
<svg version="1.1" id="Layer_1" xmlns="http://www.w3.org/2000/svg" xmlns:xlink="http://www.w3.org/1999/xlink" x="0px" y="0px"
	 viewBox="0 0 490.2 490.2" style="enable-background:new 0 0 490.2 490.2;" xml:space="preserve">
<g>
	<g>
		<path d="M446.2,0.05H146c-24,0-43.8,19.8-43.8,43.8v39.6H41.7v-39.6c0-11.5-9.4-20.9-20.9-20.9S0,32.35,0,43.85v401.4
			c0,11.5,9.4,20.9,20.9,20.9c10.4,0,19.8-8.3,20.9-19.8v-39.6h60.5v39.6c0,24,19.8,43.8,43.8,43.8h300.3c24,0,43.8-19.8,43.8-44.8
			V43.85C490,19.85,470.2,0.05,446.2,0.05z M41.7,364.95v-239.8h60.5v239.8H41.7L41.7,364.95z M449.3,445.25c0,2.1-1,3.1-3.1,3.1
			H146c-2.1,0-3.1-1-3.1-3.1V43.85c0-2.1,1-3.1,3.1-3.1h300.3c2.1,0,3.1,1,3.1,3.1v401.4H449.3z"/>
		<path d="M296.1,237.75c41.7,0,77.1-34.4,77.1-77.1s-34.4-77.1-77.1-77.1s-77.1,34.4-77.1,77.1S253.3,237.75,296.1,237.75z
			 M296.1,125.15c19.8,0,35.4,16.7,35.4,36.5s-15.6,36.5-35.4,36.5s-35.4-16.7-35.4-36.5S276.3,125.15,296.1,125.15z"/>
		<path d="M296.1,255.45c-71.9,0-130.3,58.4-131.4,130.3c0,11.5,9.4,20.9,20.9,20.9h218.9c11.5,0,20.9-9.4,20.9-20.9
			C425.4,313.85,368,255.45,296.1,255.45z M209.6,364.95c8.3-39.6,44.8-68.8,86.5-68.8s77.1,29.2,86.5,68.8H209.6L209.6,364.95z"/>
	</g>
</g>
<g>
</g>
<g>
</g>
<g>
</g>
<g>
</g>
<g>
</g>
<g>
</g>
<g>
</g>
<g>
</g>
<g>
</g>
<g>
</g>
<g>
</g>
<g>
</g>
<g>
</g>
<g>
</g>
<g>
</g>
</svg>
