<?xml version="1.0" encoding="iso-8859-1"?>
<!-- Generator: Adobe Illustrator 19.0.0, SVG Export Plug-In . SVG Version: 6.00 Build 0)  -->
<svg version="1.1" id="Layer_1" xmlns="http://www.w3.org/2000/svg" xmlns:xlink="http://www.w3.org/1999/xlink" x="0px" y="0px"
	 viewBox="0 0 490.236 490.236" style="enable-background:new 0 0 490.236 490.236;" xml:space="preserve">
<g>
	<path d="M461.749,61.518l-32.8-32.8c-19-18-43.4-28.6-69.8-28.6c-26.5,0-50.8,9.5-69.8,28.6l-267.3,268.2
		c-4.3,3.8-8.5,13.3-8.3,18.1l-13.5,152.9c-2.6,19.2,15.9,22.2,21.2,22.2h1.1l157.6-12.7c6-0.4,12.1-5,14.4-8l267.1-268.2
		C499.749,163.118,499.749,99.618,461.749,61.518z M184.149,422.718c-33.6-61.1-84.7-97.2-115.8-114.9l210.3-209.3l115.3,114.3
		L184.149,422.718z M52.249,345.118c26.3,15.3,67.2,45.3,94.5,94l-103.1,8.7L52.249,345.118z M433.149,173.718l-10.6,10.6
		l-115.4-115.4l10.6-10.6c11.6-10.6,25.4-16.9,41.3-16.9s30.7,6.3,41.3,16.9l32.8,32.8
		C455.349,114.418,455.349,151.418,433.149,173.718z"/>
</g>
<g>
</g>
<g>
</g>
<g>
</g>
<g>
</g>
<g>
</g>
<g>
</g>
<g>
</g>
<g>
</g>
<g>
</g>
<g>
</g>
<g>
</g>
<g>
</g>
<g>
</g>
<g>
</g>
<g>
</g>
</svg>
