<?xml version="1.0" encoding="iso-8859-1"?>
<!-- Generator: Adobe Illustrator 19.0.0, SVG Export Plug-In . SVG Version: 6.00 Build 0)  -->
<svg version="1.1" id="Layer_1" xmlns="http://www.w3.org/2000/svg" xmlns:xlink="http://www.w3.org/1999/xlink" x="0px" y="0px"
	 viewBox="0 0 489.868 489.868" style="enable-background:new 0 0 489.868 489.868;" xml:space="preserve">
<g>
	<path d="M454.234,259.425l-198.3-198.2c-7.3-7.3-20.8-7.3-28,0l-19.7,19.7l-74.7-74.7c-7.3-8.3-19.7-8.3-28,0l-98.6,98.6
		c-9.9,9.9-6.9,23.2,0,29.1l74.2,74.2l-20.2,20.2c-8.3,7.3-8.3,19.7,0,28l198.3,198.3c31.9,35.3,110.8,57.4,168.2,0l27-27
		C500.934,380.925,500.934,306.225,454.234,259.425z M50.434,120.325l69.5-69.5l59.2,59.2l-69.6,69.6L50.434,120.325z
		 M427.234,400.625l-27,27c-25.3,25.3-78.6,35.1-112.1,0l-184.8-184.8l139.1-139.1l184.8,184.8
		C458.434,319.625,458.434,369.525,427.234,400.625z"/>
</g>
<g>
</g>
<g>
</g>
<g>
</g>
<g>
</g>
<g>
</g>
<g>
</g>
<g>
</g>
<g>
</g>
<g>
</g>
<g>
</g>
<g>
</g>
<g>
</g>
<g>
</g>
<g>
</g>
<g>
</g>
</svg>
