<?xml version="1.0" encoding="iso-8859-1"?>
<!-- Generator: Adobe Illustrator 19.0.0, SVG Export Plug-In . SVG Version: 6.00 Build 0)  -->
<svg version="1.1" id="Layer_1" xmlns="http://www.w3.org/2000/svg" xmlns:xlink="http://www.w3.org/1999/xlink" x="0px" y="0px"
	 viewBox="0 0 481.383 481.383" style="enable-background:new 0 0 481.383 481.383;" xml:space="preserve">
<g>
	<g>
		<path d="M190,108.841h-15.6v-88.3c0-10.4-8.3-19.7-19.7-19.7H55c-10.4,0-19.7,8.3-19.7,19.7v88.2H19.7c-10.4,0-19.7,8.3-19.7,19.7
			v247.2c0,58.1,46.7,104.9,104.9,104.9s104.8-46.8,104.8-104.9v-247.1C209.7,118.141,201.4,108.841,190,108.841z M74.8,40.241H135
			v68.5H74.8V40.241z M170.3,375.641c0,36.3-30.1,65.4-65.4,65.4c-36.3,0-65.4-30.1-65.4-65.4v-226.4h130.8V375.641z"/>
		<path d="M472.4,333.041l-142.3-93.4c-9.3-5.2-21.8-3.1-28,6.2l-46.7,70.6c-32.2,48.8-18.7,113.2,30.1,145.3
			c46.9,28.5,110.5,23.9,146.4-30.1l46.7-70.6C483.8,351.741,481.7,339.241,472.4,333.041z M396.6,409.841
			c-16.6,29.5-59.9,38-89.3,18.7c-30.1-19.7-38.4-60.2-18.7-90.3l35.3-54l108,71.6L396.6,409.841z"/>
	</g>
</g>
<g>
</g>
<g>
</g>
<g>
</g>
<g>
</g>
<g>
</g>
<g>
</g>
<g>
</g>
<g>
</g>
<g>
</g>
<g>
</g>
<g>
</g>
<g>
</g>
<g>
</g>
<g>
</g>
<g>
</g>
</svg>
