<?xml version="1.0" encoding="iso-8859-1"?>
<!-- Generator: Adobe Illustrator 19.0.0, SVG Export Plug-In . SVG Version: 6.00 Build 0)  -->
<svg version="1.1" id="Layer_1" xmlns="http://www.w3.org/2000/svg" xmlns:xlink="http://www.w3.org/1999/xlink" x="0px" y="0px"
	 viewBox="0 0 489.4 489.4" style="enable-background:new 0 0 489.4 489.4;" xml:space="preserve">
<g>
	<g>
		<path d="M461.499,61.8c-60.9-58.4-127.8-22.7-144.6-4.1c-55.7,61.7-15.6,122.8,4.2,143.6c-34.3,61.4-52,78-120.7,119.6
			c-51.3-56.7-168.5-38-172.7,64.5c-1.1,28.1,24.3,104,99.9,104c23.9,0,48.9-8.3,67.6-14.6c206.1-82.6,266.6-250.2,278.8-277.8
			C490.599,153.4,502.099,102.4,461.499,61.8z M436.499,181.5c-9,20-72.1,182.9-254.9,253.8c-15.6,6.2-36.4,12.5-54.1,12.5
			c-46,0-59.3-45.8-59.3-62.4c0-65.4,79.7-69.9,110.3-28.1c6.2,8.3,17.7,10.4,27,5.2c93.6-55.1,112.4-73.9,159.2-158.1
			c4.2-8.3,2.1-19.8-6.2-26c-3.1-2.1-53.5-48.5-12.5-93.6c10.4-10.5,47.7-31.4,87.4,4.1C453.199,108.6,454.199,134.6,436.499,181.5z
			"/>
		<path d="M117.199,234c64.5,0,117-52.5,117-117s-52.5-117-117-117s-117,52.5-117,117S52.599,234,117.199,234z M193.199,117
			c0,41.9-34.1,76-76,76c-13.5,0-26.2-3.5-37.2-9.7l103.4-103.5C189.599,90.8,193.199,103.5,193.199,117z M117.199,40.9
			c13.5,0,26.2,3.5,37.2,9.7l-103.5,103.5c-6.2-11-9.7-23.7-9.7-37.2C41.099,75,75.199,40.9,117.199,40.9z"/>
	</g>
</g>
<g>
</g>
<g>
</g>
<g>
</g>
<g>
</g>
<g>
</g>
<g>
</g>
<g>
</g>
<g>
</g>
<g>
</g>
<g>
</g>
<g>
</g>
<g>
</g>
<g>
</g>
<g>
</g>
<g>
</g>
</svg>
