<?xml version="1.0" encoding="iso-8859-1"?>
<!-- Generator: Adobe Illustrator 19.0.0, SVG Export Plug-In . SVG Version: 6.00 Build 0)  -->
<svg version="1.1" id="Layer_1" xmlns="http://www.w3.org/2000/svg" xmlns:xlink="http://www.w3.org/1999/xlink" x="0px" y="0px"
	 viewBox="0 0 490.202 490.202" style="enable-background:new 0 0 490.202 490.202;" xml:space="preserve">
<g>
	<g>
		<path d="M197.9,236.851v-122.9c0-11.5-9.4-20.8-20.8-20.8h-13.5v-28.2c0-35.4-29.2-64.6-65.6-64.6c-35.4,0-64.6,29.2-64.6,64.6
			v28.1H20.8c-11.5,0-20.8,9.4-20.8,20.8v121.9c0,11.5,9.4,20.8,20.8,20.8h156.3C188.5,256.651,197.9,248.251,197.9,236.851z
			 M75,64.951c0-13.5,11.5-24,25-24s24,10.4,24,24v28.1H75C75,93.051,75,64.951,75,64.951z M156.2,215.951H41.7v-82.3h114.6v82.3
			H156.2z"/>
		<path d="M462.5,62.351c-60.9-58.4-127.8-22.7-144.6-4.2c-55.7,61.7-15.6,122.8,4.2,143.6c-34.3,61.4-52,78-120.7,119.6
			c-51.3-56.7-168.5-38-172.7,64.5c-1.1,28.1,24.3,104,99.9,104c23.9,0,48.9-8.3,67.6-14.6c206.1-82.5,266.6-250.1,278.8-277.6
			C491.6,153.951,503.1,102.951,462.5,62.351z M437.5,181.951c-9,20-72.1,182.9-254.9,253.8c-15.6,6.2-36.4,12.5-54.1,12.5
			c-46,0-59.3-45.8-59.3-62.4c0-65.4,79.7-69.9,110.3-28.1c6.2,8.3,17.7,10.4,27,5.2c93.6-55.1,112.4-73.9,159.2-158.1
			c4.2-8.3,2.1-19.8-6.2-26c-3.1-2.1-53.5-48.5-12.5-93.6c10.4-10.4,47.7-31.3,87.4,4.2C454.2,109.151,455.2,135.151,437.5,181.951z
			"/>
	</g>
</g>
<g>
</g>
<g>
</g>
<g>
</g>
<g>
</g>
<g>
</g>
<g>
</g>
<g>
</g>
<g>
</g>
<g>
</g>
<g>
</g>
<g>
</g>
<g>
</g>
<g>
</g>
<g>
</g>
<g>
</g>
</svg>
