<?xml version="1.0" encoding="iso-8859-1"?>
<!-- Generator: Adobe Illustrator 19.0.0, SVG Export Plug-In . SVG Version: 6.00 Build 0)  -->
<svg version="1.1" id="Layer_1" xmlns="http://www.w3.org/2000/svg" xmlns:xlink="http://www.w3.org/1999/xlink" x="0px" y="0px"
	 viewBox="0 0 489.8 489.8" style="enable-background:new 0 0 489.8 489.8;" xml:space="preserve">
<g>
	<path d="M435.6,265.7c11.5,0,20.8-9.4,20.8-20.8s-9.4-20.8-20.8-20.8h-3.1v-46.9h3.1c11.5,0,20.8-9.4,20.8-20.8
		s-9.4-20.8-20.8-20.8h-3.1V20.8c0-11.5-9.4-20.8-20.8-20.8H54.2C42.7,0,33.4,9.4,33.4,20.8V469c0,11.5,9.4,20.8,20.8,20.8h357.5
		c11.5,0,20.8-9.4,20.8-19.8V353.3h3.1c11.5,0,19.8-9.4,20.8-20.8c0-11.5-9.4-20.8-20.8-20.8h-3.1v-45.9h3.1V265.7z M390.8,311.6
		h-47.9c-11.5,0-20.8,9.4-20.8,20.8s9.4,20.8,20.8,20.8h47.9v95.9H75V40.6h315.8v94.8h-47.9c-11.5,0-20.8,9.4-20.8,20.8
		s9.4,20.8,20.8,20.8h47.9v46.9h-47.9c-11.5,0-20.8,9.4-20.8,20.8s9.4,20.8,20.8,20.8h47.9V311.6z"/>
</g>
<g>
</g>
<g>
</g>
<g>
</g>
<g>
</g>
<g>
</g>
<g>
</g>
<g>
</g>
<g>
</g>
<g>
</g>
<g>
</g>
<g>
</g>
<g>
</g>
<g>
</g>
<g>
</g>
<g>
</g>
</svg>
