<?xml version="1.0" encoding="iso-8859-1"?>
<!-- Generator: Adobe Illustrator 19.0.0, SVG Export Plug-In . SVG Version: 6.00 Build 0)  -->
<svg version="1.1" id="Layer_1" xmlns="http://www.w3.org/2000/svg" xmlns:xlink="http://www.w3.org/1999/xlink" x="0px" y="0px"
	 viewBox="0 0 487.8 487.8" style="enable-background:new 0 0 487.8 487.8;" xml:space="preserve">
<g>
	<g>
		<path d="M450.95,104.3c-7.9-7.7-18.2-20.1-18.2-32.4c0-11.4,9.7-21.1,25-34.3c19.1-16.8,4.6-37.6-11.6-37.6H96.65
			c-42.7,0-78,33.3-78,72.8c0,1.3,0,328.7,0,328.7c0,47.9,41.6,86.3,92.6,86.3h335c11.4,0,19.8-9.4,22.9-20.8V124.9
			C469.05,114.3,461.15,105.6,450.95,104.3z M96.65,39.6l303.2,0.1c-5.2,9.4-7.8,20.6-7.8,31.1c0,12.5,4.2,23.9,9.4,34.3H96.65
			c-20.8,0-37.5-15.6-37.5-33.3S75.85,39.6,96.65,39.6z M173.85,447.4c2.8-32.9,31.8-58.3,68.4-58.3c35.6,0,65.5,25.4,68.4,58.3
			H173.85z M427.45,447.4h-75c-2.9-54.8-51.6-98.8-110.1-98.8c-59.5,0-107.3,44-110.1,98.8h-19.9c-29.1,0-52-20.8-52-45.8V137
			c10.9,5.5,23.3,8.6,36.4,8.6h330.8v301.8H427.45z"/>
		<path d="M242.25,327.7c40.6,0,72.8-33.3,72.8-72.8s-32.3-72.8-72.8-72.8c-39.5,0-72.8,32.3-72.8,72.8
			C169.45,294.5,201.75,327.7,242.25,327.7z M242.25,221.6c17.7,0,32.3,14.6,32.3,32.3s-14.6,32.3-32.3,32.3s-32.3-14.6-32.3-32.3
			C210.05,236.2,224.65,221.6,242.25,221.6z"/>
	</g>
</g>
<g>
</g>
<g>
</g>
<g>
</g>
<g>
</g>
<g>
</g>
<g>
</g>
<g>
</g>
<g>
</g>
<g>
</g>
<g>
</g>
<g>
</g>
<g>
</g>
<g>
</g>
<g>
</g>
<g>
</g>
</svg>
