<?xml version="1.0" encoding="iso-8859-1"?>
<!-- Generator: Adobe Illustrator 19.0.0, SVG Export Plug-In . SVG Version: 6.00 Build 0)  -->
<svg version="1.1" id="Layer_1" xmlns="http://www.w3.org/2000/svg" xmlns:xlink="http://www.w3.org/1999/xlink" x="0px" y="0px"
	 viewBox="0 0 489.901 489.901" style="enable-background:new 0 0 489.901 489.901;" xml:space="preserve">
<g>
	<g>
		<path d="M469.2,100.4H211.4l-16.8-53.1c-3.1-8.3-10.4-14.6-19.8-14.6H94.7c-9.4,0-16.6,6.2-19.8,14.6l-16.3,53.1H20.8
			C9.4,100.4,0,109.8,0,121.2v315.2c0,11.4,9.4,20.8,20.8,20.8h447.3c11.4,0,20.8-9.4,21.8-19.8V121.2
			C490,109.8,480.6,100.4,469.2,100.4z M109.2,73.3h49.9l8.3,27h-66.6L109.2,73.3z M448.4,416.7H40.6V141h407.8V416.7z"/>
		<path d="M300.7,384.4c58.3,0,105.1-47.9,105.1-105.1c0-58.3-46.8-105.1-105.1-105.1S195.6,221,195.6,279.3
			S242.4,384.4,300.7,384.4z M300.7,214.8c35.4,0,64.5,29.1,64.5,64.5s-29.1,64.5-64.5,64.5s-64.5-29.1-64.5-64.5
			C236.2,244,265.3,214.8,300.7,214.8z"/>
	</g>
</g>
<g>
</g>
<g>
</g>
<g>
</g>
<g>
</g>
<g>
</g>
<g>
</g>
<g>
</g>
<g>
</g>
<g>
</g>
<g>
</g>
<g>
</g>
<g>
</g>
<g>
</g>
<g>
</g>
<g>
</g>
</svg>
