<?xml version="1.0" encoding="iso-8859-1"?>
<!-- Generator: Adobe Illustrator 19.0.0, SVG Export Plug-In . SVG Version: 6.00 Build 0)  -->
<svg version="1.1" id="Layer_1" xmlns="http://www.w3.org/2000/svg" xmlns:xlink="http://www.w3.org/1999/xlink" x="0px" y="0px"
	 viewBox="0 0 490.4 490.4" style="enable-background:new 0 0 490.4 490.4;" xml:space="preserve">
<g>
	<g>
		<g>
			<g>
				<path d="M450.9,473.3H38.3C17,473.3,0,456.3,0,436.1V110.7c0-20.2,17-36.2,38.3-36.2h89.3c2.1,0,3.2-2.1,4.3-3.2
					c17-33,60.6-54.2,111.7-54.2s94.7,21.3,111.7,54.2c2.1,1.1,4.3,3.2,6.4,3.2h90.4c21.3,0,38.3,16,38.3,37.2v324.4
					C489.2,456.3,472.2,473.3,450.9,473.3z M40.4,432.9h408.4v-318h-87.2c-17,0-33-9.6-40.4-25.5c-8.5-16-37.2-31.9-75.5-31.9
					s-68.1,16-75.5,31.9c-8.5,16-23.4,25.5-40.4,25.5H40.4V432.9z"/>
			</g>
			<g>
				<path d="M244.6,393.6c-64.9,0-118-53.2-118-118s53.2-118,118-118s118,53.2,118,118S309.4,393.6,244.6,393.6z M244.6,197.9
					c-42.5,0-77.6,35.1-77.6,77.6s35.1,77.6,77.6,77.6s77.6-35.1,77.6-77.6S287.1,197.9,244.6,197.9z"/>
			</g>
			<g>
				<path d="M112.7,181.9H80.8c-11.7,0-20.2-9.6-20.2-20.2c0-10.6,9.6-20.2,20.2-20.2h31.9c11.7,0,20.2,9.6,20.2,20.2
					C132.9,172.4,124.4,181.9,112.7,181.9z"/>
			</g>
		</g>
	</g>
</g>
<g>
</g>
<g>
</g>
<g>
</g>
<g>
</g>
<g>
</g>
<g>
</g>
<g>
</g>
<g>
</g>
<g>
</g>
<g>
</g>
<g>
</g>
<g>
</g>
<g>
</g>
<g>
</g>
<g>
</g>
</svg>
