<?xml version="1.0" encoding="iso-8859-1"?>
<!-- Generator: Adobe Illustrator 19.0.0, SVG Export Plug-In . SVG Version: 6.00 Build 0)  -->
<svg version="1.1" id="Layer_1" xmlns="http://www.w3.org/2000/svg" xmlns:xlink="http://www.w3.org/1999/xlink" x="0px" y="0px"
	 viewBox="0 0 489.901 489.901" style="enable-background:new 0 0 489.901 489.901;" xml:space="preserve">
<g>
	<g>
		<path d="M244.5,403.1c66.6,0,120.7-54.1,120.7-120.7s-54.1-120.7-120.7-120.7s-120.7,54.1-120.7,120.7S177.9,403.1,244.5,403.1z
			 M244.5,203.4c43.7,0,80.1,35.4,80.1,80.1s-36.4,80.1-80.1,80.1c-44.7,0-80.1-36.4-80.1-80.1C164.4,238.8,200.8,203.4,244.5,203.4
			z"/>
		<path d="M469.2,80.6H343.6l-20.1-65.5c-3.1-8.3-10.4-14.6-19.8-14.6H186.2c-9.4,0-16.6,6.2-19.8,14.6l-20.2,65.5H20.8
			C9.4,80.6,0,90,0,101.4v367.2c0,11.4,9.4,20.8,20.8,20.8h447.3c11.4,0,20.8-9.4,21.8-20.8V101.4C490,90,480.6,80.6,469.2,80.6z
			 M200.8,41.1h87.4l12.2,39.5H188.6L200.8,41.1z M448.4,448.9H40.6V122.2h407.8V448.9z"/>
	</g>
</g>
<g>
</g>
<g>
</g>
<g>
</g>
<g>
</g>
<g>
</g>
<g>
</g>
<g>
</g>
<g>
</g>
<g>
</g>
<g>
</g>
<g>
</g>
<g>
</g>
<g>
</g>
<g>
</g>
<g>
</g>
</svg>
