<?xml version="1.0" encoding="iso-8859-1"?>
<!-- Generator: Adobe Illustrator 19.0.0, SVG Export Plug-In . SVG Version: 6.00 Build 0)  -->
<svg version="1.1" id="Layer_1" xmlns="http://www.w3.org/2000/svg" xmlns:xlink="http://www.w3.org/1999/xlink" x="0px" y="0px"
	 viewBox="0 0 487.9 487.9" style="enable-background:new 0 0 487.9 487.9;" xml:space="preserve">
<g>
	<g>
		<path d="M433.3,104.05v-17c0-26.2-21-47.2-47.2-47.2h-12.6c-26.2,0-47.2,21-47.2,47.2v14.7h-73.4v-81.8c0-10.5-8.4-19.9-19.9-19.9
			H97.5c-10.5-0.1-19.9,8.3-19.9,19.9v81.8h-5.2c-39.9,0-72.4,32.5-72.4,72.4v241.3c0,39.9,32.5,72.4,72.4,72.4h342.1
			c40.9,0,73.4-32.5,73.4-72.4v-241.3C487.9,140.45,464.6,111.95,433.3,104.05z M118.5,39.85h94.4v60.9h-94.4
			C118.5,100.75,118.5,39.85,118.5,39.85z M365.1,87.05c0-3.1,3.1-6.3,6.3-6.3H384c3.1,0,6.3,3.1,6.3,6.3v13.6h-24.1h-1v-13.6H365.1
			z M446.9,414.45c0,16.8-13.6,31.5-31.5,31.5H72.3c-16.7,0-31.4-13.7-31.4-31.5v-241.3c0-16.8,13.6-31.5,31.5-31.5h343.1
			c16.8,0,31.5,13.6,31.5,31.5v241.3H446.9z"/>
		<path d="M243.4,167.85c-68.2,0-124.9,55.6-124.9,125.9s56.7,127,124.9,127s124.9-55.6,124.9-125.9S311.6,167.85,243.4,167.85z
			 M243.4,379.85c-46.2,0-83.9-38.8-83.9-86s37.8-86,83.9-86s83.9,38.8,83.9,86S289.5,379.85,243.4,379.85z"/>
	</g>
</g>
<g>
</g>
<g>
</g>
<g>
</g>
<g>
</g>
<g>
</g>
<g>
</g>
<g>
</g>
<g>
</g>
<g>
</g>
<g>
</g>
<g>
</g>
<g>
</g>
<g>
</g>
<g>
</g>
<g>
</g>
</svg>
