<?xml version="1.0" encoding="iso-8859-1"?>
<!-- Generator: Adobe Illustrator 19.0.0, SVG Export Plug-In . SVG Version: 6.00 Build 0)  -->
<svg version="1.1" id="Layer_1" xmlns="http://www.w3.org/2000/svg" xmlns:xlink="http://www.w3.org/1999/xlink" x="0px" y="0px"
	 viewBox="0 0 490.5 490.5" style="enable-background:new 0 0 490.5 490.5;" xml:space="preserve">
<g>
	<g>
		<path d="M469.6,0.55H20.8C9.3,0.55,0,9.95,0,21.35v447.8c0,11.5,9.4,20.8,20.8,20.8h447.8c11.5,0,20.8-9.4,21.9-19.8V21.35
			C490.4,9.85,481.1,0.55,469.6,0.55z M41.3,449.35l116.9-230.7l53.1,133.3c6.4,13.6,21.7,19.2,34.4,5.2l56.2-69.8l121.5,162
			L41.3,449.35L41.3,449.35z M448.8,415.65l-129.1-173c-11.1-11.1-21.1-12.2-32.3-1l-51,62.5l-57.3-142.8
			c-6.9-16.4-25.9-19.8-36.4-1L40.5,361.45V41.15h408.2v374.5H448.8z"/>
		<path d="M324.8,196.35c33.3,0,60.4-27.1,60.4-60.4s-27.1-60.4-60.4-60.4s-60.4,27.1-60.4,60.4S291.5,196.35,324.8,196.35z
			 M324.8,116.15c11.5,0,19.8,8.3,19.8,19.8c0,10.4-8.3,19.8-19.8,19.8c-10.4,0-19.8-8.3-19.8-19.8
			C305.1,125.45,313.4,116.15,324.8,116.15z"/>
	</g>
</g>
<g>
</g>
<g>
</g>
<g>
</g>
<g>
</g>
<g>
</g>
<g>
</g>
<g>
</g>
<g>
</g>
<g>
</g>
<g>
</g>
<g>
</g>
<g>
</g>
<g>
</g>
<g>
</g>
<g>
</g>
</svg>
