<?xml version="1.0" encoding="iso-8859-1"?>
<!-- Generator: Adobe Illustrator 19.0.0, SVG Export Plug-In . SVG Version: 6.00 Build 0)  -->
<svg version="1.1" id="Layer_1" xmlns="http://www.w3.org/2000/svg" xmlns:xlink="http://www.w3.org/1999/xlink" x="0px" y="0px"
	 viewBox="0 0 490.5 490.5" style="enable-background:new 0 0 490.5 490.5;" xml:space="preserve">
<g>
	<g>
		<path d="M309.2,231.75c41.7,0,75-34.4,75-75c0-41.7-33.3-75-75-75s-75,33.3-75,75S267.6,231.75,309.2,231.75z M309.2,122.35
			c18.7,0,34.4,14.6,34.4,34.4c0,18.7-15.6,34.4-34.4,34.4s-34.4-15.6-34.4-34.4S290.5,122.35,309.2,122.35z"/>
		<path d="M469.6,0.55H20.8C9.3,0.55,0,9.95,0,21.35v447.8c0,11.5,9.4,20.8,20.8,20.8h447.8c11.5,0,20.8-9.4,21.9-19.8V21.35
			C490.4,9.85,481.1,0.55,469.6,0.55z M69.1,449.35c0,0,60.4-81,106.2-94.8c23.2-7,49.2-4.5,70.5,6.4c-31.8,31-70.2,86.3-71.5,88.4
			L69.1,449.35L69.1,449.35z M448.8,449.35H225.5c36.3-50.6,111.5-140.4,223.3-125.3V449.35z M448.8,282.75
			c-70.1-8.2-127.2,17.1-171.2,50.6c-32.8-22.2-75.8-27.8-114.8-17.3c-57.5,15.4-122.2,102.7-122.2,102.7V41.15h408.2V282.75z"/>
	</g>
</g>
<g>
</g>
<g>
</g>
<g>
</g>
<g>
</g>
<g>
</g>
<g>
</g>
<g>
</g>
<g>
</g>
<g>
</g>
<g>
</g>
<g>
</g>
<g>
</g>
<g>
</g>
<g>
</g>
<g>
</g>
</svg>
