<?xml version="1.0" encoding="iso-8859-1"?>
<!-- Generator: Adobe Illustrator 19.0.0, SVG Export Plug-In . SVG Version: 6.00 Build 0)  -->
<svg version="1.1" id="Layer_1" xmlns="http://www.w3.org/2000/svg" xmlns:xlink="http://www.w3.org/1999/xlink" x="0px" y="0px"
	 viewBox="0 0 489.529 489.529" style="enable-background:new 0 0 489.529 489.529;" xml:space="preserve">
<g>
	<g>
		<path d="M0.429,285.688c-7.9-116.3,94.7-217.4,202.9-217.4c11.4-1,20.8,8.3,20.8,19.8l6.2,169.6l170.6-6.2
			c11.4-1,20.8,8.3,20.8,19.8c0,170.5-142.1,217.8-202.9,217.4C181.129,492.088,20.829,477.288,0.429,285.688z M185.629,110.988
			c-87.8,14.4-147.5,93.1-143.6,173.7c3.1,93.6,81.2,167.5,175.8,164.4c45.8-2.1,149.2-31.8,163.3-156.1l-168.5,6.2
			c-11.4,1-20.8-8.3-20.8-19.8L185.629,110.988z"/>
		<path d="M278.229,231.588c-10.4,0-19.8-8.3-20.8-19.8l-6.2-190.4c0-5.2,3.5-20.8,19.8-20.8c117.6-4.2,214.3,86.3,218.5,202.9
			c-1.2,17.3-13.5,20.8-19.8,20.8L278.229,231.588C279.229,231.588,278.229,231.588,278.229,231.588z M292.729,42.288l5.2,148.8
			l148.8-5.2C435.329,107.788,371.829,48.488,292.729,42.288z"/>
	</g>
</g>
<g>
</g>
<g>
</g>
<g>
</g>
<g>
</g>
<g>
</g>
<g>
</g>
<g>
</g>
<g>
</g>
<g>
</g>
<g>
</g>
<g>
</g>
<g>
</g>
<g>
</g>
<g>
</g>
<g>
</g>
</svg>
