<?xml version="1.0" encoding="iso-8859-1"?>
<!-- Generator: Adobe Illustrator 19.0.0, SVG Export Plug-In . SVG Version: 6.00 Build 0)  -->
<svg version="1.1" id="Layer_1" xmlns="http://www.w3.org/2000/svg" xmlns:xlink="http://www.w3.org/1999/xlink" x="0px" y="0px"
	 viewBox="0 0 490 490" style="enable-background:new 0 0 490 490;" xml:space="preserve">
<g>
	<g>
		<g>
			<g>
				<path d="M17.797,301.5c-21.3-49-23.4-104.4-6.4-154.5c30.9-87.3,112.9-147,206.7-147c23.4,0,46.9,4.3,69.2,11.7
					c5.3,2.1,17,9.2,12.8,26.6l-62.8,185.3c-2.1,5.3-6.4,9.6-11.7,11.7l-180.1,76.8C42.297,313.2,27.697,319.9,17.797,301.5z
					 M218.097,40.5c-75.6,0-142.7,47.9-167.2,119.3c-11.7,34.1-12.8,71.4-2.1,106.5l152.3-65l53.3-156.6
					C242.597,42.6,229.797,40.5,218.097,40.5z"/>
			</g>
			<g>
				<path d="M273.497,490L273.497,490c-23.4,0-134.5-3-199.2-131c-2.1-5.3-4-19.7,10.7-26.6l172.5-73.6l60.7-176.8
					c3.2-10.7,14.9-16,25.6-12.8c167.2,64.3,154.5,220.5,135.3,274.8C449.197,430.3,366.097,490,273.497,490z M121.097,361.1
					c49.7,82.1,133.2,88.4,152.3,88.4c75.6,0,142.7-47.9,166.2-119.3c14.9-44.7,25.4-153.9-90.5-215.2l-56.5,165.1
					c-2.1,5.3-6.4,9.6-11.7,11.7L121.097,361.1z"/>
			</g>
		</g>
	</g>
</g>
<g>
</g>
<g>
</g>
<g>
</g>
<g>
</g>
<g>
</g>
<g>
</g>
<g>
</g>
<g>
</g>
<g>
</g>
<g>
</g>
<g>
</g>
<g>
</g>
<g>
</g>
<g>
</g>
<g>
</g>
</svg>
