<?xml version="1.0" encoding="iso-8859-1"?>
<!-- Generator: Adobe Illustrator 19.0.0, SVG Export Plug-In . SVG Version: 6.00 Build 0)  -->
<svg version="1.1" id="Layer_1" xmlns="http://www.w3.org/2000/svg" xmlns:xlink="http://www.w3.org/1999/xlink" x="0px" y="0px"
	 viewBox="0 0 491.5 491.5" style="enable-background:new 0 0 491.5 491.5;" xml:space="preserve">
<g>
	<g>
		<path d="M280.7,231.95h189.6c11.7,0,20.1-9.5,21.2-20.1c0-116.5-95.3-210.8-210.8-210.8c-10.6,0-20.1,8.5-20.1,20.1v190.7
			C260.5,222.45,269,231.95,280.7,231.95z M300.8,42.35c77.3,9.5,138.8,71,148.3,148.3H300.8V42.35z"/>
		<path d="M230.9,21.15c0-10.6-8.5-20.1-20.1-20.1C95.3,1.05,1.1,95.35,1.1,211.85c0,10.6,8.5,20.1,20.1,20.1h189.5
			c11.7,0,21.2-9.5,20.1-21.2V21.15H230.9z M191.7,190.65H43.4c8.5-77.3,69.9-138.7,148.3-148.3L191.7,190.65L191.7,190.65z"/>
		<path d="M470.3,260.55H280.7c-10.6,0-20.1,8.5-20.1,20.1v189.6c0,10.6,8.5,20.1,20.1,20.1c115.5,0,209.7-94.3,209.7-209.7
			C490.4,270.15,481.9,260.55,470.3,260.55z M300.8,449.15v-148.3h148.3C439.5,378.15,378.1,439.55,300.8,449.15z"/>
		<path d="M229.8,279.65c0-10.6-8.5-20.1-20.1-20.1H20.1c-10.6,0-20.1,8.5-20.1,20.1c0,116.5,95.3,210.8,210.8,210.8
			c11.7,0,21.2-8.5,19.1-21.2v-189.6H229.8z M191.7,449.15c-77.3-9.5-138.8-71-148.3-148.3h148.3V449.15z"/>
	</g>
</g>
<g>
</g>
<g>
</g>
<g>
</g>
<g>
</g>
<g>
</g>
<g>
</g>
<g>
</g>
<g>
</g>
<g>
</g>
<g>
</g>
<g>
</g>
<g>
</g>
<g>
</g>
<g>
</g>
<g>
</g>
</svg>
