<?xml version="1.0" encoding="iso-8859-1"?>
<!-- Generator: Adobe Illustrator 19.0.0, SVG Export Plug-In . SVG Version: 6.00 Build 0)  -->
<svg version="1.1" id="Layer_1" xmlns="http://www.w3.org/2000/svg" xmlns:xlink="http://www.w3.org/1999/xlink" x="0px" y="0px"
	 viewBox="0 0 489.8 489.8" style="enable-background:new 0 0 489.8 489.8;" xml:space="preserve">
<g>
	<g>
		<path d="M212.6,458.45C94.9,458.45,0,362.55,0,244.85s94.9-213.6,212.6-213.6c11.5,0,20.8,9.4,20.8,20.8v387.6
			C232.4,450.15,223,458.45,212.6,458.45z M191.8,72.95c-84.4,10.4-151.1,83.3-151.1,171.9s65.6,161.5,151.1,171.9V72.95
			L191.8,72.95z"/>
		<path d="M468.9,234.45H277.2c-11.5,0-20.8-9.4-20.8-20.8V20.85c0-11.5,9.4-20.8,20.8-20.8c116.7,0,212.6,95.9,212.6,213.6
			C489.8,225.05,480.4,234.45,468.9,234.45z M298,193.75h150c-9.4-79.2-71.9-141.7-150-151.1V193.75z"/>
		<path d="M277.2,489.75c-11.5,0-20.8-9.4-20.8-20.8v-192.8c0-11.5,9.4-20.8,20.8-20.8h191.7c11.5,0,20.8,9.4,20.8,20.8
			C489.8,393.85,394.9,489.75,277.2,489.75z M298,295.95v151.1c78.1-9.4,140.7-71.9,150-151.1H298L298,295.95z"/>
	</g>
</g>
<g>
</g>
<g>
</g>
<g>
</g>
<g>
</g>
<g>
</g>
<g>
</g>
<g>
</g>
<g>
</g>
<g>
</g>
<g>
</g>
<g>
</g>
<g>
</g>
<g>
</g>
<g>
</g>
<g>
</g>
</svg>
