<?xml version="1.0" encoding="iso-8859-1"?>
<!-- Generator: Adobe Illustrator 19.0.0, SVG Export Plug-In . SVG Version: 6.00 Build 0)  -->
<svg version="1.1" id="Layer_1" xmlns="http://www.w3.org/2000/svg" xmlns:xlink="http://www.w3.org/1999/xlink" x="0px" y="0px"
	 viewBox="0 0 488.608 488.608" style="enable-background:new 0 0 488.608 488.608;" xml:space="preserve">
<g>
	<g>
		<g>
			<g>
				<path d="M207.904,468.1c-48.9-83.2-132.1-233-132.1-299.6c0-92.6,75.9-168.5,168.5-168.5s168.5,75.9,168.5,168.5
					c0,66.6-83.2,216.4-132.1,299.6C261.704,497.6,223.104,493.2,207.904,468.1z M244.304,40.5c-70.7,0-128,57.2-128,128
					c0,40.6,46.8,144.6,126.9,278.8c0,1,2.1,1,2.1,0c79.1-134.2,127-238.3,127-278.8C372.304,97.7,315.004,40.5,244.304,40.5z"/>
			</g>
			<g>
				<path d="M244.304,226.7c-38.5,0-69.7-31.2-69.7-69.7s31.2-68.7,69.7-68.7s69.7,31.2,69.7,69.7S282.804,226.7,244.304,226.7z
					 M244.304,128.9c-15.6,0-29.1,12.5-29.1,29.1s12.5,29.1,29.1,29.1s29.1-12.5,29.1-29.1S259.904,128.9,244.304,128.9z"/>
			</g>
		</g>
	</g>
</g>
<g>
</g>
<g>
</g>
<g>
</g>
<g>
</g>
<g>
</g>
<g>
</g>
<g>
</g>
<g>
</g>
<g>
</g>
<g>
</g>
<g>
</g>
<g>
</g>
<g>
</g>
<g>
</g>
<g>
</g>
</svg>
