<?xml version="1.0" encoding="iso-8859-1"?>
<!-- Generator: Adobe Illustrator 19.0.0, SVG Export Plug-In . SVG Version: 6.00 Build 0)  -->
<svg version="1.1" id="Layer_1" xmlns="http://www.w3.org/2000/svg" xmlns:xlink="http://www.w3.org/1999/xlink" x="0px" y="0px"
	 viewBox="0 0 488.943 488.943" style="enable-background:new 0 0 488.943 488.943;" xml:space="preserve">
<g>
	<g>
		<g>
			<g>
				<path d="M228.872,481.7c-17.7-19.8-175.8-199.7-175.8-296.5c0-102,86.3-185.2,191.4-185.2s191.4,83.2,191.4,185.2
					c0,96.8-158.1,276.7-175.8,296.5C255.872,486.9,242.172,495,228.872,481.7z M244.472,40.6c-83.2,0-149.8,64.5-149.8,144.6
					c0,61.4,97.8,189.3,149.8,251.8c53.1-62.4,149.8-190.4,149.8-251.8C394.272,106.1,327.672,40.6,244.472,40.6z"/>
			</g>
			<g>
				<path d="M280.872,179h-73.9c-11.4,0-20.8-9.4-20.8-20.8s9.4-20.8,20.8-20.8h73.9c11.4,0,20.8,9.4,20.8,20.8
					C301.672,170.6,292.372,179,280.872,179z"/>
			</g>
		</g>
	</g>
</g>
<g>
</g>
<g>
</g>
<g>
</g>
<g>
</g>
<g>
</g>
<g>
</g>
<g>
</g>
<g>
</g>
<g>
</g>
<g>
</g>
<g>
</g>
<g>
</g>
<g>
</g>
<g>
</g>
<g>
</g>
</svg>
