<?xml version="1.0" encoding="iso-8859-1"?>
<!-- Generator: Adobe Illustrator 19.0.0, SVG Export Plug-In . SVG Version: 6.00 Build 0)  -->
<svg version="1.1" id="Layer_1" xmlns="http://www.w3.org/2000/svg" xmlns:xlink="http://www.w3.org/1999/xlink" x="0px" y="0px"
	 viewBox="0 0 490 490" style="enable-background:new 0 0 490 490;" xml:space="preserve">
<g>
	<g>
		<g>
			<g>
				<path d="M230.3,435.3C214.5,419.5,75.7,277.6,75.7,181.9C75.7,82,151.4,0,245,0s169.3,82,169.3,181.9
					c0,94.6-138.8,236.6-154.6,253.4C255.5,439.5,242.1,447.1,230.3,435.3z M245,41c-70.5,0-128.3,63.1-128.3,142
					c0,58.9,83.1,159.8,128.3,209.2c46.3-49.4,128.3-149.3,128.3-209.2C373.3,104.1,315.5,41,245,41z"/>
			</g>
			<g>
				<path d="M245,246.1c-42.1,0-76.8-34.7-76.8-76.8s34.7-76.8,76.8-76.8s76.8,34.7,76.8,76.8S287.1,246.1,245,246.1z M245,132.6
					c-20,0-36.8,16.8-36.8,36.8s16.8,36.8,36.8,36.8s36.8-16.8,36.8-36.8C281.8,148.3,265,132.6,245,132.6z"/>
			</g>
			<g>
				<path d="M345.9,490H144.1c-11.6,0-20-9.5-20-20s9.5-20,20-20H347c11.6,0,20,9.5,20,20S357.5,490,345.9,490z"/>
			</g>
		</g>
	</g>
</g>
<g>
</g>
<g>
</g>
<g>
</g>
<g>
</g>
<g>
</g>
<g>
</g>
<g>
</g>
<g>
</g>
<g>
</g>
<g>
</g>
<g>
</g>
<g>
</g>
<g>
</g>
<g>
</g>
<g>
</g>
</svg>
