<?xml version="1.0" encoding="iso-8859-1"?>
<!-- Generator: Adobe Illustrator 19.0.0, SVG Export Plug-In . SVG Version: 6.00 Build 0)  -->
<svg version="1.1" id="Layer_1" xmlns="http://www.w3.org/2000/svg" xmlns:xlink="http://www.w3.org/1999/xlink" x="0px" y="0px"
	 viewBox="0 0 488.7 488.7" style="enable-background:new 0 0 488.7 488.7;" xml:space="preserve">
<g>
	<path d="M424.3,127h-44.4V20.1c0-10.6-8.5-20.1-20.1-20.1c-10.6,0-20.1,8.5-20.1,20.1V127H149.2V20.1c0-11.6-9.5-20.1-20.1-20.1
		S109,8.5,109,20.1V127H64.5C29.6,127,0,155.6,0,191.5v3.2c0,26.5,16.5,50,40.2,59.7v49.2c0,101.6,82.5,185.1,185.1,185.1h38.1
		c102.6,0,186.2-82.5,185.1-185.1v-49.7c23.6-10.1,40.2-33.5,40.2-60.8v-1.6C488.8,156.6,460.2,127,424.3,127z M408.4,303.6
		c0,80.4-65.6,144.9-144.9,144.9h-38.1c-80.5,0.1-145-65.5-145-144.9v-44.4h328V303.6z M448.6,194.1c0,11.9-8,21.8-18.8,24.9
		c-0.4,0-0.8-0.1-1.3-0.1H60.3c-0.4,0-0.9,0-1.3,0.1c-10.9-3.1-18.8-13.1-18.8-24.9l0,0c0-14.3,11.6-25.9,25.9-25.9h356.5
		C437,168.2,448.6,179.8,448.6,194.1L448.6,194.1z"/>
</g>
<g>
</g>
<g>
</g>
<g>
</g>
<g>
</g>
<g>
</g>
<g>
</g>
<g>
</g>
<g>
</g>
<g>
</g>
<g>
</g>
<g>
</g>
<g>
</g>
<g>
</g>
<g>
</g>
<g>
</g>
</svg>
