<?xml version="1.0" encoding="iso-8859-1"?>
<!-- Generator: Adobe Illustrator 19.0.0, SVG Export Plug-In . SVG Version: 6.00 Build 0)  -->
<svg version="1.1" id="Layer_1" xmlns="http://www.w3.org/2000/svg" xmlns:xlink="http://www.w3.org/1999/xlink" x="0px" y="0px"
	 viewBox="0 0 490.6 490.6" style="enable-background:new 0 0 490.6 490.6;" xml:space="preserve">
<g>
	<path d="M468.15,77.9h-108.8V20.3c0-10.7-8.5-20.3-20.3-20.3h-186.6c-10.7,0-20.3,8.5-20.3,20.3v57.6H22.35
		c-10.7,0-20.3,8.5-20.3,20.3v372.1c0,10.7,8.5,20.3,20.3,20.3h445.9c11.7,0,20.3-9.6,20.3-21.3V98.2
		C488.45,87.5,479.95,77.9,468.15,77.9z M172.75,40.6h146.1v37.3h-146.1V40.6z M447.95,118.4v119.5h-182.4v-9.6
		c0-10.7-8.5-20.3-20.3-20.3c-10.7,0-20.3,8.5-20.3,20.3v9.6H42.55V118.4H447.95z M42.55,450V278.4h182.4v12.8
		c0,10.7,8.5,20.3,20.3,20.3c11.8,0,20.3-9.6,20.3-20.3v-12.8h182.4V450H42.55z"/>
</g>
<g>
</g>
<g>
</g>
<g>
</g>
<g>
</g>
<g>
</g>
<g>
</g>
<g>
</g>
<g>
</g>
<g>
</g>
<g>
</g>
<g>
</g>
<g>
</g>
<g>
</g>
<g>
</g>
<g>
</g>
</svg>
