<?xml version="1.0" encoding="iso-8859-1"?>
<!-- Generator: Adobe Illustrator 19.0.0, SVG Export Plug-In . SVG Version: 6.00 Build 0)  -->
<svg version="1.1" id="Layer_1" xmlns="http://www.w3.org/2000/svg" xmlns:xlink="http://www.w3.org/1999/xlink" x="0px" y="0px"
	 viewBox="0 0 489.072 489.072" style="enable-background:new 0 0 489.072 489.072;" xml:space="preserve">
<g>
	<g>
		<g>
			<g>
				<path d="M469.9,436.736H20.1c-11.6,0-20.1-9.5-20.1-20.1v-344.2c0-11.6,9.5-20.1,20.1-20.1h448.8c11.6,0,20.1,9.5,20.1,20.1
					v343.2C490,427.236,480.5,436.736,469.9,436.736z M41.2,395.536h408.7v-302H41.2V395.536z"/>
			</g>
			<g>
				<path d="M202.7,354.336h-98.2c-11.6,0-20.1-9.5-20.1-20.1c0-11.6,9.5-20.1,20.1-20.1h98.2c11.6,0,20.1,9.5,20.1,20.1
					C222.8,345.936,213.3,354.336,202.7,354.336z"/>
			</g>
			<g>
				<path d="M202.7,289.936h-98.2c-11.6,0-20.1-9.5-20.1-20.1c0-11.6,9.5-20.1,20.1-20.1h98.2c11.6,0,20.1,9.5,20.1,20.1
					S213.3,289.936,202.7,289.936z"/>
			</g>
			<g>
				<path d="M403.4,297.336H296.7c-11.6,0-20.1-9.5-20.1-20.1v-140.4c0-11.6,9.5-20.1,20.1-20.1h106.7c11.6,0,20.1,9.5,20.1,20.1
					v140.5C424.5,288.936,415,297.336,403.4,297.336z M316.8,257.236h66.5v-99.3h-66.5V257.236z"/>
			</g>
		</g>
	</g>
</g>
<g>
</g>
<g>
</g>
<g>
</g>
<g>
</g>
<g>
</g>
<g>
</g>
<g>
</g>
<g>
</g>
<g>
</g>
<g>
</g>
<g>
</g>
<g>
</g>
<g>
</g>
<g>
</g>
<g>
</g>
</svg>
