<?xml version="1.0" encoding="iso-8859-1"?>
<!-- Generator: Adobe Illustrator 19.0.0, SVG Export Plug-In . SVG Version: 6.00 Build 0)  -->
<svg version="1.1" id="Layer_1" xmlns="http://www.w3.org/2000/svg" xmlns:xlink="http://www.w3.org/1999/xlink" x="0px" y="0px"
	 viewBox="0 0 490.1 490.1" style="enable-background:new 0 0 490.1 490.1;" xml:space="preserve">
<g>
	<g>
		<path d="M431.1,73.15h-69.4v-52.6c0-10.5-8.4-20-20-20H149.3c-10.5,0-20,8.4-20,20v51.5H58.9c-32.6,0-58.9,26.3-58.9,58.9v222.9
			c0,32.6,26.3,58.9,58.9,58.9h70.5v56.8c0,10.5,8.4,20,20,20h191.4c11.6,0,21-9.5,21-21v-55.7h69.4c32.6,0,58.9-26.3,58.9-57.8
			v-223C490,99.45,463.7,73.15,431.1,73.15z M169.3,40.55h151.4v112.5H169.3V40.55z M320.7,448.55H169.3v-112.5h151.4V448.55z
			 M449,354.95c0,9.5-8.4,17.9-17.9,17.9h-69.4v-57.8c0-10.5-8.4-20-20-20H149.3c-10.5,0-20,8.4-20,20v55.7H58.9
			c-9.5,0-17.9-8.4-17.9-17.9v-222.9c0-9.5,8.4-17.9,17.9-17.9h70.5v62c0,10.5,8.4,20,20,20h191.4c11.6,0,21-9.5,21-20v-61h69.4
			c9.5,0,17.9,8.4,17.9,17.9v224L449,354.95L449,354.95z"/>
		<path d="M274.4,73.15h-57.8c-10.5,0-20,9.5-20,20s8.4,20,20,20h57.8c10.5,0,20-9.5,20-20S286,73.15,274.4,73.15z"/>
		<path d="M410.1,222.45h-13.7c-10.5,0-20,8.4-20,20c0,10.5,8.4,20,20,20h13.7c10.5,0,20-8.4,20-20
			C430.1,231.95,421.7,222.45,410.1,222.45z"/>
	</g>
</g>
<g>
</g>
<g>
</g>
<g>
</g>
<g>
</g>
<g>
</g>
<g>
</g>
<g>
</g>
<g>
</g>
<g>
</g>
<g>
</g>
<g>
</g>
<g>
</g>
<g>
</g>
<g>
</g>
<g>
</g>
</svg>
