<?xml version="1.0" encoding="iso-8859-1"?>
<!-- Generator: Adobe Illustrator 19.0.0, SVG Export Plug-In . SVG Version: 6.00 Build 0)  -->
<svg version="1.1" id="Layer_1" xmlns="http://www.w3.org/2000/svg" xmlns:xlink="http://www.w3.org/1999/xlink" x="0px" y="0px"
	 viewBox="0 0 477.5 477.5" style="enable-background:new 0 0 477.5 477.5;" xml:space="preserve">
<g>
	<g>
		<path d="M419.2,46.45H58.4c-32.3,0-58.4,26.1-58.4,58.4v206.4c0,25.4,16,46.9,38.6,54.9v45.1c0,10.4,8.3,19.8,19.8,19.8
			s19.8-9.4,19.8-19.8v-41.7h321.1v41.7c0,10.4,8.3,19.8,19.8,19.8c10.4,0,19.8-9.4,19.8-19.8v-45.1c22.5-8.1,38.6-29.6,38.6-54.9
			v-206.4C477.5,72.55,451.5,46.45,419.2,46.45z M39.7,104.85c0-10.4,8.3-18.8,18.8-18.8h360.7c10.4,0,18.8,8.3,18.8,18.8v206.4
			c0,10.4-8.3,18.8-18.8,18.8H58.4c-10.4,0-18.8-8.3-18.8-18.8v-206.4C39.6,104.85,39.7,104.85,39.7,104.85z"/>
		<path d="M343.1,287.35c43.8,0,79.2-35.4,79.2-79.2s-35.4-79.2-79.2-79.2s-79.2,35.4-79.2,79.2
			C263.8,251.85,299.3,287.35,343.1,287.35z M343.1,168.45c21.9,0,39.6,17.7,39.6,39.6s-17.7,39.6-39.6,39.6s-39.6-17.7-39.6-39.6
			S321.2,168.45,343.1,168.45z"/>
		<path d="M94.9,178.95h87.6c10.4,0,19.8-9.4,19.8-19.8s-8.3-19.8-19.8-19.8H94.9c-10.4,0-19.8,9.4-19.8,19.8
			S83.5,178.95,94.9,178.95z"/>
		<path d="M94.9,275.85h87.6c10.4,0,19.8-9.4,19.8-19.8c0-10.4-8.3-19.8-19.8-19.8H94.9c-10.4,0-19.8,9.4-19.8,19.8
			C75.1,266.45,83.5,275.85,94.9,275.85z"/>
	</g>
</g>
<g>
</g>
<g>
</g>
<g>
</g>
<g>
</g>
<g>
</g>
<g>
</g>
<g>
</g>
<g>
</g>
<g>
</g>
<g>
</g>
<g>
</g>
<g>
</g>
<g>
</g>
<g>
</g>
<g>
</g>
</svg>
