<?xml version="1.0" encoding="iso-8859-1"?>
<!-- Generator: Adobe Illustrator 19.0.0, SVG Export Plug-In . SVG Version: 6.00 Build 0)  -->
<svg version="1.1" id="Layer_1" xmlns="http://www.w3.org/2000/svg" xmlns:xlink="http://www.w3.org/1999/xlink" x="0px" y="0px"
	 viewBox="0 0 489.7 489.7" style="enable-background:new 0 0 489.7 489.7;" xml:space="preserve">
<g>
	<g>
		<path d="M435.15,120.9h-2.1V36.4c0-20.3-16-36.4-36.4-36.4H93.05c-20.3,0-36.4,16-36.4,36.4v84.5h-2.1
			c-29.9,0-54.5,24.6-54.5,54.5v259.8c0,29.9,24.6,54.5,54.5,54.5h380.6c29.9,0,54.5-24.6,54.5-54.5V175.4
			C489.75,145.5,465.15,120.9,435.15,120.9z M97.25,40.7h295.1v80.2H97.25V40.7z M449.05,435.2c0,6.4-6.4,12.8-13.9,12.8H54.55
			c-6.4,0-12.8-5.3-12.8-12.8V175.4c0-6.4,5.3-12.8,12.8-12.8h380.6c7.5,0,13.9,5.3,13.9,12.8V435.2L449.05,435.2z"/>
		<path d="M383.85,221.4c0-10.7-8.6-20.3-20.3-20.3h-238.5c-10.7,0-20.3,8.6-20.3,20.3v167.9c0,10.7,8.6,20.3,20.3,20.3h239.5
			c10.7,0,20.3-8.6,19.2-20.3V221.4H383.85z M343.25,368.9h-197.8V241.7h197.8V368.9L343.25,368.9z"/>
		<path d="M189.25,326.2c11.8,0,20.3-9.6,20.3-20.3s-8.6-20.3-20.3-20.3c-11.8,0-20.3,9.6-20.3,20.3S177.45,326.2,189.25,326.2z"/>
		<path d="M300.45,326.2c11.8,0,20.3-9.6,20.3-20.3s-8.6-20.3-20.3-20.3c-11.8,0-20.3,9.6-20.3,20.3S288.65,326.2,300.45,326.2z"/>
	</g>
</g>
<g>
</g>
<g>
</g>
<g>
</g>
<g>
</g>
<g>
</g>
<g>
</g>
<g>
</g>
<g>
</g>
<g>
</g>
<g>
</g>
<g>
</g>
<g>
</g>
<g>
</g>
<g>
</g>
<g>
</g>
</svg>
