<?xml version="1.0" encoding="iso-8859-1"?>
<!-- Generator: Adobe Illustrator 19.0.0, SVG Export Plug-In . SVG Version: 6.00 Build 0)  -->
<svg version="1.1" id="Layer_1" xmlns="http://www.w3.org/2000/svg" xmlns:xlink="http://www.w3.org/1999/xlink" x="0px" y="0px"
	 viewBox="0 0 489.901 489.901" style="enable-background:new 0 0 489.901 489.901;" xml:space="preserve">
<g>
	<g>
		<path d="M469.2,103.729h-86.8l-250.2-102c-10.4-4.2-22.9,1-27,11.4c-4.2,10.4,1,22.9,11.4,27l156.4,63.5H20.8
			c-11.4,0-20.8,9.4-20.8,20.8v344.4c0,11.4,9.4,20.8,20.8,20.8h447.3c11.4,0,20.8-9.4,21.8-19.8v-345.3
			C490,113.129,480.6,103.729,469.2,103.729z M448.4,449.129H40.6v-304.8h407.8V449.129z"/>
		<path d="M320.4,348.229c45.8,0,83.2-37.5,83.2-83.2c0-45.8-37.5-83.2-83.2-83.2s-83.2,37.5-83.2,83.2
			C237.2,310.729,274.6,348.229,320.4,348.229z M320.4,222.329c23.9,0,42.7,18.7,42.7,42.7c0,23.9-18.7,42.7-42.7,42.7
			s-42.7-18.7-42.7-42.7C277.8,241.029,296.5,222.329,320.4,222.329z"/>
		<path d="M103,229.629h74.9c11.4,0,20.8-9.4,20.8-20.8s-9.4-20.8-20.8-20.8H103c-11.4,0-20.8,9.4-20.8,20.8
			S91.5,229.629,103,229.629z"/>
	</g>
</g>
<g>
</g>
<g>
</g>
<g>
</g>
<g>
</g>
<g>
</g>
<g>
</g>
<g>
</g>
<g>
</g>
<g>
</g>
<g>
</g>
<g>
</g>
<g>
</g>
<g>
</g>
<g>
</g>
<g>
</g>
</svg>
