<?xml version="1.0" encoding="iso-8859-1"?>
<!-- Generator: Adobe Illustrator 19.0.0, SVG Export Plug-In . SVG Version: 6.00 Build 0)  -->
<svg version="1.1" id="Layer_1" xmlns="http://www.w3.org/2000/svg" xmlns:xlink="http://www.w3.org/1999/xlink" x="0px" y="0px"
	 viewBox="0 0 490 490" style="enable-background:new 0 0 490 490;" xml:space="preserve">
<g>
	<g>
		<path d="M437.9,124.9h-53.1V20.7c0-10.6-8.5-20.2-20.2-20.2c-10.6,0-20.2,8.5-20.2,20.2v104.2H52.1C23.4,124.9,0,148.3,0,177
			v261.5c0,27.6,23.4,51,51,51h386.9c27.6,0,51-23.4,52.1-52.1V177C490,148.3,466.6,124.9,437.9,124.9z M447.5,437.4
			c0,5.3-4.3,10.6-10.6,10.6H51c-5.3,0-10.6-4.3-10.6-10.6V177c0-5.3,4.3-10.6,10.6-10.6h385.8c5.3,0,10.6,4.3,10.6,10.6v260.4
			H447.5z"/>
		<path d="M159.4,367.2h-10.6c-10.6,0-20.2,8.5-20.2,20.2c0,10.6,8.5,20.2,20.2,20.2h10.6c11.7,0,20.2-9.6,20.2-20.2
			S171.1,367.2,159.4,367.2z"/>
		<path d="M342.3,367.2h-10.6c-10.6,0-20.2,8.5-20.2,20.2c0,10.6,8.5,20.2,20.2,20.2h10.6c11.7,0,21.3-9.6,20.2-20.2
			C362.5,376.8,353.9,367.2,342.3,367.2z"/>
		<path d="M381.6,224.8H108.4c-10.6,0-20.2,9.6-20.2,20.2c0,10.6,8.5,20.2,20.2,20.2h272.1c11.7,0,21.3-9.6,21.3-20.2
			S393.3,224.8,381.6,224.8z"/>
	</g>
</g>
<g>
</g>
<g>
</g>
<g>
</g>
<g>
</g>
<g>
</g>
<g>
</g>
<g>
</g>
<g>
</g>
<g>
</g>
<g>
</g>
<g>
</g>
<g>
</g>
<g>
</g>
<g>
</g>
<g>
</g>
</svg>
