<?xml version="1.0" encoding="iso-8859-1"?>
<!-- Generator: Adobe Illustrator 19.0.0, SVG Export Plug-In . SVG Version: 6.00 Build 0)  -->
<svg version="1.1" id="Layer_1" xmlns="http://www.w3.org/2000/svg" xmlns:xlink="http://www.w3.org/1999/xlink" x="0px" y="0px"
	 viewBox="0 0 490.1 490.1" style="enable-background:new 0 0 490.1 490.1;" xml:space="preserve">
<g>
	<g>
		<path d="M293.275,71.475l-48-48c-31.3-31.3-82.1-31.3-113.4,0l-108.4,108.5c-31.3,31.3-31.3,82.1,0,113.4l48,48
			c-38.5,47.4-35.8,117.3,8.3,161.4c47.1,47.1,123.6,47.1,170.7,0l204.3-204.3c47.1-47.1,47.1-123.6,0-170.7
			C410.575,35.775,340.575,32.975,293.275,71.475z M54.775,163.275l108.4-108.4c14-14,36.8-14,50.8,0l47.5,47.5l-159.2,159.2
			l-47.5-47.5C40.775,200.075,40.775,177.275,54.775,163.275z M219.075,423.475c-29.8,29.8-78.3,29.8-108,0s-29.8-78.3,0-108
			s78.3-29.8,108,0S248.875,393.675,219.075,423.475z M357.375,285.175l-72.3,72.3c-2.7-26.8-14.2-52.9-34.7-73.3
			s-46.6-32-73.3-34.7l72.3-72.3c2.7,26.8,14.2,52.9,34.7,73.3S330.575,282.575,357.375,285.175z M423.375,219.175
			c-29.8,29.8-78.3,29.8-108,0c-29.8-29.8-29.8-78.3,0-108c29.8-29.8,78.3-29.8,108,0S453.175,189.375,423.375,219.175z"/>
		<path d="M337.575,133.375c-17.5,17.5-17.5,46,0,63.5s46,17.5,63.5,0s17.5-46,0-63.5S355.075,115.875,337.575,133.375z"/>
		<path d="M133.275,337.675c-17.5,17.5-17.5,46,0,63.5s46,17.5,63.5,0s17.5-46,0-63.5S150.775,320.175,133.275,337.675z"/>
	</g>
</g>
<g>
</g>
<g>
</g>
<g>
</g>
<g>
</g>
<g>
</g>
<g>
</g>
<g>
</g>
<g>
</g>
<g>
</g>
<g>
</g>
<g>
</g>
<g>
</g>
<g>
</g>
<g>
</g>
<g>
</g>
</svg>
