<?xml version="1.0" encoding="iso-8859-1"?>
<!-- Generator: Adobe Illustrator 19.0.0, SVG Export Plug-In . SVG Version: 6.00 Build 0)  -->
<svg version="1.1" id="Layer_1" xmlns="http://www.w3.org/2000/svg" xmlns:xlink="http://www.w3.org/1999/xlink" x="0px" y="0px"
	 viewBox="0 0 490.1 490.1" style="enable-background:new 0 0 490.1 490.1;" xml:space="preserve">
<g>
	<g>
		<path d="M461.9,143.6l-338-111.2c-1.8-18.3-16.8-32.3-35.6-32.3c-20,0-35.8,16.9-35.8,36c0,20.1,15.8,36,35.8,36
			c5.3,0,10.4-1.1,14.9-3.2l224.5,73.8H35.8c-20,0-35.8,15.9-35.8,36V454c0,20.1,15.8,36,35.8,36h418.5c18.9,0,35.8-16.9,35.8-36
			V178.8C490,161.3,478.1,147.1,461.9,143.6z M449,448.9H41V184.1h408V448.9z"/>
		<path d="M124.1,293.2h241.8c11.6,0,21-9.5,21-20.1s-8.4-20.1-20-20.1H124.1c-10.5,0-20,8.5-20,20.1
			C104.1,283.7,112.5,293.2,124.1,293.2z"/>
		<path d="M124.1,381.1h241.8c11.6,0,21-9.5,21-20.1s-8.4-20.1-20-20.1H124.1c-10.5,0-20,8.5-20,20.1
			C104.1,371.5,112.5,381.1,124.1,381.1z"/>
	</g>
</g>
<g>
</g>
<g>
</g>
<g>
</g>
<g>
</g>
<g>
</g>
<g>
</g>
<g>
</g>
<g>
</g>
<g>
</g>
<g>
</g>
<g>
</g>
<g>
</g>
<g>
</g>
<g>
</g>
<g>
</g>
</svg>
