<?xml version="1.0" encoding="iso-8859-1"?>
<!-- Generator: Adobe Illustrator 19.0.0, SVG Export Plug-In . SVG Version: 6.00 Build 0)  -->
<svg version="1.1" id="Layer_1" xmlns="http://www.w3.org/2000/svg" xmlns:xlink="http://www.w3.org/1999/xlink" x="0px" y="0px"
	 viewBox="0 0 489.6 489.6" style="enable-background:new 0 0 489.6 489.6;" xml:space="preserve">
<g>
	<g>
		<path d="M410.4,151H106.3V20.8C106.3,9.3,96.9,0,85.5,0C74,0,64.7,9.4,64.7,20.8V151H20.8C9.3,151,0,160.4,0,171.8v297
			c0,11.5,9.4,20.8,20.8,20.8h389.6c11.5,0,19.8-9.4,20.8-20.8V171.9C431.3,160.4,421.9,151,410.4,151z M389.6,449h-349V192.7h349
			V449z"/>
		<path d="M468.8,182.3c-11.5,0-20.8,9.4-20.8,20.8v60.4c0,11.5,9.4,20.8,20.8,20.8s20.8-9.4,20.8-20.8v-60.4
			C489.6,191.7,480.2,182.3,468.8,182.3z"/>
		<path d="M106.3,284.4h227.1c11.5,0,20.8-9.4,20.8-20.8s-9.4-20.8-20.8-20.8H106.3c-11.5,0-20.8,9.4-20.8,20.8
			C85.5,275,94.8,284.4,106.3,284.4z"/>
	</g>
</g>
<g>
</g>
<g>
</g>
<g>
</g>
<g>
</g>
<g>
</g>
<g>
</g>
<g>
</g>
<g>
</g>
<g>
</g>
<g>
</g>
<g>
</g>
<g>
</g>
<g>
</g>
<g>
</g>
<g>
</g>
</svg>
