<?xml version="1.0" encoding="iso-8859-1"?>
<!-- Generator: Adobe Illustrator 19.0.0, SVG Export Plug-In . SVG Version: 6.00 Build 0)  -->
<svg version="1.1" id="Layer_1" xmlns="http://www.w3.org/2000/svg" xmlns:xlink="http://www.w3.org/1999/xlink" x="0px" y="0px"
	 viewBox="0 0 489.6 489.6" style="enable-background:new 0 0 489.6 489.6;" xml:space="preserve">
<g>
	<g>
		<path d="M300,420.8c66.7,0,119.8-54.2,119.8-119.8S365.6,181.2,300,181.2S180.2,235.4,180.2,301S234.4,420.8,300,420.8z
			 M300,221.9c43.8,0,79.2,35.4,79.2,79.2s-35.4,79.2-79.2,79.2s-79.2-35.5-79.2-79.2S256.3,221.9,300,221.9z"/>
		<path d="M468.8,112.5h-16.7V20.8c0-11.5-9.4-20.8-20.8-20.8H64.6C53.1,0,43.8,9.4,43.8,20.8v91.7h-23C9.3,112.5,0,121.9,0,133.3
			v335.5c0,11.5,9.4,20.8,20.8,20.8h448c11.5,0,20.8-9.4,20.8-20.8V133.3C489.6,121.9,480.2,112.5,468.8,112.5z M84.4,40.6h325v71.9
			h-325C84.4,112.5,84.4,40.6,84.4,40.6z M447.9,449H40.6V154.2h407.3V449L447.9,449z"/>
		<path d="M103.1,233.3h25c11.5,0,20.8-9.4,20.8-20.8c0-11.5-9.4-20.8-20.8-20.8h-25c-11.5,0-20.8,9.4-20.8,20.8
			C82.3,224,91.7,233.3,103.1,233.3z"/>
	</g>
</g>
<g>
</g>
<g>
</g>
<g>
</g>
<g>
</g>
<g>
</g>
<g>
</g>
<g>
</g>
<g>
</g>
<g>
</g>
<g>
</g>
<g>
</g>
<g>
</g>
<g>
</g>
<g>
</g>
<g>
</g>
</svg>
