<?xml version="1.0" encoding="iso-8859-1"?>
<!-- Generator: Adobe Illustrator 19.0.0, SVG Export Plug-In . SVG Version: 6.00 Build 0)  -->
<svg version="1.1" id="Layer_1" xmlns="http://www.w3.org/2000/svg" xmlns:xlink="http://www.w3.org/1999/xlink" x="0px" y="0px"
	 viewBox="0 0 489.957 489.957" style="enable-background:new 0 0 489.957 489.957;" xml:space="preserve">
<g>
	<g>
		<path d="M468.978,103.557h-85.9l-250.6-102.1c-11.5-4.2-22.9,1-27.1,11.5c-4.2,10.4,1,22.9,11.5,27.1l155,63.5h-250.9
			c-11.5,0-20.8,9.4-20.8,20.8v344.8c0,11.5,9.4,20.8,20.8,20.8h448c11.5,0,20.8-9.4,20.8-20.8v-344.7
			C489.778,112.957,480.378,103.557,468.978,103.557z M448.078,449.457h-407.3v-304.2h407.3V449.457L448.078,449.457z"/>
		<path d="M163.678,267.157c10.4,0,19.8-9.4,20.8-20.8v-55.3c0-11.5-9.4-20.8-20.8-20.8s-20.8,9.4-20.8,20.8v55.2
			C142.878,257.757,152.278,267.157,163.678,267.157z"/>
		<path d="M244.978,267.157c11.5,0,20.8-9.4,20.8-20.8v-55.3c0-11.5-9.4-20.8-20.8-20.8s-20.8,9.4-20.8,20.8v55.2
			C224.178,257.757,233.478,267.157,244.978,267.157z"/>
		<path d="M326.278,267.157c11.5,0,20.8-9.4,20.8-20.8v-55.3c0-11.5-9.4-20.8-20.8-20.8s-20.8,9.4-20.8,20.8v55.2
			C305.378,257.757,314.778,267.157,326.278,267.157z"/>
		<path d="M347.078,426.557c37.7,0,68.3-30.6,68.3-68.3s-30.6-68.3-68.3-68.3s-68.3,30.6-68.3,68.3S309.378,426.557,347.078,426.557
			z M347.078,330.957c15.1,0,27.3,12.2,27.3,27.3c0,15.1-12.2,27.3-27.3,27.3s-27.3-12.2-27.3-27.3
			C319.778,343.257,331.978,330.957,347.078,330.957z"/>
	</g>
</g>
<g>
</g>
<g>
</g>
<g>
</g>
<g>
</g>
<g>
</g>
<g>
</g>
<g>
</g>
<g>
</g>
<g>
</g>
<g>
</g>
<g>
</g>
<g>
</g>
<g>
</g>
<g>
</g>
<g>
</g>
</svg>
