<?xml version="1.0" encoding="iso-8859-1"?>
<!-- Generator: Adobe Illustrator 19.0.0, SVG Export Plug-In . SVG Version: 6.00 Build 0)  -->
<svg version="1.1" id="Layer_1" xmlns="http://www.w3.org/2000/svg" xmlns:xlink="http://www.w3.org/1999/xlink" x="0px" y="0px"
	 viewBox="0 0 490.588 490.588" style="enable-background:new 0 0 490.588 490.588;" xml:space="preserve">
<g>
	<g>
		<path d="M477.1,164.305l-150.3-150.2c-19.8-19.8-48.7-17-65.6,0l-247.7,247.6c-18,18-18,47.6,0,65.6l150.3,149.2
			c19.7,19.7,50,16.7,65.6,1.1l247.6-247.6C495.1,212.005,495.1,182.305,477.1,164.305z M448.5,200.305l-247.6,247.7
			c-3.2,3.2-5.3,3.2-8.5,0l-149.2-150.3c-2.1-2.1-2.1-5.3,0-7.4l246.5-246.6c2.1-2.1,6.3-2.1,8.5,0l150.3,148.2
			C450.6,195.005,450.6,198.205,448.5,200.305z"/>
		<path d="M302.4,116.705c-7.4-8.5-20.1-8.5-28.6,0c-8.5,7.4-8.5,20.1,0,28.6l5.3,5.3c6.5,6.6,19.8,9.6,28.6,0
			c8.5-7.4,8.5-20.1,0-28.6L302.4,116.705z"/>
		<path d="M368.1,182.305c-7.4-8.5-20.1-8.5-28.6,0c-8.5,7.4-8.5,20.1,0,28.6l5.3,5.3c4.2,4.2,17.9,10.3,28.6,0
			c8.5-7.4,8.5-20.1,0-28.6L368.1,182.305z"/>
		<path d="M235.8,185.505c-7.4-8.5-20.1-8.5-28.6,0c-8.5,7.4-8.5,20.1,0,28.6l4.2,5.3c8.8,8.3,21.3,7.6,29.6,0
			c8.5-7.4,8.5-20.1,0-28.6L235.8,185.505z"/>
		<path d="M300.3,250.105c-7.4-8.5-20.1-8.5-28.6,0c-8.5,7.4-8.5,20.1,0,28.6l5.3,5.3c4.2,4.2,18,10.4,28.6,0
			c8.5-7.4,8.5-20.1,0-28.6L300.3,250.105z"/>
		<path d="M211.4,278.605c-7.4-8.5-20.1-8.5-28.6,0l-14.3,14.3l-14.2-14.3c-7.4-8.5-20.1-8.5-28.6,0c-8.5,7.4-8.5,20.1,0,28.6
			l14.3,14.3l-14.3,14.3c-8.5,7.4-8.5,20.1,0,28.6c4.2,4.2,17.3,12.2,28.6,0l14.3-14.3l14.3,14.3c13.2,13.2,25.4,4.2,28.6,0
			c8.5-7.4,8.5-20.1,0-28.6l-14.3-14.3l14.3-14.3C219.9,299.805,219.9,287.105,211.4,278.605z"/>
	</g>
</g>
<g>
</g>
<g>
</g>
<g>
</g>
<g>
</g>
<g>
</g>
<g>
</g>
<g>
</g>
<g>
</g>
<g>
</g>
<g>
</g>
<g>
</g>
<g>
</g>
<g>
</g>
<g>
</g>
<g>
</g>
</svg>
