<?xml version="1.0" encoding="iso-8859-1"?>
<!-- Generator: Adobe Illustrator 19.0.0, SVG Export Plug-In . SVG Version: 6.00 Build 0)  -->
<svg version="1.1" id="Layer_1" xmlns="http://www.w3.org/2000/svg" xmlns:xlink="http://www.w3.org/1999/xlink" x="0px" y="0px"
	 viewBox="0 0 477.5 477.5" style="enable-background:new 0 0 477.5 477.5;" xml:space="preserve">
<g>
	<g>
		<path d="M470.85,301.1l-59.1-95.8V19.8c0-10.4-9.4-19.8-19.8-19.8s-19.8,8.3-19.8,19.8V196h-266.9V19.8c0-10.4-9.4-19.8-19.8-19.8
			s-19.8,8.3-19.8,19.8v185.6l-61.3,98.1c-1.5,1.9-4.3,7-4.3,14.9v139.3c0,10.4,8.3,19.8,19.8,19.8h437.8c11.5,0,19.8-8.3,19.8-19.8
			V315.8C477.45,310.2,474.95,304.8,470.85,301.1z M92.75,235.6h291.9l36.5,60.5H55.25L92.75,235.6z M437.85,437.8H39.55V335.7
			h398.3L437.85,437.8L437.85,437.8z"/>
		<path d="M101.15,406.6h12.5c10.4,0,19.8-8.3,19.8-19.8c0-10.4-8.3-19.8-19.8-19.8h-12.5c-10.4,0-19.8,8.3-19.8,19.8
			C81.25,397.2,89.65,406.6,101.15,406.6z"/>
		<path d="M232.45,406.6h12.5c10.4,0,19.8-8.3,19.8-19.8c0-10.4-8.3-19.8-19.8-19.8h-12.5c-10.4,0-19.8,8.3-19.8,19.8
			C212.65,397.2,220.95,406.6,232.45,406.6z"/>
		<path d="M363.85,406.6h12.5c10.4,0,19.8-8.3,19.8-19.8c0-10.4-8.3-19.8-19.8-19.8h-12.5c-10.4,0-19.8,8.3-19.8,19.8
			C344.05,397.2,352.35,406.6,363.85,406.6z"/>
	</g>
</g>
<g>
</g>
<g>
</g>
<g>
</g>
<g>
</g>
<g>
</g>
<g>
</g>
<g>
</g>
<g>
</g>
<g>
</g>
<g>
</g>
<g>
</g>
<g>
</g>
<g>
</g>
<g>
</g>
<g>
</g>
</svg>
