<?xml version="1.0" encoding="iso-8859-1"?>
<!-- Generator: Adobe Illustrator 19.0.0, SVG Export Plug-In . SVG Version: 6.00 Build 0)  -->
<svg version="1.1" id="Layer_1" xmlns="http://www.w3.org/2000/svg" xmlns:xlink="http://www.w3.org/1999/xlink" x="0px" y="0px"
	 viewBox="0 0 489.894 489.894" style="enable-background:new 0 0 489.894 489.894;" xml:space="preserve">
<g>
	<g>
		<path d="M441.79,318.225c-15.6-15.6-56.3-38.6-104.8-11.1l-11.2-11.2l15.1-15.1c11.9-11,4.2-25,0-29.1l-74.2-74.2
			c0,0,29.5-28.8,29.9-29.4l15.2,15.2c5.8,6.2,21.5,9.8,29.1,0l68.7-68.7c8.5-8.5,8.2-21,0-29.1l-59.3-59.3
			c-8.3-8.3-20.8-8.3-29.1,0l-68.7,68.7c-4.2,4.2-12.3,17.7,0,29.1l15.2,15.2c-0.6,0.5-30.1,29.2-30.1,29.2l-49.6-49.6
			c-8.3-8.3-20.8-8.3-29.1,0l-60.3,60.3c-8.9,8.3-8.6,21.7,0,29.1l49.9,49.6l-29.1,28.4l-14.6-14.6c-8.3-8.3-20.8-8.3-29.1,0
			l-68.7,68.7c-12.9,12.9-4.2,25,0,29.1l59.3,58.3c4.2,4.2,16.1,11.4,29.1,1l68.7-68.7c4.2-4.2,11.7-16.5,0-29.1l-15.6-15.6
			l29.2-28.5l73.8,73.3c6.4,6.2,17.4,9.7,29.1,1l16.1-16.1l11,11c-28.9,48.4-6,89.1,10.3,105c7.2,7,20.9,9,29.1,0l94.7-93.6
			C453.69,335.825,445.99,322.425,441.79,318.225z M335.69,49.825l31.2,30.2l-40.6,40.6l-31.2-30.2L335.69,49.825z M80.79,365.125
			l-31.2-30.2l40.6-40.6l31.2,30.2L80.79,365.125z M265.99,297.425l-123.8-123.8l31.2-32.3l123.8,124.9L265.99,297.425z
			 M336.69,394.225c-1-3.1-8.4-23.4,12.5-44.7c19.6-20.3,41.6-13.5,45.8-13.5L336.69,394.225z"/>
		<path d="M404.39,436.825c-8.3-8.3-20.8-8.3-29.1,0s-8.3,20.8,0,29.1l17.7,17.7c8.8,8.9,21.5,7.8,29.1,0c8.3-8.4,8.3-20.8,0-29.1
			L404.39,436.825z"/>
		<path d="M483.39,393.125l-17.7-17.7c-8.3-8.3-20.8-8.3-29.1,0s-8.3,20.8,0,29.1l17.7,17.7c8.2,8.2,21.7,8.3,29.1,0
			C491.79,414.025,491.79,401.525,483.39,393.125z"/>
	</g>
</g>
<g>
</g>
<g>
</g>
<g>
</g>
<g>
</g>
<g>
</g>
<g>
</g>
<g>
</g>
<g>
</g>
<g>
</g>
<g>
</g>
<g>
</g>
<g>
</g>
<g>
</g>
<g>
</g>
<g>
</g>
</svg>
