<?xml version="1.0" encoding="iso-8859-1"?>
<!-- Generator: Adobe Illustrator 19.0.0, SVG Export Plug-In . SVG Version: 6.00 Build 0)  -->
<svg version="1.1" id="Layer_1" xmlns="http://www.w3.org/2000/svg" xmlns:xlink="http://www.w3.org/1999/xlink" x="0px" y="0px"
	 viewBox="0 0 489.314 489.314" style="enable-background:new 0 0 489.314 489.314;" xml:space="preserve">
<g>
	<path d="M405.464,138.614l60.3-55.3c8.5-7.4,8.5-20.1,1.1-28.6s-20.1-8.5-28.6-1.1l-59.4,54.4c-64.4-67.3-183.2-147.4-262.1-86.2
		c-81,80.9-105.8,217.6-42.2,333.5h-22.6c-10.6,0-20.1,8.5-20.1,20.1v73h-11.7c-10.6,0-20.1,9.5-20.1,20.1s8.5,20.1,20.1,20.1h58.2
		c10.6,0,20.1-9.5,20.1-20.1s-8.5-20.1-20.1-20.1h-6.3v-52.9h28.9c3.5,4.5,7.1,9,10.9,13.4c46,53.3,111.1,80.4,177.8,80.4
		c105.8,0,172.6-75.5,174-76.9C513.764,357.514,488.164,241.314,405.464,138.614z M289.664,448.114c-55,0-107.9-23.3-147.1-66.7
		c-57-62.1-74.6-151.4-52.9-230.7c13,55.5,47.1,118.3,98.8,175c39.6,43.5,104.5,95.2,166.9,110.9
		C334.364,444.214,312.164,448.114,289.664,448.114z M433.964,383.914c-56,47.7-159.8-24.3-215.9-85.7
		c-85.3-93.3-110.6-193.3-83.3-235.9c2.4-2.9,4.9-5.8,7.4-8.6c51.4-42.5,149.9,22.5,207.3,81.4l-76.4,70c-8.5,7.4-8.5,20.1-1.1,28.6
		c11.9,11.3,24.3,5.3,28.6,1.1l75.5-69.2C449.064,256.614,466.064,348.914,433.964,383.914z"/>
</g>
<g>
</g>
<g>
</g>
<g>
</g>
<g>
</g>
<g>
</g>
<g>
</g>
<g>
</g>
<g>
</g>
<g>
</g>
<g>
</g>
<g>
</g>
<g>
</g>
<g>
</g>
<g>
</g>
<g>
</g>
</svg>
