<?xml version="1.0" encoding="iso-8859-1"?>
<!-- Generator: Adobe Illustrator 19.0.0, SVG Export Plug-In . SVG Version: 6.00 Build 0)  -->
<svg version="1.1" id="Layer_1" xmlns="http://www.w3.org/2000/svg" xmlns:xlink="http://www.w3.org/1999/xlink" x="0px" y="0px"
	 viewBox="0 0 489.786 489.786" style="enable-background:new 0 0 489.786 489.786;" xml:space="preserve">
<g>
	<g>
		<path d="M422.9,100.309c-8.3-8.4-20.8-8.3-29.2,0l-132.2,132.3l-59.4-59.4c-8.3-8.3-20.8-8.3-29.2,0c-8.3,8.3-8.3,20.8,0,29.2
			l59.4,59.4L100,394.109c-9.4,8.7-6.5,23.5,0,29.2c150.3,130.9,289.8,32.4,322.9,0C476.3,371.109,542,220.709,422.9,100.309z
			 M393.8,394.109c-95.3,108.9-215.6,40.6-249,13.5l263.6-262.5C434.4,177.409,491.3,282.609,393.8,394.109z"/>
		<path d="M171.9,42.009c11.5,0,20.8-9.4,20.8-20.8s-9.4-20.8-20.8-20.8C77.1,0.309,0,77.409,0,171.109c0,11.5,9.4,20.8,20.8,20.8
			c10.4,0,19.8-9.4,19.8-19.8C40.6,99.309,99,40.909,171.9,42.009z"/>
		<path d="M121.9,172.209c0-27.1,21.9-49,49-49c11.5,0,20.8-9.4,20.8-20.8s-9.4-20.8-20.8-20.8c-49,0-89.6,40.6-89.6,89.6
			c0,11.5,9.4,20.8,20.8,20.8S122.9,182.609,121.9,172.209z"/>
	</g>
</g>
<g>
</g>
<g>
</g>
<g>
</g>
<g>
</g>
<g>
</g>
<g>
</g>
<g>
</g>
<g>
</g>
<g>
</g>
<g>
</g>
<g>
</g>
<g>
</g>
<g>
</g>
<g>
</g>
<g>
</g>
</svg>
