<?xml version="1.0" encoding="iso-8859-1"?>
<!-- Generator: Adobe Illustrator 19.0.0, SVG Export Plug-In . SVG Version: 6.00 Build 0)  -->
<svg version="1.1" id="Layer_1" xmlns="http://www.w3.org/2000/svg" xmlns:xlink="http://www.w3.org/1999/xlink" x="0px" y="0px"
	 viewBox="0 0 489.375 489.375" style="enable-background:new 0 0 489.375 489.375;" xml:space="preserve">
<g>
	<path d="M398.638,309.175c-34.2,0-64.1,19.2-79.3,47.4l-52.4-99.3l119.7-227.7c5.2-9.4,2.1-21.9-8.3-27.1
		c-9.4-5.2-21.9-2.1-27.1,8.3l-107,203.5l-106.6-202.5c-5.2-9.4-16.7-13.5-27.1-8.3c-9.4,5.2-13.5,16.7-8.3,27.1l119.7,226.2
		l-52.2,99.2c-15.4-27.9-45-46.8-79-46.8c-49.7,0-90.1,40.4-90.1,90.1s40.4,90.1,90.1,90.1c37.1,0,69.1-22.6,82.9-54.7l71-135.2
		l69.5,131.2c12.8,34.2,45.8,58.6,84.5,58.6c49.7,0,90.1-40.4,90.1-90.1S448.337,309.175,398.638,309.175z M90.738,448.475
		c-27.1,0-49.1-22-49.1-49.1s22-49.1,49.1-49.1s49.1,22,49.1,49.1S117.838,448.475,90.738,448.475z M398.638,448.475
		c-27.1,0-49.1-22-49.1-49.1s22-49.1,49.1-49.1s49.1,22,49.1,49.1S425.737,448.475,398.638,448.475z"/>
</g>
<g>
</g>
<g>
</g>
<g>
</g>
<g>
</g>
<g>
</g>
<g>
</g>
<g>
</g>
<g>
</g>
<g>
</g>
<g>
</g>
<g>
</g>
<g>
</g>
<g>
</g>
<g>
</g>
<g>
</g>
</svg>
