<?xml version="1.0" encoding="iso-8859-1"?>
<!-- Generator: Adobe Illustrator 19.0.0, SVG Export Plug-In . SVG Version: 6.00 Build 0)  -->
<svg version="1.1" id="Layer_1" xmlns="http://www.w3.org/2000/svg" xmlns:xlink="http://www.w3.org/1999/xlink" x="0px" y="0px"
	 viewBox="0 0 490.8 490.8" style="enable-background:new 0 0 490.8 490.8;" xml:space="preserve">
<g>
	<g>
		<path d="M470,0.55H20.8C9.4,0.55,0,9.95,0,21.45v349.1c0,11.5,9.4,20.8,20.8,20.8H224v57.3h-69.8c-11.5,0-20.8,9.4-20.8,20.8
			c0,11.5,9.4,20.8,20.8,20.8h181.3c10.4,0,19.8-9.4,19.8-20.8c0-11.5-9.4-20.8-20.8-20.8h-68.8v-57.3h203.2
			c11.5,0,20.8-9.4,21.9-20.8V21.45C490.8,9.95,481.4,0.55,470,0.55z M449.1,349.65H40.6V41.25h408.5V349.65z"/>
		<path d="M201.1,305.85l113.6-94.8c9.7-9.3,11.2-20.1,0-31.3l-113.6-94.8c-6.3-5.2-14.6-6.3-21.9-3.1s-11.5,10.4-11.5,18.8v189.7
			C167.8,313.45,190.2,314.85,201.1,305.85z M208.4,144.35l61.5,52.1l-61.5,51.1V144.35z"/>
	</g>
</g>
<g>
</g>
<g>
</g>
<g>
</g>
<g>
</g>
<g>
</g>
<g>
</g>
<g>
</g>
<g>
</g>
<g>
</g>
<g>
</g>
<g>
</g>
<g>
</g>
<g>
</g>
<g>
</g>
<g>
</g>
</svg>
