<?xml version="1.0" encoding="iso-8859-1"?>
<!-- Generator: Adobe Illustrator 19.0.0, SVG Export Plug-In . SVG Version: 6.00 Build 0)  -->
<svg version="1.1" id="Layer_1" xmlns="http://www.w3.org/2000/svg" xmlns:xlink="http://www.w3.org/1999/xlink" x="0px" y="0px"
	 viewBox="0 0 489.9 489.9" style="enable-background:new 0 0 489.9 489.9;" xml:space="preserve">
<g>
	<g>
		<path d="M300.3,209.4l-35.1,31V101.2c0-10.6-9.6-20.2-20.2-20.2s-20.2,8.5-20.2,20.2v139.2l-35.1-31c-8.5-7.4-21.3-6.4-28.7,2.1
			s-6.4,21.3,2.1,28.7l69.1,61.6c5.5,4.9,17.2,7.4,25.5,0l69.1-61.6c8.5-7.4,9.6-20.2,2.1-28.7S308.8,202,300.3,209.4z"/>
		<path d="M401.2,0H88.8C59,0,35.6,24.4,35.6,53.1v383.7c0,29.8,24.4,53.1,53.1,53.1h312.5c28.7,0,53.1-23.4,53.1-53.1V53.1
			C454.4,23.4,429.9,0,401.2,0z M412.9,436.9c0,6.4-5.3,11.7-11.7,11.7H88.8c-6.4,0-11.7-5.3-11.7-11.7v-51H413v51H412.9z
			 M412.9,345.4H77.1V53.1c0-6.4,5.3-11.7,11.7-11.7h312.5c6.4,0,11.7,5.3,11.7,11.7v292.3H412.9z"/>
		<path d="M226.9,437.9H263c10.6,0,20.2-9.6,20.2-20.2s-8.5-20.2-20.2-20.2h-36.1c-10.6,0-20.2,8.5-20.2,20.2
			C206.7,428.4,215.2,437.9,226.9,437.9z"/>
	</g>
</g>
<g>
</g>
<g>
</g>
<g>
</g>
<g>
</g>
<g>
</g>
<g>
</g>
<g>
</g>
<g>
</g>
<g>
</g>
<g>
</g>
<g>
</g>
<g>
</g>
<g>
</g>
<g>
</g>
<g>
</g>
</svg>
