<?xml version="1.0" encoding="iso-8859-1"?>
<!-- Generator: Adobe Illustrator 19.0.0, SVG Export Plug-In . SVG Version: 6.00 Build 0)  -->
<svg version="1.1" id="Layer_1" xmlns="http://www.w3.org/2000/svg" xmlns:xlink="http://www.w3.org/1999/xlink" x="0px" y="0px"
	 viewBox="0 0 489 489" style="enable-background:new 0 0 489 489;" xml:space="preserve">
<g>
	<g>
		<path d="M382.2,0H106.8c-25.6,0-47,20.3-47,47v395c0,25.6,20.3,47,47,47h275.4c26.7,0,47-21.4,47-48V47
			C429.2,21.4,408.9,0,382.2,0z M388.6,440.9c0,3.2-3.2,6.4-6.4,6.4H106.8c-3.2,0-6.4-3.2-6.4-6.4V47c0-3.2,3.2-6.4,6.4-6.4h275.4
			c3.2,0,6.4,3.2,6.4,6.4V440.9z"/>
		<path d="M326.7,104.7H162.3c-10.7,0-20.3,8.5-20.3,20.3v239.1c0,10.7,8.5,20.3,20.3,20.3h164.4c10.7,0,20.3-9.6,20.3-21.4V124.9
			C347,114.3,338.4,104.7,326.7,104.7z M305.3,343.8H182.6V145.2h122.8v198.6H305.3z"/>
		<path d="M226.4,264.8h36.3c11.7,0,20.3-9.6,20.3-20.3s-8.5-20.3-20.3-20.3h-36.3c-10.7,0-20.3,9.6-20.3,20.3
			S214.6,264.8,226.4,264.8z"/>
	</g>
</g>
<g>
</g>
<g>
</g>
<g>
</g>
<g>
</g>
<g>
</g>
<g>
</g>
<g>
</g>
<g>
</g>
<g>
</g>
<g>
</g>
<g>
</g>
<g>
</g>
<g>
</g>
<g>
</g>
<g>
</g>
</svg>
