<?xml version="1.0" encoding="iso-8859-1"?>
<!-- Generator: Adobe Illustrator 19.0.0, SVG Export Plug-In . SVG Version: 6.00 Build 0)  -->
<svg version="1.1" id="Layer_1" xmlns="http://www.w3.org/2000/svg" xmlns:xlink="http://www.w3.org/1999/xlink" x="0px" y="0px"
	 viewBox="0 0 489.144 489.144" style="enable-background:new 0 0 489.144 489.144;" xml:space="preserve">
<g>
	<g>
		<path d="M270.3,0.072H40c-22.1,0-40,17.9-40,40v409c0,22.1,17.9,40,40,40h230.3c22.1,0,40-18.9,40-40v-409
			C310.2,17.972,292.3,0.072,270.3,0.072z M270.3,446.972l-229.2,1.1l-1.1-408h229.2h1.1V446.972z"/>
		<path d="M167.2,60.072H142c-10.5,0-20,9.5-20,20s8.4,20,20,20h25.2c11.6,0,20-9.5,20-20S178.8,60.072,167.2,60.072z"/>
		<path d="M154.6,360.772c-14.7,0-27.3,12.6-27.3,28.4s12.6,28.4,27.3,28.4s27.3-12.6,27.3-28.4S169.3,360.772,154.6,360.772z"/>
		<path d="M452.2,79.972c-5.3-10.5-17.9-13.7-27.3-8.4c-10.5,5.3-13.7,17.9-8.4,27.3c0,1.1,70.5,131.4-1.1,291.3
			c-4.2,10.5,0,23.1,10.5,27.3c3.2,1.1,16.3,9,27.3-9.5C533.1,229.372,455.3,86.272,452.2,79.972z"/>
		<path d="M357.5,118.872c-9.5,5.3-12.6,17.9-7.4,27.3c2.1,4.2,48.4,89.4-1.1,195.6c-5.3,10.5-1.1,22.1,9.5,27.3
			c2.1,1.1,15.3,8.7,27.3-10.5c58.9-126.2,1.1-228.2-1.1-232.4C379.6,116.772,367,113.672,357.5,118.872z"/>
	</g>
</g>
<g>
</g>
<g>
</g>
<g>
</g>
<g>
</g>
<g>
</g>
<g>
</g>
<g>
</g>
<g>
</g>
<g>
</g>
<g>
</g>
<g>
</g>
<g>
</g>
<g>
</g>
<g>
</g>
<g>
</g>
</svg>
