<?xml version="1.0" encoding="iso-8859-1"?>
<!-- Generator: Adobe Illustrator 19.0.0, SVG Export Plug-In . SVG Version: 6.00 Build 0)  -->
<svg version="1.1" id="Layer_1" xmlns="http://www.w3.org/2000/svg" xmlns:xlink="http://www.w3.org/1999/xlink" x="0px" y="0px"
	 viewBox="0 0 489.8 489.8" style="enable-background:new 0 0 489.8 489.8;" xml:space="preserve">
<g>
	<path d="M489.222,464l-78.4-446.8c-2.1-9.7-10.7-17.2-20.4-17.2h-291c-10.7,0-18.3,7.5-20.4,17.2l-78.5,447.9
		c-2.5,9.9,4,24.7,20.4,24.7h448.9C481.722,489.8,492.422,480.9,489.222,464z M90.422,188.9c0.5,0,0.9,0.1,1.4,0.1h57.8l-14.6,111.8
		h-64.3L90.422,188.9z M190.922,189h38.4v111.8h-52.9L190.922,189z M210.022,40.8h19.3v108.8h-33.2
		C196.122,149.7,210.022,41.6,210.022,40.8z M303.222,149.7h-33.1V40.8h19.3C289.322,41.9,303.222,149.7,303.222,149.7z
		 M229.322,340.1v108.8h-72.2l14.1-108.8L229.322,340.1L229.322,340.1z M270.122,340.1h58l14.2,108.8h-72.2V340.1L270.122,340.1z
		 M270.122,300.8V189h38.3l14.6,111.8H270.122L270.122,300.8z M349.722,189h50.3l19.4,111.8h-55.1L349.722,189z M393.222,149.7
		h-48.6l-14.2-108.9h43.9L393.222,149.7z M116.522,40.8h52.4l-14.2,108.8h-57.4L116.522,40.8z M63.722,340.1h66.1l-14.2,108.8h-71
		L63.722,340.1z M383.722,449l-14.2-108.8h56.8l18.9,108.8H383.722z"/>
</g>
<g>
</g>
<g>
</g>
<g>
</g>
<g>
</g>
<g>
</g>
<g>
</g>
<g>
</g>
<g>
</g>
<g>
</g>
<g>
</g>
<g>
</g>
<g>
</g>
<g>
</g>
<g>
</g>
<g>
</g>
</svg>
