<?xml version="1.0" encoding="iso-8859-1"?>
<!-- Generator: Adobe Illustrator 19.0.0, SVG Export Plug-In . SVG Version: 6.00 Build 0)  -->
<svg version="1.1" id="Layer_1" xmlns="http://www.w3.org/2000/svg" xmlns:xlink="http://www.w3.org/1999/xlink" x="0px" y="0px"
	 viewBox="0 0 490.8 490.8" style="enable-background:new 0 0 490.8 490.8;" xml:space="preserve">
<g>
	<path d="M469.8,448.55v-194.9c0-11.5-9.4-20.8-20.8-20.8h-74c-11.5,0-20.8,9.4-20.8,20.8v194.9h-52.1v-331.4
		c0-11.5-9.4-20.8-20.8-20.8h-74c-11.5,0-20.8,9.4-20.8,20.8v331.4h-51.1V21.35c0-11.5-9.4-20.8-20.8-20.8h-74
		c-11.5,0-20.8,9.4-20.8,20.8v427.3c-11,0.6-19.8,9.7-19.8,20.8c0,11.5,9.4,20.8,20.8,20.8h448.1c11.5,0,20.8-9.4,21.9-20.8
		C490.6,457.95,481.2,448.55,469.8,448.55z M395.8,273.45h33.3v175.1h-33.3V273.45z M228,136.95h33.3v311.6H228V136.95z M93.6,41.15
		v407.5H60.2V41.15H93.6z"/>
</g>
<g>
</g>
<g>
</g>
<g>
</g>
<g>
</g>
<g>
</g>
<g>
</g>
<g>
</g>
<g>
</g>
<g>
</g>
<g>
</g>
<g>
</g>
<g>
</g>
<g>
</g>
<g>
</g>
<g>
</g>
</svg>
