<?xml version="1.0" encoding="iso-8859-1"?>
<!-- Generator: Adobe Illustrator 19.0.0, SVG Export Plug-In . SVG Version: 6.00 Build 0)  -->
<svg version="1.1" id="Layer_1" xmlns="http://www.w3.org/2000/svg" xmlns:xlink="http://www.w3.org/1999/xlink" x="0px" y="0px"
	 viewBox="0 0 490.1 490.1" style="enable-background:new 0 0 490.1 490.1;" xml:space="preserve">
<g>
	<g>
		<path d="M488.9,20.45c0-10.7-8.5-20.4-20.3-20.4H20.3C9.6,0.05,0,8.65,0,20.45v449.2c0,10.7,8.5,20.4,20.3,20.4h448.4
			c10.7,0,20.3-8.6,21.4-20.4L488.9,20.45z M447.3,449.25H41.6v-93.5h405.7L447.3,449.25L447.3,449.25z M447.3,313.85H41.6v-273
			h405.7L447.3,313.85L447.3,313.85z"/>
		<path d="M131.3,423.45h31c10.7,0,20.3-9.7,20.3-20.4c0-10.7-8.5-20.4-20.3-20.4h-31c-10.7,0-20.3,8.6-20.3,20.4
			C111,413.75,119.6,423.45,131.3,423.45z"/>
		<path d="M326.7,423.45h31c11.7,0,21.4-9.7,20.3-20.4c0-10.7-8.5-20.4-20.3-20.4h-31c-10.7,0-20.3,8.6-20.3,20.4
			C306.4,413.75,314.9,423.45,326.7,423.45z"/>
	</g>
</g>
<g>
</g>
<g>
</g>
<g>
</g>
<g>
</g>
<g>
</g>
<g>
</g>
<g>
</g>
<g>
</g>
<g>
</g>
<g>
</g>
<g>
</g>
<g>
</g>
<g>
</g>
<g>
</g>
<g>
</g>
</svg>
