<?xml version="1.0" encoding="iso-8859-1"?>
<!-- Generator: Adobe Illustrator 19.0.0, SVG Export Plug-In . SVG Version: 6.00 Build 0)  -->
<svg version="1.1" id="Layer_1" xmlns="http://www.w3.org/2000/svg" xmlns:xlink="http://www.w3.org/1999/xlink" x="0px" y="0px"
	 viewBox="0 0 490.929 490.929" style="enable-background:new 0 0 490.929 490.929;" xml:space="preserve">
<g>
	<g>
		<path d="M484.6,146.464l-68.8-68.8c-8.3-8.3-20.8-8.3-29.2,0l-34.4,34.4v-90.7c0-11.5-9.4-20.8-20.8-20.8H20.8
			c-11.5,0-20.8,9.4-20.8,20.8v448.2c0,11.5,9.4,20.8,20.8,20.8h309.5c11.5,0,20.8-9.4,21.9-20.8v-161.6c0-0.5,0-0.9-0.1-1.3
			l132.4-131C496.5,163.764,488.8,150.664,484.6,146.464z M310.5,449.764H40.6v-408.6h269.9v112.6l-117.7,117.8
			c-2.1,3.1-4.2,6.3-5.2,9.4l-27.1,94.8c-4,16.3,8.8,28.5,25,25l94.8-27.1c4.2-1,7.3-3.1,9.4-5.2l20.8-20.6L310.5,449.764
			L310.5,449.764z M264.7,336.164l-55.3,15.6l15.6-55.2l176.1-176.1l39.6,39.6L264.7,336.164z"/>
		<path d="M255.3,144.364c0-11.5-9.4-20.8-20.8-20.8H116.7c-11.5,0-20.8,9.4-20.8,20.8s9.4,20.8,20.8,20.8h117.8
			C245.9,165.164,255.3,155.864,255.3,144.364z"/>
	</g>
</g>
<g>
</g>
<g>
</g>
<g>
</g>
<g>
</g>
<g>
</g>
<g>
</g>
<g>
</g>
<g>
</g>
<g>
</g>
<g>
</g>
<g>
</g>
<g>
</g>
<g>
</g>
<g>
</g>
<g>
</g>
</svg>
