<?xml version="1.0" encoding="iso-8859-1"?>
<!-- Generator: Adobe Illustrator 19.0.0, SVG Export Plug-In . SVG Version: 6.00 Build 0)  -->
<svg version="1.1" id="Layer_1" xmlns="http://www.w3.org/2000/svg" xmlns:xlink="http://www.w3.org/1999/xlink" x="0px" y="0px"
	 viewBox="0 0 489 489" style="enable-background:new 0 0 489 489;" xml:space="preserve">
<g>
	<g>
		<path d="M433.7,0H55.3C24.5,0,0,24.5,0,55.3v378.4C0,464.5,24.4,489,55.3,489h378.4c30.8,0,55.3-24.4,55.3-55.3V55.3
			C489,24.5,464.5,0,433.7,0z M448.6,433.7c0,8.5-6.4,14.9-14.9,14.9H55.3c-8.5,0-14.9-6.4-14.9-14.9V55.3c0-8.5,6.4-14.9,14.9-14.9
			h378.4c8.5,0,14.9,6.4,14.9,14.9V433.7z"/>
		<path d="M388,96.8H101c-10.6,0-20.2,8.5-20.2,20.2v244.5c0,10.6,8.5,20.2,20.2,20.2h287c11.7,0,20.2-8.5,20.2-20.2V117
			C408.2,106.3,399.7,96.8,388,96.8z M367.8,341.2H121.2V137.1h246.6V341.2z"/>
		<path d="M262.6,395.4h-36.1c-10.6,0-20.2,8.5-20.2,20.2c0,10.6,8.5,20.2,20.2,20.2h36.1c10.6,0,20.2-8.5,20.2-20.2
			C282.8,405,274.3,395.4,262.6,395.4z"/>
	</g>
</g>
<g>
</g>
<g>
</g>
<g>
</g>
<g>
</g>
<g>
</g>
<g>
</g>
<g>
</g>
<g>
</g>
<g>
</g>
<g>
</g>
<g>
</g>
<g>
</g>
<g>
</g>
<g>
</g>
<g>
</g>
</svg>
