<?xml version="1.0" encoding="iso-8859-1"?>
<!-- Generator: Adobe Illustrator 19.0.0, SVG Export Plug-In . SVG Version: 6.00 Build 0)  -->
<svg version="1.1" id="Layer_1" xmlns="http://www.w3.org/2000/svg" xmlns:xlink="http://www.w3.org/1999/xlink" x="0px" y="0px"
	 viewBox="0 0 490.047 490.047" style="enable-background:new 0 0 490.047 490.047;" xml:space="preserve">
<g>
	<path d="M479.928,3.624c-9.7-5.8-22.3-2.5-28.1,7.2l-11.6,19.5c-9.4,15.9-28.9,22.9-46.2,16.7l-98.8-35.3
		c-10.1-3.6-21-4.1-31.3-1.6l-5.2-4.8c-5.3-5.3-12.8-6.4-20.2-4.3l-162,53.2c-6.4,2.1-11.7,8.5-12.8,14.9l-60.8,275
		c-10.3,27.2,4.9,97.7,72.5,112.9c0,0,155.6,33,162,33c43.7,0,83.1-32,92.7-74.6l60.7-274.9c1.1-6.4-1.1-13.9-6.4-19.2l-60.5-55.9
		l56.4,20.1c35.8,12.8,75.9-1.7,95.3-34.4l11.6-19.5C492.928,21.924,489.728,9.324,479.928,3.624z M290.628,405.924
		c-5.3,24.5-27.7,42.6-53.3,42.6c-4.3,0-152.4-32-152.4-32c-24-3.3-49.4-32.1-41.6-63.9l57.5-263.2l123-40.4l-8.8,29.7
		c-15,5.2-25.7,19.4-25.7,36.3c0,21.3,17,38.4,38.4,38.4c21.3,0,38.4-17,38.4-38.4c0-10.5-4.2-20-11-26.9l7.2-24.4l85.8,79
		L290.628,405.924z"/>
</g>
<g>
</g>
<g>
</g>
<g>
</g>
<g>
</g>
<g>
</g>
<g>
</g>
<g>
</g>
<g>
</g>
<g>
</g>
<g>
</g>
<g>
</g>
<g>
</g>
<g>
</g>
<g>
</g>
<g>
</g>
</svg>
