<?xml version="1.0" encoding="iso-8859-1"?>
<!-- Generator: Adobe Illustrator 19.0.0, SVG Export Plug-In . SVG Version: 6.00 Build 0)  -->
<svg version="1.1" id="Layer_1" xmlns="http://www.w3.org/2000/svg" xmlns:xlink="http://www.w3.org/1999/xlink" x="0px" y="0px"
	 viewBox="0 0 490 490" style="enable-background:new 0 0 490 490;" xml:space="preserve">
<g>
	<path d="M468.798,0h-448.5c-10.6,0-20.2,9.6-20.2,20.2v312.1c0,10.7,8.5,20.2,20.2,20.2h204.5V376c-65.6,6.7-114,45.4-114,93.8
		c0,10.7,8.5,20.2,20.2,20.2h228c10.7,0,20.2-9.6,20.2-20.2c0-48.3-49.1-87-114-93.8v-23.4h204.5c10.7,0,20.2-8.5,20.2-20.2V20.2
		C490.098,9.6,480.498,0,468.798,0z M330.298,449.5h-170.4c13.8-20.2,47.9-34.1,85.2-34.1S315.398,430.3,330.298,449.5z
		 M448.598,312.1h-408V40.5h408V312.1z"/>
</g>
<g>
</g>
<g>
</g>
<g>
</g>
<g>
</g>
<g>
</g>
<g>
</g>
<g>
</g>
<g>
</g>
<g>
</g>
<g>
</g>
<g>
</g>
<g>
</g>
<g>
</g>
<g>
</g>
<g>
</g>
</svg>
