<?xml version="1.0" encoding="iso-8859-1"?>
<!-- Generator: Adobe Illustrator 19.0.0, SVG Export Plug-In . SVG Version: 6.00 Build 0)  -->
<svg version="1.1" id="Layer_1" xmlns="http://www.w3.org/2000/svg" xmlns:xlink="http://www.w3.org/1999/xlink" x="0px" y="0px"
	 viewBox="0 0 490.1 490.1" style="enable-background:new 0 0 490.1 490.1;" xml:space="preserve">
<g>
	<g>
		<path d="M87.6,213.017c46.9,0,85.5-38.6,87.6-86.5c55.3-14.6,76.1-14.6,139.7,0c2.1,46.9,40.7,85.5,87.6,85.5
			c48,0,87.6-40.7,87.6-88.6c0-56.3-54.2-80.3-76.1-89.7c-3.1-1-153.4-73.6-337.8,0c-23,10.4-76.2,33.3-76.2,89.6
			C0,172.317,39.6,213.017,87.6,213.017z M93.8,70.217c159.6-69.8,302.3,0,303.4,0c37.5,16.7,52.1,30.2,52.1,52.1
			c0,27.1-20.9,49-46.9,49c-26.1,0-46.9-21.9-46.9-49c0-2.1,0-5.2,1-8.3c1-10.4-5.2-20.9-15.6-22.9c-44.8-11.5-107.1-30.4-191.8,0
			c-10.4,3.1-16.7,12.5-14.6,22.9c1,3.1,1,5.2,1,8.3c0,27.1-20.9,49-46.9,49s-46.9-21.9-46.9-49
			C41.7,101.417,55.3,86.917,93.8,70.217z"/>
		<path d="M316,253.817v-46c0-11.5-9.4-20.9-20.9-20.9s-20.9,9.4-20.9,20.9v40.8c-2.1-0.1-58.4-0.1-60.5,0v-40.8
			c0-11.5-9.4-20.9-20.9-20.9s-20.9,9.4-20.9,20.9v45.9C74,275.717,0,363.917,0,468.417c0,11.5,9.4,20.9,20.9,20.9h448.3
			c11.5,0,18.8-7.3,18.8-24C487.9,361.917,413.2,275.617,316,253.817z M42.7,448.617c10.4-89.7,86.5-159.5,178.3-158.5h48
			c91.7,0,167.9,68.8,178.3,158.5H42.7z"/>
	</g>
</g>
<g>
</g>
<g>
</g>
<g>
</g>
<g>
</g>
<g>
</g>
<g>
</g>
<g>
</g>
<g>
</g>
<g>
</g>
<g>
</g>
<g>
</g>
<g>
</g>
<g>
</g>
<g>
</g>
<g>
</g>
</svg>
