<?xml version="1.0" encoding="iso-8859-1"?>
<!-- Generator: Adobe Illustrator 19.0.0, SVG Export Plug-In . SVG Version: 6.00 Build 0)  -->
<svg version="1.1" id="Layer_1" xmlns="http://www.w3.org/2000/svg" xmlns:xlink="http://www.w3.org/1999/xlink" x="0px" y="0px"
	 viewBox="0 0 490.1 490.1" style="enable-background:new 0 0 490.1 490.1;" xml:space="preserve">
<g>
	<g>
		<path d="M469.25,0H20.85c-11,0-20.8,8.7-20.8,20.6v448.9c0,10.8,8.7,20.6,20.8,20.6h448.4c12,0,20.8-9.7,20.8-20.6V20.6
			C490.05,9.7,481.35,0,469.25,0z M447.35,447.8H41.65V41.1h405.8v406.7L447.35,447.8L447.35,447.8z"/>
		<path d="M137.85,321.3h214.4c31.7,0,56.9-26,56.9-56.2V135.2c0-31.4-25.2-56.2-56.9-56.2h-214.4c-31.7,0-56.9,24.9-56.9,56.2V265
			C80.95,296.4,106.15,321.3,137.85,321.3z M122.55,135.2c0-8.7,6.6-15.1,15.3-15.1h214.4c8.8,0,15.3,6.5,15.3,15.1V265
			c0,8.7-6.6,15.1-15.3,15.1h-214.4c-8.8,0-15.3-6.5-15.3-15.1V135.2z"/>
		<path d="M86.45,408.9h30.6c12,0,20.8-8.7,21.9-20.6c0-10.8-8.7-20.6-20.8-20.6h-31.7c-10.9,0-20.8,8.7-20.8,20.6
			C65.65,399.1,74.45,408.9,86.45,408.9z"/>
		<path d="M260.35,367.8h-31.7c-10.9,0-20.8,8.7-20.8,20.6c0,10.8,8.8,20.6,20.8,20.6h31.7c12,0,21.9-8.7,20.8-20.6
			C281.15,377.5,272.35,367.8,260.35,367.8z"/>
		<path d="M371.95,367.8c-10.9,0-20.8,8.7-20.8,20.6c0,10.8,8.8,20.6,20.8,20.6h31.7c12,0,21.9-8.7,20.8-20.6
			c0-10.8-8.8-20.6-20.8-20.6H371.95z"/>
	</g>
</g>
<g>
</g>
<g>
</g>
<g>
</g>
<g>
</g>
<g>
</g>
<g>
</g>
<g>
</g>
<g>
</g>
<g>
</g>
<g>
</g>
<g>
</g>
<g>
</g>
<g>
</g>
<g>
</g>
<g>
</g>
</svg>
