<?xml version="1.0" encoding="iso-8859-1"?>
<!-- Generator: Adobe Illustrator 19.0.0, SVG Export Plug-In . SVG Version: 6.00 Build 0)  -->
<svg version="1.1" id="Layer_1" xmlns="http://www.w3.org/2000/svg" xmlns:xlink="http://www.w3.org/1999/xlink" x="0px" y="0px"
	 viewBox="0 0 489.7 489.7" style="enable-background:new 0 0 489.7 489.7;" xml:space="preserve">
<g>
	<g>
		<g>
			<path d="M469.35,0h-449C9.65,0,0.05,9.6,0.05,20.3v337.9c0,10.7,8.6,20.3,20.3,20.3h204.2v70.6h-88.7c-10.7,0-20.3,9.6-20.3,20.3
				s8.6,20.3,20.3,20.3h218.1c10.7,0,19.2-9.6,19.2-20.3s-8.6-20.3-20.3-20.3h-87.7v-70.6h204.2c10.7,0,20.3-8.6,20.3-20.3V20.4
				C489.75,9.7,480.05,0,469.35,0z M448.05,337.9H40.65V40.7h407.4V337.9L448.05,337.9z"/>
		</g>
		<g>
			<path d="M201.75,103.2c-7.5,0-13.5,6.1-13.5,13.5v54h-54v-54c0-7.5-6.1-13.5-13.5-13.5c-7.5,0-13.5,6.1-13.5,13.5v135.1
				c0,7.5,6.1,13.5,13.5,13.5c7.5,0,13.5-6.1,13.5-13.5v-54h54v54c0,7.5,6.1,13.5,13.5,13.5c7.5,0,13.5-6.1,13.5-13.5V116.7
				C215.25,109.2,209.25,103.2,201.75,103.2z"/>
			<path d="M301.45,103.2h-39.3c-7.5,0-13.5,6.1-13.5,13.5v135.1c0,7.5,6.1,13.5,13.5,13.5h39.3c44.7,0,81-36.4,81-81
				C382.45,139.5,346.15,103.2,301.45,103.2z M301.45,238.2h-25.8v-108h25.8c29.8,0,54,24.2,54,54S331.25,238.2,301.45,238.2z"/>
		</g>
	</g>
</g>
<g>
</g>
<g>
</g>
<g>
</g>
<g>
</g>
<g>
</g>
<g>
</g>
<g>
</g>
<g>
</g>
<g>
</g>
<g>
</g>
<g>
</g>
<g>
</g>
<g>
</g>
<g>
</g>
<g>
</g>
</svg>
