<?xml version="1.0" encoding="iso-8859-1"?>
<!-- Generator: Adobe Illustrator 19.0.0, SVG Export Plug-In . SVG Version: 6.00 Build 0)  -->
<svg version="1.1" id="Layer_1" xmlns="http://www.w3.org/2000/svg" xmlns:xlink="http://www.w3.org/1999/xlink" x="0px" y="0px"
	 viewBox="0 0 490.5 490.5" style="enable-background:new 0 0 490.5 490.5;" xml:space="preserve">
<g>
	<path d="M469.6,102.874H238l60.8-67.7c8.3-8.3,7.3-21.9-1-29.2c-8.3-8.3-21.9-7.3-29.2,1l-76.5,85.3l-76.5-85.2
		c-8.3-8.3-20.8-8.3-29.2-1s-9.4,20.8-1,29.2l60.1,67.7H20.8c-11.5,0-20.8,9.4-20.8,20.8v345.7c0,11.5,9.4,20.8,20.8,20.8h447.8
		c11.5,0,20.8-9.4,21.9-19.8v-346.8C490.4,112.274,481.1,102.874,469.6,102.874z M319.7,449.674H40.6v-306.2h279.1V449.674z
		 M448.8,449.674h-87.5v-306.2h87.5V449.674z"/>
</g>
<g>
</g>
<g>
</g>
<g>
</g>
<g>
</g>
<g>
</g>
<g>
</g>
<g>
</g>
<g>
</g>
<g>
</g>
<g>
</g>
<g>
</g>
<g>
</g>
<g>
</g>
<g>
</g>
<g>
</g>
</svg>
