<?xml version="1.0" encoding="iso-8859-1"?>
<!-- Generator: Adobe Illustrator 19.0.0, SVG Export Plug-In . SVG Version: 6.00 Build 0)  -->
<svg version="1.1" id="Layer_1" xmlns="http://www.w3.org/2000/svg" xmlns:xlink="http://www.w3.org/1999/xlink" x="0px" y="0px"
	 viewBox="0 0 489.5 489.5" style="enable-background:new 0 0 489.5 489.5;" xml:space="preserve">
<g>
	<g>
		<path d="M92.124,203.1c0,11.5,9.4,20.8,20.8,20.8c11.5,0,20.8-9.4,20.8-20.8v-70.8h70.8c11.5,0,21.9-9.4,21.9-20.8
			s-9.4-20.8-20.8-20.8h-71.9V20.8c0-11.5-9.4-20.8-20.8-20.8c-11.5,0-20.8,9.4-20.8,20.8v69.8h-70.8c-11.5,0-20.8,9.4-20.8,20.8
			s9.4,20.8,20.8,20.8h70.8C92.124,132.2,92.124,203.1,92.124,203.1z"/>
		<path d="M461.324,62c-60.9-58.4-127.9-22.7-144.6-4.2c-55.7,61.7-15.6,122.8,4.2,143.6c-34.3,61.4-52,78-120.7,119.6
			c-51.3-56.7-168.5-38-172.7,64.5c-1.1,28.1,24.3,104,99.9,104c23.9,0,48.9-8.3,67.6-14.6c206.1-82.5,266.5-250.1,278.7-277.6
			C490.424,153.6,501.824,102.6,461.324,62z M436.324,181.6c-9,20-72.1,182.9-254.9,253.8c-15.6,6.2-36.4,12.5-54.1,12.5
			c-46,0-59.3-45.8-59.3-62.4c0-65.4,79.7-69.9,110.3-28.1c6.2,8.3,17.7,10.4,27,5.2c93.7-55.1,112.4-73.8,159.2-158.1
			c4.2-8.3,2.1-19.8-6.2-26c-3.1-2.1-53.5-48.5-12.5-93.6c10.4-10.4,47.7-31.3,87.4,4.2C452.924,108.8,454.024,134.8,436.324,181.6z
			"/>
	</g>
</g>
<g>
</g>
<g>
</g>
<g>
</g>
<g>
</g>
<g>
</g>
<g>
</g>
<g>
</g>
<g>
</g>
<g>
</g>
<g>
</g>
<g>
</g>
<g>
</g>
<g>
</g>
<g>
</g>
<g>
</g>
</svg>
