<?xml version="1.0" encoding="iso-8859-1"?>
<!-- Generator: Adobe Illustrator 19.0.0, SVG Export Plug-In . SVG Version: 6.00 Build 0)  -->
<svg version="1.1" id="Layer_1" xmlns="http://www.w3.org/2000/svg" xmlns:xlink="http://www.w3.org/1999/xlink" x="0px" y="0px"
	 viewBox="0 0 489.969 489.969" style="enable-background:new 0 0 489.969 489.969;" xml:space="preserve">
<g>
	<g>
		<path d="M449.234,70.969h-157.5l42-33.1c8.6-7.5,10.7-20.3,3.2-28.9s-20.3-10.7-28.9-3.2l-63,49.1l-63.1-50.3
			c-9.6-7.5-21.4-5.3-28.9,3.2c-7.5,9.6-5.3,21.4,3.2,28.9l43.4,34.2h-158.8c-22.5,0-40.6,18.2-40.6,40.6v299.4
			c0,22.5,18.2,40.6,40.6,40.6h29.9v18.2c0,10.7,8.6,20.3,20.3,20.3c10.7,0,20.3-9.6,20.3-20.3v-18.2h267.3v18.2
			c0,10.7,8.6,20.3,20.3,20.3s20.3-9.6,20.3-20.3v-18.2h29.9c22.5,0,40.6-18.2,40.6-40.6v-299.3
			C489.934,89.069,471.734,70.969,449.234,70.969z M449.234,409.869h-407.4v-298.3h407.4V409.869L449.234,409.869z"/>
		<path d="M106.034,375.669h199.9c19.2,0,35.3-16,35.3-35.3v-159.3c0-19.2-16-35.3-35.3-35.3h-199.9c-19.2,0-35.3,16-35.3,35.3
			v159.3C70.734,359.669,86.834,375.669,106.034,375.669z M111.334,186.369h189.3v148.7h-189.3V186.369z"/>
		<path d="M399.034,235.569c11.8,0,20.3-9.6,20.3-20.3v-19.2c0-10.7-8.6-20.3-20.3-20.3c-10.7,0-20.3,8.6-20.3,20.3v19.2
			C378.734,225.969,387.234,235.569,399.034,235.569z"/>
		<path d="M399.034,330.769c11.8,0,20.3-9.6,20.3-20.3v-19.2c0-10.7-8.6-20.3-20.3-20.3c-10.7,0-20.3,8.6-20.3,20.3v19.2
			C378.734,321.169,387.234,330.769,399.034,330.769z"/>
	</g>
</g>
<g>
</g>
<g>
</g>
<g>
</g>
<g>
</g>
<g>
</g>
<g>
</g>
<g>
</g>
<g>
</g>
<g>
</g>
<g>
</g>
<g>
</g>
<g>
</g>
<g>
</g>
<g>
</g>
<g>
</g>
</svg>
