<?xml version="1.0" encoding="iso-8859-1"?>
<!-- Generator: Adobe Illustrator 19.0.0, SVG Export Plug-In . SVG Version: 6.00 Build 0)  -->
<svg version="1.1" id="Layer_1" xmlns="http://www.w3.org/2000/svg" xmlns:xlink="http://www.w3.org/1999/xlink" x="0px" y="0px"
	 viewBox="0 0 488.919 488.919" style="enable-background:new 0 0 488.919 488.919;" xml:space="preserve">
<g>
	<g>
		<path d="M180.259,229.4c-8.3,8.3-8.3,20.9,0,29.2c8.3,8.3,20.9,8.3,29.2,0l14.6-14.6v151.2c0,11.5,9.4,20.9,20.9,20.9
			c11.5,0,20.9-9.4,20.9-20.9V244.6l14.6,15c13.3,11.9,25,4.2,29.2-1c8.3-8.3,8.3-20.9,0-29.2l-50-50c-8.3-8.3-20.9-8.3-29.2,0
			L180.259,229.4z"/>
		<path d="M244.559,0c-22.9,0-222.1,1-222.1,70.9c0,0.3,76.4,382.1,76.4,382.1c1,7.3,6.3,13.4,13.6,15.6c145.4,45.3,262.7,1,265.9-1
			c6.3-2.1,11.5-7.3,12.5-14.6c0,0,75.8-384.3,75.6-385.4C460.159,2,267.159,0,244.559,0z M353.359,433.2
			c-29.2,9.4-113.6,29.2-217.9,0l-63-314.2c60.6,21.9,156.6,22.8,172.1,22.8s110.9-0.9,171.6-22.6L353.359,433.2z M244.559,100.1
			c-99,0-164.7-17.7-179.3-30.2c14.6-11.5,80.3-30.2,179.3-30.2s164.7,18.8,179.3,30.2C409.359,81.3,343.659,100.1,244.559,100.1z"
			/>
	</g>
</g>
<g>
</g>
<g>
</g>
<g>
</g>
<g>
</g>
<g>
</g>
<g>
</g>
<g>
</g>
<g>
</g>
<g>
</g>
<g>
</g>
<g>
</g>
<g>
</g>
<g>
</g>
<g>
</g>
<g>
</g>
</svg>
