<?xml version="1.0" encoding="iso-8859-1"?>
<!-- Generator: Adobe Illustrator 19.0.0, SVG Export Plug-In . SVG Version: 6.00 Build 0)  -->
<svg version="1.1" id="Layer_1" xmlns="http://www.w3.org/2000/svg" xmlns:xlink="http://www.w3.org/1999/xlink" x="0px" y="0px"
	 viewBox="0 0 491.2 491.2" style="enable-background:new 0 0 491.2 491.2;" xml:space="preserve">
<g>
	<g>
		<path d="M434.8,273.7L260.7,97.6c-8.3-7.3-21.9-7.3-29.2,0L57.4,273.7c-12.3,13.4-3,34.4,14.6,34.4h76.1v161.6
			c0,11.5,9.4,20.9,20.9,20.9h150.1c11.5,0,20.9-9.4,20.9-20.9V308.2h80.3C439.8,308.2,446.9,284.9,434.8,273.7z M320.1,267.5
			c-11.5,0-20.9,9.4-20.9,20.9V450H188.8V288.3c0-11.5-9.4-20.9-20.9-20.9H121l125.1-126.1l125.1,126.1h-51.1V267.5z"/>
		<path d="M470.3,0.6H20.9C9.4,0.6,0,10,0,21.5v94.9c0,11.5,9.4,20.9,20.9,20.9s20.9-9.4,20.9-20.9V41.3h407.6v75.1
			c0,11.5,9.4,20.9,20.9,20.9s20.9-9.4,20.9-19.8v-96C491.1,10,481.7,0.6,470.3,0.6z"/>
	</g>
</g>
<g>
</g>
<g>
</g>
<g>
</g>
<g>
</g>
<g>
</g>
<g>
</g>
<g>
</g>
<g>
</g>
<g>
</g>
<g>
</g>
<g>
</g>
<g>
</g>
<g>
</g>
<g>
</g>
<g>
</g>
</svg>
