<?xml version="1.0" encoding="iso-8859-1"?>
<!-- Generator: Adobe Illustrator 19.0.0, SVG Export Plug-In . SVG Version: 6.00 Build 0)  -->
<svg version="1.1" id="Layer_1" xmlns="http://www.w3.org/2000/svg" xmlns:xlink="http://www.w3.org/1999/xlink" x="0px" y="0px"
	 viewBox="0 0 478.606 478.606" style="enable-background:new 0 0 478.606 478.606;" xml:space="preserve">
<g>
	<g>
		<path d="M472.208,130.975l-126.1-125.1c-8.3-7.3-20.9-7.3-28.1,0l-97.4,96.5l-18.4-18.3c-8.3-7.3-20.9-7.3-28.1,0l-159.6,159.5
			c-25.2,25.2-13.7,62.4,5.2,81.3l134.5,133.5c21.5,21.5,58.7,28.8,82.4,5.2l159.5-157.4c4.2-3.3,11.5-17.7,0-29.2l-21.3-21.2
			l97.4-95.6C483.608,148.775,477.308,133.975,472.208,130.975z M208.408,435.375c-2.1,2.1-20.9,0-26.1-5.2l-134.4-134.5
			c-5.2-4.2-7.3-22.9-5.2-25l144.9-143.9l165.8,164.7L208.408,435.375z M347.108,227.975l-50.1-49.5l-47.8-47.6l82.2-82.2l98,97
			L347.108,227.975z"/>
		<path d="M304.408,106.975l-6.3,6.3c-7.3,7.3-7.3,20.9,0,28.1c9.5,9.5,25,4.2,28.1,0l6.3-6.3c7.3-7.3,7.3-20.9,0-28.1
			S311.708,99.675,304.408,106.975z"/>
		<path d="M335.608,177.875c9.6,9.6,25,4.2,28.1,0l6.3-6.3c7.3-7.3,7.3-20.9,0-28.1s-20.9-7.3-28.1,0l-6.3,6.3
			C328.308,157.075,328.308,170.575,335.608,177.875z"/>
	</g>
</g>
<g>
</g>
<g>
</g>
<g>
</g>
<g>
</g>
<g>
</g>
<g>
</g>
<g>
</g>
<g>
</g>
<g>
</g>
<g>
</g>
<g>
</g>
<g>
</g>
<g>
</g>
<g>
</g>
<g>
</g>
</svg>
