<?xml version="1.0" encoding="iso-8859-1"?>
<!-- Generator: Adobe Illustrator 19.0.0, SVG Export Plug-In . SVG Version: 6.00 Build 0)  -->
<svg version="1.1" id="Layer_1" xmlns="http://www.w3.org/2000/svg" xmlns:xlink="http://www.w3.org/1999/xlink" x="0px" y="0px"
	 viewBox="0 0 489.9 489.9" style="enable-background:new 0 0 489.9 489.9;" xml:space="preserve">
<g>
	<path d="M469.4,230.5h-7.6c-30.5,0-55.3,24.8-55.3,55.3v140.5c0,7.9-6.4,14.3-14.3,14.3H198.7c-7.9,0-14.3-6.4-14.3-14.3v-24.4
		h109.8c26.7,0,48.1-22.5,48.1-49.2V176.3c0-10.7-8.6-20.3-20.3-20.3h-26.7V28.6c0-10.7-8.6-20.3-20.3-20.3H67.4
		c-10.7,0-20.3,8.6-20.3,20.3v127.3H20.3C9.6,155.9,0,164.5,0,176.2v176.5c0,27.8,22.5,49.2,49.2,49.2h94.2v24.4
		c0,30.5,24.8,55.3,55.3,55.3h193.5c30.5,0,55.3-24.8,55.3-55.3V285.8c0-7.9,6.4-14.3,14.3-14.3h7.6c11.3,0,20.5-9.2,20.5-20.5
		S480.7,230.5,469.4,230.5z M88.8,49h166.9v107H88.8V49z M48.1,361.4c-4.3,0-7.5-3.2-7.5-7.5V197.7h260v156.2c0,4.3-3.2,7.5-7.5,7.5
		H48.1L48.1,361.4z"/>
</g>
<g>
</g>
<g>
</g>
<g>
</g>
<g>
</g>
<g>
</g>
<g>
</g>
<g>
</g>
<g>
</g>
<g>
</g>
<g>
</g>
<g>
</g>
<g>
</g>
<g>
</g>
<g>
</g>
<g>
</g>
</svg>
