<?xml version="1.0" encoding="iso-8859-1"?>
<!-- Generator: Adobe Illustrator 19.0.0, SVG Export Plug-In . SVG Version: 6.00 Build 0)  -->
<svg version="1.1" id="Layer_1" xmlns="http://www.w3.org/2000/svg" xmlns:xlink="http://www.w3.org/1999/xlink" x="0px" y="0px"
	 viewBox="0 0 486.669 486.669" style="enable-background:new 0 0 486.669 486.669;" xml:space="preserve">
<g>
	<g>
		<path d="M243.471,304c84.3,0,152.5-67.2,152.5-151.5S327.771,0,243.471,0s-152.5,67.2-152.5,151.5S159.271,304,243.471,304z
			 M243.471,40.5c52.8,0,97,35.7,108.9,84.6c-7.3,11.6-34.2,47.1-85.4,43.4c-11.7-1.1-22.4,6.4-22.4,18.1
			c-0.1,27.1,25.6,22.4,29.9,22.4c32.5,0,57.7-11.5,76.3-25.1c-13.9,46-56.6,79.5-107.2,79.5c-61.9,0-112-49.1-112-110.9
			S181.671,40.5,243.471,40.5z"/>
		<path d="M482.471,453.3c-46.9-59.7-117.3-93.9-194.1-93.9h-89.6c-76.8,0-147.2,34.1-194.1,93.9c-7.5,9.6-5.3,22.4,3.2,28.8
			c9.6,7.5,22.4,5.3,28.8-3.2c38.4-49.1,98.1-77.9,162.1-77.9h89.5c64,0,122.7,27.7,162.1,77.9c12.4,12.5,24.5,6.4,28.8,3.2
			C487.771,474.6,488.871,461.8,482.471,453.3z"/>
	</g>
</g>
<g>
</g>
<g>
</g>
<g>
</g>
<g>
</g>
<g>
</g>
<g>
</g>
<g>
</g>
<g>
</g>
<g>
</g>
<g>
</g>
<g>
</g>
<g>
</g>
<g>
</g>
<g>
</g>
<g>
</g>
</svg>
