<?xml version="1.0" encoding="iso-8859-1"?>
<!-- Generator: Adobe Illustrator 19.0.0, SVG Export Plug-In . SVG Version: 6.00 Build 0)  -->
<svg version="1.1" id="Layer_1" xmlns="http://www.w3.org/2000/svg" xmlns:xlink="http://www.w3.org/1999/xlink" x="0px" y="0px"
	 viewBox="0 0 490.1 490.1" style="enable-background:new 0 0 490.1 490.1;" xml:space="preserve">
<g>
	<g>
		<path d="M469,216.35H155.2c-11.5,0-20.9,9.4-20.9,20.9v43.2L26,252.85c-6.3-1-12.5,0-17.7,4.2c-5.2,3.1-8.3,9.4-8.3,15.6v141.8
			c0,23.3,22.4,21.1,26.1,19.8l108.4-27.5v42.1c0,11.5,9.4,20.9,20.9,20.9h313.8c11.5,0,20.9-9.4,20.9-20.9v-211.6
			C489.9,225.75,480.5,216.35,469,216.35z M40.6,388.45v-89.7l93.8,23.7v42.2L40.6,388.45z M449.2,429.05H176.1v-171h273.1V429.05z"
			/>
		<path d="M230.3,191.35c46.9,0,85.5-38.6,85.5-85.5s-38.6-85.5-85.5-85.5s-85.5,38.6-85.5,85.5S183.4,191.35,230.3,191.35z
			 M230.3,59.95c24,0,44.8,20.9,44.8,44.8c0,25-19.8,44.8-44.8,44.8s-44.8-19.8-44.8-44.8S205.3,59.95,230.3,59.95z"/>
		<path d="M406.5,174.65c37.5,0,68.8-31.3,69.9-69.9c0-38.6-31.3-69.9-69.9-69.9s-69.9,31.3-69.9,69.9S367.9,174.65,406.5,174.65z
			 M406.5,76.65c15.6,0,28.1,12.5,29.2,29.2c0,16.7-13.6,29.2-29.2,29.2c-16.7,0-29.2-13.6-29.2-29.2
			C377.3,89.15,390.9,76.65,406.5,76.65z"/>
	</g>
</g>
<g>
</g>
<g>
</g>
<g>
</g>
<g>
</g>
<g>
</g>
<g>
</g>
<g>
</g>
<g>
</g>
<g>
</g>
<g>
</g>
<g>
</g>
<g>
</g>
<g>
</g>
<g>
</g>
<g>
</g>
</svg>
