<?xml version="1.0" encoding="iso-8859-1"?>
<!-- Generator: Adobe Illustrator 19.0.0, SVG Export Plug-In . SVG Version: 6.00 Build 0)  -->
<svg version="1.1" id="Layer_1" xmlns="http://www.w3.org/2000/svg" xmlns:xlink="http://www.w3.org/1999/xlink" x="0px" y="0px"
	 viewBox="0 0 489.071 489.071" style="enable-background:new 0 0 489.071 489.071;" xml:space="preserve">
<g>
	<g>
		<g>
			<g>
				<path d="M305.947,484.329l-146.2-128.1h-60.8c-54.4,0-98.2-41.6-98.2-91.8v-42.7c0-51.2,43.8-91.8,98.2-91.8h60.8l147.3-124.9
					c9.9-9.7,33.1-5.7,33.1,14.9v448.4C340.147,491.629,313.747,492.629,305.947,484.329z M98.847,170.429
					c-32,0-57.6,23.5-57.6,51.2v42.7c0,27.8,25.6,51.2,57.6,51.2h69.4c5.3,0,9.6,2.1,13.9,5.3l118.5,103.6v-359.6l-119.6,100.3
					c-3.2,3.2-8.5,5.3-12.8,5.3L98.847,170.429L98.847,170.429z"/>
			</g>
			<g>
				<path d="M414.847,428.829c-9.6-5.3-13.9-18.1-8.5-27.8c91.8-168.7,4.3-305.3,1.1-311.7c-6.4-9.6-3.2-22.4,5.3-27.8
					c9.6-6.4,22.4-3.2,27.8,5.3c4.3,6.4,104.6,162.3,1.1,353.4C439.447,426.629,429.347,434.829,414.847,428.829z"/>
			</g>
		</g>
	</g>
</g>
<g>
</g>
<g>
</g>
<g>
</g>
<g>
</g>
<g>
</g>
<g>
</g>
<g>
</g>
<g>
</g>
<g>
</g>
<g>
</g>
<g>
</g>
<g>
</g>
<g>
</g>
<g>
</g>
<g>
</g>
</svg>
