<?xml version="1.0" encoding="iso-8859-1"?>
<!-- Generator: Adobe Illustrator 19.0.0, SVG Export Plug-In . SVG Version: 6.00 Build 0)  -->
<svg version="1.1" id="Layer_1" xmlns="http://www.w3.org/2000/svg" xmlns:xlink="http://www.w3.org/1999/xlink" x="0px" y="0px"
	 viewBox="0 0 489.9 489.9" style="enable-background:new 0 0 489.9 489.9;" xml:space="preserve">
<g>
	<g>
		<path d="M449.25,204.3c0-113.4-92-204.3-204.3-204.3S40.65,92,40.65,203.3c0,106.5,81.1,193.2,184,203.3v42.7h-55.7
			c-10.7,0-20.3,9.6-20.3,20.3c0,10.7,9.6,20.3,20.3,20.3h152c10.7,0,20.3-9.6,20.3-20.3c0-10.7-8.6-20.3-20.3-20.3h-55.6v-42.7
			C368.15,396.4,449.25,309.8,449.25,204.3z M82.35,203.3c0-89.9,72.8-162.6,162.6-162.6s162.6,73.8,162.6,162.6
			c0,89.9-72.8,162.6-162.6,162.6S82.35,293.1,82.35,203.3z"/>
		<path d="M349.75,203.3c0-57.8-47.1-104.8-104.8-104.8c-57.8,0-104.8,47.1-104.8,104.8s47,104.8,104.8,104.8
			S349.75,262.1,349.75,203.3z M181.85,203.3c0-34.2,27.8-63.1,63.1-63.1s63.1,28.9,63.1,63.1s-27.8,63.1-63.1,63.1
			C210.75,266.4,181.85,238.6,181.85,203.3z"/>
	</g>
</g>
<g>
</g>
<g>
</g>
<g>
</g>
<g>
</g>
<g>
</g>
<g>
</g>
<g>
</g>
<g>
</g>
<g>
</g>
<g>
</g>
<g>
</g>
<g>
</g>
<g>
</g>
<g>
</g>
<g>
</g>
</svg>
