<?xml version="1.0" encoding="iso-8859-1"?>
<!-- Generator: Adobe Illustrator 19.0.0, SVG Export Plug-In . SVG Version: 6.00 Build 0)  -->
<svg version="1.1" id="Layer_1" xmlns="http://www.w3.org/2000/svg" xmlns:xlink="http://www.w3.org/1999/xlink" x="0px" y="0px"
	 viewBox="0 0 489 489" style="enable-background:new 0 0 489 489;" xml:space="preserve">
<g>
	<g>
		<path d="M243.5,78.05c-91.5,0-165.4,73.9-165.4,165.4c0,44.7,17.7,86.3,48.9,117.6c8.3,8.3,20.8,8.3,29.1,0s8.3-20.8,0-29.1
			c-23.9-23.9-36.4-55.1-36.4-88.4c0-68.7,56.2-124.8,124.8-124.8s124.8,56.1,124.8,124.8c0,33.3-12.5,64.5-36.4,88.4
			c-8.3,8.3-8.3,20.8,0,29.1c6.2,6.2,17.9,9.4,27,0c31.2-31.2,48.9-72.8,48.9-117.6C408.9,151.95,335,78.05,243.5,78.05z"/>
		<path d="M244.5,0.05C109.3,0.05,0,109.35,0,244.55c0,65.5,25,126.9,70.7,172.7c8.3,8.3,20.8,8.3,29.1,0s8.3-20.8,0-29.1
			c-38.4-38.5-59.2-89.5-59.2-143.6c0-112.4,91.5-203.9,202.9-203.9c112.4,0,203.9,91.5,203.9,203.9c0,54.1-20.8,105.1-59.3,143.6
			c-8.3,8.3-8.3,20.8,0,29.1c11.9,11,25,4.2,29.1,0c46.8-45.8,71.8-107.2,71.8-172.7C489,109.35,379.7,0.05,244.5,0.05z"/>
		<path d="M244.5,320.45c-11.4,0-20.8,9.4-20.8,20.8v126.9c0,11.4,9.4,20.8,20.8,20.8c11.4,0,20.8-9.4,20.8-20.8v-126.8
			C265.3,329.85,255.9,320.45,244.5,320.45z"/>
		<path d="M243.5,172.55c-38.7,0-70.1,31.4-70.1,70.1s31.4,70.1,70.1,70.1s70.1-31.4,70.1-70.1
			C313.6,204.05,282.1,172.55,243.5,172.55z M243.5,271.75c-16,0-29.1-13.1-29.1-29.1s13-29.1,29.1-29.1s29.1,13.1,29.1,29.1
			S259.5,271.75,243.5,271.75z"/>
	</g>
</g>
<g>
</g>
<g>
</g>
<g>
</g>
<g>
</g>
<g>
</g>
<g>
</g>
<g>
</g>
<g>
</g>
<g>
</g>
<g>
</g>
<g>
</g>
<g>
</g>
<g>
</g>
<g>
</g>
<g>
</g>
</svg>
