<?xml version="1.0" encoding="iso-8859-1"?>
<!-- Generator: Adobe Illustrator 19.0.0, SVG Export Plug-In . SVG Version: 6.00 Build 0)  -->
<svg version="1.1" id="Layer_1" xmlns="http://www.w3.org/2000/svg" xmlns:xlink="http://www.w3.org/1999/xlink" x="0px" y="0px"
	 viewBox="0 0 489.856 489.856" style="enable-background:new 0 0 489.856 489.856;" xml:space="preserve">
<g>
	<g>
		<path d="M244.391,92.856c-39.6,0-71.9,32.3-71.9,71.9c0,32.4,21.6,59.8,51.1,68.8v235.5c0,11.5,9.4,20.8,20.8,20.8
			s20.8-9.4,20.8-19.8v-236.5c29.5-9,51.1-36.5,51.1-68.8C316.29,125.156,283.991,92.856,244.391,92.856z M244.391,194.956
			c-16.7,0-30.2-13.5-30.2-30.2s13.5-30.2,30.2-30.2s30.2,13.5,30.2,30.2S261.091,194.956,244.391,194.956z"/>
		<path d="M427.79,6.356c-8.3-8.3-20.8-8.3-29.2-1c-8.3,8.3-8.3,20.8-1,29.2c67.7,71.9,67.7,189.7,0,261.6c-7.3,8.3-7.3,21.9,1,29.2
			c4,4.4,18.8,10.4,29.2-2.1C510.19,235.656,510.19,93.856,427.79,6.356z"/>
		<path d="M365.29,73.056c-8.3-8.3-20.8-8.3-29.2-1c-8.3,8.3-8.3,20.8-1,29.2c33.4,35.4,33.4,92.8,0,128.2c-7.3,8.3-7.3,21.9,1,29.2
			c2.5,3,18.4,11,29.2-2.1C413.19,206.456,413.19,124.156,365.29,73.056z"/>
		<path d="M91.191,34.456c7.3-8.3,7.3-20.8,0-28.1c-8.3-7.3-21.9-7.3-29.2,1c-82.3,87.5-82.3,229.3,0,316.8c13.4,11.9,24,4.2,28.1,1
			c8.3-8.3,8.3-20.8,1-29.2C23.391,224.156,23.391,106.356,91.191,34.456z"/>
		<path d="M153.691,73.056c-8.3-7.3-21.9-7.3-29.2,1c-46.9,50-46.9,132.4,0,183.4c14,12.5,25.6,5.2,29.2,2.1
			c8.3-8.3,8.3-20.8,1-29.2c-33.4-35.4-33.4-92.8,0-128.2C161.991,93.856,161.991,80.356,153.691,73.056z"/>
	</g>
</g>
<g>
</g>
<g>
</g>
<g>
</g>
<g>
</g>
<g>
</g>
<g>
</g>
<g>
</g>
<g>
</g>
<g>
</g>
<g>
</g>
<g>
</g>
<g>
</g>
<g>
</g>
<g>
</g>
<g>
</g>
</svg>
