<?xml version="1.0" encoding="iso-8859-1"?>
<!-- Generator: Adobe Illustrator 19.0.0, SVG Export Plug-In . SVG Version: 6.00 Build 0)  -->
<svg version="1.1" id="Layer_1" xmlns="http://www.w3.org/2000/svg" xmlns:xlink="http://www.w3.org/1999/xlink" x="0px" y="0px"
	 viewBox="0 0 479.85 479.85" style="enable-background:new 0 0 479.85 479.85;" xml:space="preserve">
<g>
	<g>
		<g>
			<path d="M381.125,221.35h-15.6c-30.1-38.4-76.8-61.3-125.6-61.3s-95.5,22.8-125.6,61.3h-15.6c-54,0-98.6,44.6-98.6,98.6
				s44.6,98.6,98.6,98.6h15.6c30.1,38.4,76.8,61.3,125.6,61.3s95.5-22.8,125.6-61.3h15.6c54,0,98.6-44.6,98.6-98.6
				C479.725,266.05,435.125,221.35,381.125,221.35z M381.125,378.15h-26c-6.2,0-12.5,3.1-16.6,8.3c-21.8,32.2-59.2,51.9-98.6,51.9
				s-75.8-18.7-98.6-51.9c-4.2-5.2-10.4-8.3-16.6-8.3h-26c-32.2,0-58.1-26-58.1-58.1c0-32.2,26-58.1,58.1-58.1h26
				c6.2,0,12.5-3.1,16.6-8.3c21.8-32.2,59.2-51.9,98.6-51.9s75.8,18.7,98.6,51.9c4.2,5.2,10.4,8.3,16.6,8.3h26
				c32.2,0,58.1,26,58.1,58.1S413.325,378.15,381.125,378.15z"/>
			<path d="M148.525,77.05c49.8-49.8,130.8-49.8,180.6,0c7.2,7.1,19.8,8.7,28,0c8.3-7.3,8.3-19.7,0-28
				c-65.3-65.4-171.2-65.4-236.6,0c-8.3,7.3-8.3,19.7,0,28C127.825,85.35,140.225,85.35,148.525,77.05z"/>
			<path d="M179.725,107.15c-8.3,7.3-8.3,19.7,0,28c7.3,8.3,19.7,8.3,28,0c17.6-17.6,45.7-17.6,63.3,0c10.1,9.3,22.4,6.8,29.1,0
				c8.3-7.3,8.3-19.7,0-28C266.925,73.95,212.925,73.95,179.725,107.15z"/>
		</g>
		<g>
			<path d="M231.225,269.95c-4.7-1.3-9.6,1.5-10.8,6.3l-15.1,56.5l-15.1-56.5c-0.9-3.5-3.8-5.9-7.1-6.4l0,0c-0.1,0-0.2,0-0.2,0
				c-0.1,0-0.3,0-0.4-0.1c-0.1,0-0.3,0-0.4,0c-0.1,0-0.1,0-0.2,0l0,0c-4-0.1-7.7,2.5-8.7,6.6l-15.1,56.5l-15.1-56.5
				c-1.3-4.7-6.1-7.5-10.8-6.3c-4.7,1.3-7.5,6.1-6.3,10.8l23.7,88.5c1,3.9,4.5,6.6,8.6,6.6c4,0,7.5-2.7,8.6-6.6l15.1-56.5l15.1,56.5
				c1,3.9,4.5,6.6,8.6,6.6c4,0,7.5-2.7,8.6-6.6l23.7-88.5C238.725,276.05,235.925,271.25,231.225,269.95z"/>
			<path d="M253.125,313.85c-4.9,0-8.9,4-8.9,8.9v44.3c0,4.9,4,8.9,8.9,8.9s8.9-4,8.9-8.9v-44.3
				C261.925,317.85,257.925,313.85,253.125,313.85z"/>
			<path d="M253.125,287.55c-4.9,0-8.9,4-8.9,8.9v3.7c0,4.9,4,8.9,8.9,8.9s8.9-4,8.9-8.9v-3.7
				C261.925,291.45,257.925,287.55,253.125,287.55z"/>
			<path d="M331.625,313.85c-4.9,0-8.9,4-8.9,8.9v44.3c0,4.9,4,8.9,8.9,8.9s8.9-4,8.9-8.9v-44.3
				C340.525,317.85,336.525,313.85,331.625,313.85z"/>
			<path d="M331.625,287.55c-4.9,0-8.9,4-8.9,8.9v3.7c0,4.9,4,8.9,8.9,8.9s8.9-4,8.9-8.9v-3.7
				C340.525,291.45,336.525,287.55,331.625,287.55z"/>
			<path d="M301.925,287.35c4.9,0,8.9-4,8.9-8.9s-4-8.9-8.9-8.9c-12.7,0-23,10.3-23,23v74.3c0,4.9,4,8.9,8.9,8.9s8.9-4,8.9-8.9
				v-44.7h5.3c4.9,0,8.9-4,8.9-8.9s-4-8.9-8.9-8.9h-5.3v-11.9C296.625,289.75,299.025,287.35,301.925,287.35z"/>
		</g>
	</g>
</g>
<g>
</g>
<g>
</g>
<g>
</g>
<g>
</g>
<g>
</g>
<g>
</g>
<g>
</g>
<g>
</g>
<g>
</g>
<g>
</g>
<g>
</g>
<g>
</g>
<g>
</g>
<g>
</g>
<g>
</g>
</svg>
