<?xml version="1.0" encoding="iso-8859-1"?>
<!-- Generator: Adobe Illustrator 19.0.0, SVG Export Plug-In . SVG Version: 6.00 Build 0)  -->
<svg version="1.1" id="Layer_1" xmlns="http://www.w3.org/2000/svg" xmlns:xlink="http://www.w3.org/1999/xlink" x="0px" y="0px"
	 viewBox="0 0 489.725 489.725" style="enable-background:new 0 0 489.725 489.725;" xml:space="preserve">
<g>
	<g>
		<path d="M245.825,364.588c-34.4,0-62.5,28.1-62.5,62.5s28.1,62.5,62.5,62.5s62.5-28.1,62.5-62.5
			C308.425,392.688,280.225,364.588,245.825,364.588z M245.825,448.988c-12.5,0-21.9-9.4-21.9-21.9s9.4-21.9,21.9-21.9
			c12.5,0,21.9,9.4,21.9,21.9S258.325,448.988,245.825,448.988z"/>
		<path d="M483.425,97.788c-131.3-130.2-345.9-130.2-477.2,0c-8.3,8.3-8.3,20.8,0,29.2s20.8,8.3,29.2,0
			c116.7-114.6,304.3-114.6,419.9,0c4.2,4.2,17.2,11.5,28.1,0C491.825,118.689,491.825,106.189,483.425,97.788z"/>
		<path d="M87.525,183.288c-8.3,8.3-8.3,20.8,0,29.2s20.8,8.3,29.2,0c70.9-70.9,187.6-70.9,258.4,0c4.2,4.2,17.4,11.7,28.1,0
			c8.3-8.3,8.3-20.8,0-29.2C316.725,96.788,175.025,96.788,87.525,183.288z"/>
		<path d="M167.725,268.688c-8.3,8.3-8.3,20.8,0,29.2s20.8,8.3,29.2,0c27.1-26,69.8-26,96.9,0c4.2,4.2,17.1,11.7,28.1,0
			c8.3-8.3,8.3-20.8,0-29.2C279.225,227.088,210.425,227.088,167.725,268.688z"/>
	</g>
</g>
<g>
</g>
<g>
</g>
<g>
</g>
<g>
</g>
<g>
</g>
<g>
</g>
<g>
</g>
<g>
</g>
<g>
</g>
<g>
</g>
<g>
</g>
<g>
</g>
<g>
</g>
<g>
</g>
<g>
</g>
</svg>
