<?xml version="1.0" encoding="iso-8859-1"?>
<!-- Generator: Adobe Illustrator 19.0.0, SVG Export Plug-In . SVG Version: 6.00 Build 0)  -->
<svg version="1.1" id="Layer_1" xmlns="http://www.w3.org/2000/svg" xmlns:xlink="http://www.w3.org/1999/xlink" x="0px" y="0px"
	 viewBox="0 0 489.79 489.79" style="enable-background:new 0 0 489.79 489.79;" xml:space="preserve">
<g>
	<path d="M217.625,442.709c-38.5-38.5-55.2-94.8-42.7-147.9l-168.7-168.7c-8.3-8.3-8.3-20.8,0-29.2l90.6-90.6
		c8.3-8.3,20.8-8.3,29.2,0l169.7,169.7c11.5-3.1,84.5-19.2,147.9,42.7c45.8,45.8,59.4,117.7,32.3,177c-3,9.7-20.9,17.6-32.3,6.2
		l-97.9-97.9l-32.3,8.3l-8.3,32.3l95.8,97.9c8.3,7,8.5,25.2-6.2,32.3C374.825,485.409,292.125,514.609,217.625,442.709z
		 M48.925,111.509l163.5,163.5c5.2,5.2,7.3,13.5,5.2,20.8c-13.5,42.7-2.1,87.5,29.2,118.7c41.2,42.1,95.8,34.4,101,33.3l-82.3-82.3
		c-5.2-5.2-7.3-12.5-5.2-19.8l14.6-55.2c2.1-7.3,7.3-12.5,14.6-14.6l55.2-14.6c7.3-2.1,14.6,0,19.8,5.2l82.3,82.3
		c5.2-36.4-6.2-75-33.3-102.1c-49.2-48.4-107.3-32.3-118.7-29.2c-7.3,2.1-15.6,0-20.8-5.2l-162.7-163.3L48.925,111.509z"/>
</g>
<g>
</g>
<g>
</g>
<g>
</g>
<g>
</g>
<g>
</g>
<g>
</g>
<g>
</g>
<g>
</g>
<g>
</g>
<g>
</g>
<g>
</g>
<g>
</g>
<g>
</g>
<g>
</g>
<g>
</g>
</svg>
